Russolo-72ptMedium.ufo
<glyph name="exclam" format="2">
  <advance width="507"/>
  <unicode hex="0021"/>
  <note>
exclam
</note>
  <outline>
    <contour>
      <point x="233" y="316" type="curve"/>
      <point x="276" y="316" type="line"/>
      <point x="279" y="983"/>
      <point x="361" y="1127"/>
      <point x="361" y="1215" type="curve" smooth="yes"/>
      <point x="361" y="1329"/>
      <point x="276" y="1234"/>
      <point x="288" y="1464" type="curve"/>
      <point x="220" y="1464" type="line"/>
      <point x="232" y="1234"/>
      <point x="147" y="1329"/>
      <point x="147" y="1215" type="curve" smooth="yes"/>
      <point x="147" y="1127"/>
      <point x="229" y="983"/>
    </contour>
    <contour>
      <point x="254" y="-19" type="curve" smooth="yes"/>
      <point x="301" y="-19"/>
      <point x="338" y="28"/>
      <point x="338" y="84" type="curve" smooth="yes"/>
      <point x="338" y="139"/>
      <point x="300" y="185"/>
      <point x="254" y="185" type="curve" smooth="yes"/>
      <point x="208" y="185"/>
      <point x="170" y="139"/>
      <point x="170" y="84" type="curve" smooth="yes"/>
      <point x="170" y="28"/>
      <point x="207" y="-19"/>
    </contour>
  </outline>
</glyph>
<glyph name="quotedbl" format="2">
  <advance width="578"/>
  <unicode hex="0022"/>
  <note>
quotedbl
</note>
  <outline>
    <contour>
      <point x="342" y="825" type="line"/>
      <point x="422" y="825" type="line"/>
      <point x="443" y="1359" type="line"/>
      <point x="326" y="1359" type="line"/>
    </contour>
    <contour>
      <point x="153" y="825" type="line"/>
      <point x="231" y="825" type="line"/>
      <point x="252" y="1359" type="line"/>
      <point x="136" y="1359" type="line"/>
    </contour>
  </outline>
</glyph>
<glyph name="numbersign" format="2">
  <advance width="1228"/>
  <unicode hex="0023"/>
  <note>
numbersign
</note>
  <outline>
    <contour>
      <point x="661" y="0" type="line"/>
      <point x="785" y="0" type="line"/>
      <point x="1067" y="1433" type="line"/>
      <point x="943" y="1433" type="line"/>
    </contour>
    <contour>
      <point x="65" y="474" type="line"/>
      <point x="1098" y="474" type="line"/>
      <point x="1098" y="537" type="line"/>
      <point x="65" y="537" type="line"/>
    </contour>
    <contour>
      <point x="164" y="0" type="line"/>
      <point x="289" y="0" type="line"/>
      <point x="572" y="1433" type="line"/>
      <point x="448" y="1433" type="line"/>
    </contour>
    <contour>
      <point x="122" y="902" type="line"/>
      <point x="1156" y="902" type="line"/>
      <point x="1156" y="966" type="line"/>
      <point x="122" y="966" type="line"/>
    </contour>
  </outline>
</glyph>
<glyph name="percent" format="2">
  <advance width="1701"/>
  <unicode hex="0025"/>
  <note>
percent
</note>
  <outline>
    <contour>
      <point x="272" y="-32" type="line"/>
      <point x="413" y="-32" type="line"/>
      <point x="1364" y="1446" type="line"/>
      <point x="1223" y="1446" type="line"/>
    </contour>
    <contour>
      <point x="1255" y="-26" type="curve" smooth="yes"/>
      <point x="1476" y="-26"/>
      <point x="1607" y="134"/>
      <point x="1607" y="348" type="curve" smooth="yes"/>
      <point x="1607" y="563"/>
      <point x="1470" y="724"/>
      <point x="1255" y="724" type="curve" smooth="yes"/>
      <point x="1041" y="724"/>
      <point x="904" y="562"/>
      <point x="904" y="348" type="curve" smooth="yes"/>
      <point x="904" y="136"/>
      <point x="1033" y="-26"/>
    </contour>
    <contour>
      <point x="1255" y="42" type="curve" smooth="yes"/>
      <point x="1138" y="42"/>
      <point x="1069" y="162"/>
      <point x="1069" y="348" type="curve" smooth="yes"/>
      <point x="1069" y="536"/>
      <point x="1138" y="657"/>
      <point x="1255" y="657" type="curve" smooth="yes"/>
      <point x="1372" y="657"/>
      <point x="1442" y="535"/>
      <point x="1442" y="348" type="curve" smooth="yes"/>
      <point x="1442" y="162"/>
      <point x="1373" y="42"/>
    </contour>
    <contour>
      <point x="446" y="714" type="curve" smooth="yes"/>
      <point x="667" y="714"/>
      <point x="799" y="875"/>
      <point x="799" y="1090" type="curve" smooth="yes"/>
      <point x="799" y="1304"/>
      <point x="660" y="1465"/>
      <point x="446" y="1465" type="curve" smooth="yes"/>
      <point x="231" y="1465"/>
      <point x="94" y="1303"/>
      <point x="94" y="1090" type="curve" smooth="yes"/>
      <point x="94" y="876"/>
      <point x="223" y="714"/>
    </contour>
    <contour>
      <point x="446" y="782" type="curve" smooth="yes"/>
      <point x="329" y="782"/>
      <point x="260" y="903"/>
      <point x="260" y="1090" type="curve" smooth="yes"/>
      <point x="260" y="1278"/>
      <point x="329" y="1397"/>
      <point x="446" y="1397" type="curve" smooth="yes"/>
      <point x="562" y="1397"/>
      <point x="633" y="1276"/>
      <point x="633" y="1090" type="curve" smooth="yes"/>
      <point x="633" y="906"/>
      <point x="563" y="782"/>
    </contour>
  </outline>
</glyph>
<glyph name="ampersand" format="2">
  <advance width="1308"/>
  <unicode hex="0026"/>
  <note>
ampersand
</note>
  <outline>
    <contour>
      <point x="591" y="-31" type="curve" smooth="yes"/>
      <point x="760" y="-31"/>
      <point x="834" y="0"/>
      <point x="930" y="63" type="curve"/>
      <point x="873" y="124" type="line"/>
      <point x="784" y="55"/>
      <point x="684" y="31"/>
      <point x="585" y="31" type="curve" smooth="yes"/>
      <point x="406" y="31"/>
      <point x="325" y="205"/>
      <point x="325" y="395" type="curve" smooth="yes"/>
      <point x="325" y="604"/>
      <point x="429" y="750"/>
      <point x="608" y="748" type="curve"/>
      <point x="611" y="809" type="line"/>
      <point x="454" y="805"/>
      <point x="403" y="951"/>
      <point x="403" y="1088" type="curve" smooth="yes"/>
      <point x="403" y="1249"/>
      <point x="483" y="1402"/>
      <point x="613" y="1402" type="curve" smooth="yes"/>
      <point x="793" y="1402" type="line"/>
      <point x="793" y="1462" type="line"/>
      <point x="609" y="1462" type="line" smooth="yes"/>
      <point x="355" y="1462"/>
      <point x="202" y="1307"/>
      <point x="202" y="1088" type="curve" smooth="yes"/>
      <point x="202" y="955"/>
      <point x="281" y="832"/>
      <point x="431" y="786" type="curve"/>
      <point x="264" y="746"/>
      <point x="110" y="600"/>
      <point x="110" y="389" type="curve" smooth="yes"/>
      <point x="110" y="136"/>
      <point x="324" y="-31"/>
    </contour>
    <contour>
      <point x="1038" y="-21" type="curve" smooth="yes"/>
      <point x="1125" y="-21"/>
      <point x="1195" y="-1"/>
      <point x="1225" y="14" type="curve"/>
      <point x="1225" y="111" type="line"/>
      <point x="1136" y="64"/>
      <point x="1096" y="43"/>
      <point x="1065" y="43" type="curve" smooth="yes"/>
      <point x="1032" y="43"/>
      <point x="1048" y="223"/>
      <point x="1048" y="381" type="curve" smooth="yes"/>
      <point x="1048" y="748" type="line"/>
      <point x="1189" y="748" type="line"/>
      <point x="1189" y="808" type="line"/>
      <point x="1048" y="808" type="line"/>
      <point x="1048" y="1146" type="line"/>
      <point x="947" y="1146" type="line"/>
      <point x="964" y="873"/>
      <point x="876" y="807"/>
      <point x="705" y="808" type="curve" smooth="yes"/>
      <point x="599" y="808" type="line"/>
      <point x="594" y="748" type="line"/>
      <point x="844" y="748" type="line"/>
      <point x="844" y="256" type="line" smooth="yes"/>
      <point x="844" y="71"/>
      <point x="901" y="-21"/>
    </contour>
  </outline>
</glyph>
<glyph name="quotesingle" format="2">
  <advance width="386"/>
  <unicode hex="0027"/>
  <note>
quotesingle
</note>
  <outline>
    <contour>
      <point x="153" y="825" type="line"/>
      <point x="231" y="825" type="line"/>
      <point x="252" y="1359" type="line"/>
      <point x="136" y="1359" type="line"/>
    </contour>
  </outline>
</glyph>
<glyph name="parenleft" format="2">
  <advance width="535"/>
  <unicode hex="0028"/>
  <note>
parenleft
</note>
  <outline>
    <contour>
      <point x="420" y="-389" type="curve"/>
      <point x="492" y="-367" type="line"/>
      <point x="356" y="-125"/>
      <point x="223" y="216"/>
      <point x="223" y="570" type="curve" smooth="yes"/>
      <point x="223" y="923"/>
      <point x="356" y="1271"/>
      <point x="493" y="1523" type="curve"/>
      <point x="420" y="1539" type="line"/>
      <point x="183" y="1205"/>
      <point x="78" y="925"/>
      <point x="78" y="575" type="curve" smooth="yes"/>
      <point x="78" y="228"/>
      <point x="181" y="-60"/>
    </contour>
  </outline>
</glyph>
<glyph name="parenright" format="2">
  <advance width="536"/>
  <unicode hex="0029"/>
  <note>
parenright
</note>
  <outline>
    <contour>
      <point x="116" y="-389" type="line"/>
      <point x="357" y="-59"/>
      <point x="458" y="228"/>
      <point x="458" y="575" type="curve" smooth="yes"/>
      <point x="458" y="924"/>
      <point x="354" y="1205"/>
      <point x="116" y="1539" type="curve"/>
      <point x="42" y="1523" type="line"/>
      <point x="180" y="1273"/>
      <point x="314" y="921"/>
      <point x="314" y="570" type="curve" smooth="yes"/>
      <point x="314" y="215"/>
      <point x="179" y="-128"/>
      <point x="43" y="-367" type="curve"/>
    </contour>
  </outline>
</glyph>
<glyph name="asterisk" format="2">
  <advance width="753"/>
  <unicode hex="002A"/>
  <note>
asterisk
</note>
  <outline>
    <contour>
      <point x="384" y="1114" type="line"/>
      <point x="500" y="1188"/>
      <point x="595" y="1198"/>
      <point x="604" y="1203" type="curve" smooth="yes"/>
      <point x="637" y="1223"/>
      <point x="586" y="1236"/>
      <point x="648" y="1272" type="curve"/>
      <point x="638" y="1290" type="line"/>
      <point x="577" y="1255"/>
      <point x="591" y="1305"/>
      <point x="556" y="1286" type="curve" smooth="yes"/>
      <point x="547" y="1281"/>
      <point x="492" y="1205"/>
      <point x="369" y="1140" type="curve"/>
    </contour>
    <contour>
      <point x="115" y="964" type="line"/>
      <point x="176" y="999"/>
      <point x="163" y="949"/>
      <point x="197" y="968" type="curve" smooth="yes"/>
      <point x="206" y="973"/>
      <point x="262" y="1050"/>
      <point x="384" y="1114" type="curve"/>
      <point x="369" y="1140" type="line"/>
      <point x="252" y="1066"/>
      <point x="158" y="1055"/>
      <point x="149" y="1051" type="curve" smooth="yes"/>
      <point x="115" y="1030"/>
      <point x="166" y="1018"/>
      <point x="105" y="982" type="curve"/>
    </contour>
    <contour>
      <point x="366" y="819" type="curve"/>
      <point x="387" y="819" type="line"/>
      <point x="387" y="890"/>
      <point x="424" y="865"/>
      <point x="424" y="892" type="curve" smooth="yes"/>
      <point x="424" y="912"/>
      <point x="386" y="989"/>
      <point x="392" y="1127" type="curve"/>
      <point x="361" y="1127" type="line"/>
      <point x="367" y="988"/>
      <point x="329" y="913"/>
      <point x="329" y="892" type="curve" smooth="yes"/>
      <point x="329" y="865"/>
      <point x="366" y="889"/>
    </contour>
    <contour>
      <point x="368" y="1114" type="curve"/>
      <point x="384" y="1140" type="line"/>
      <point x="261" y="1205"/>
      <point x="206" y="1281"/>
      <point x="197" y="1286" type="curve" smooth="yes"/>
      <point x="162" y="1305"/>
      <point x="175" y="1255"/>
      <point x="114" y="1289" type="curve"/>
      <point x="105" y="1272" type="line"/>
      <point x="166" y="1236"/>
      <point x="116" y="1223"/>
      <point x="149" y="1203" type="curve" smooth="yes"/>
      <point x="158" y="1198"/>
      <point x="252" y="1187"/>
    </contour>
    <contour>
      <point x="556" y="968" type="curve" smooth="yes"/>
      <point x="590" y="949"/>
      <point x="577" y="999"/>
      <point x="638" y="964" type="curve"/>
      <point x="648" y="981" type="line"/>
      <point x="587" y="1017"/>
      <point x="638" y="1030"/>
      <point x="604" y="1051" type="curve" smooth="yes"/>
      <point x="595" y="1055"/>
      <point x="501" y="1066"/>
      <point x="384" y="1140" type="curve"/>
      <point x="368" y="1114" type="line"/>
      <point x="491" y="1049"/>
      <point x="547" y="973"/>
    </contour>
    <contour>
      <point x="361" y="1127" type="curve"/>
      <point x="392" y="1127" type="line"/>
      <point x="386" y="1265"/>
      <point x="424" y="1341"/>
      <point x="424" y="1362" type="curve" smooth="yes"/>
      <point x="424" y="1389"/>
      <point x="387" y="1364"/>
      <point x="387" y="1435" type="curve"/>
      <point x="366" y="1435" type="line"/>
      <point x="366" y="1364"/>
      <point x="329" y="1388"/>
      <point x="329" y="1362" type="curve" smooth="yes"/>
      <point x="329" y="1341"/>
      <point x="367" y="1266"/>
    </contour>
  </outline>
</glyph>
<glyph name="plus" format="2">
  <advance width="982"/>
  <unicode hex="002B"/>
  <note>
plus
</note>
  <outline>
    <contour>
      <point x="82" y="599" type="line"/>
      <point x="900" y="599" type="line"/>
      <point x="900" y="735" type="line"/>
      <point x="82" y="735" type="line"/>
    </contour>
    <contour>
      <point x="445" y="258" type="line"/>
      <point x="537" y="258" type="line"/>
      <point x="537" y="1076" type="line"/>
      <point x="445" y="1076" type="line"/>
    </contour>
  </outline>
</glyph>
<glyph name="comma" format="2">
  <advance width="482"/>
  <unicode hex="002C"/>
  <note>
comma
</note>
  <outline>
    <contour>
      <point x="138" y="-177" type="curve"/>
      <point x="236" y="-177" type="line"/>
      <point x="284" y="-73"/>
      <point x="338" y="59"/>
      <point x="358" y="169" type="curve"/>
      <point x="215" y="169" type="line"/>
      <point x="175" y="77"/>
      <point x="151" y="-70"/>
    </contour>
  </outline>
</glyph>
<glyph name="hyphen" format="2">
  <advance width="628"/>
  <unicode hex="002D"/>
  <note>
hyphen
</note>
  <outline>
    <contour>
      <point x="60" y="434" type="line"/>
      <point x="497" y="434" type="line"/>
      <point x="569" y="588" type="line"/>
      <point x="130" y="588" type="line"/>
    </contour>
  </outline>
</glyph>
<glyph name="period" format="2">
  <advance width="436"/>
  <unicode hex="002E"/>
  <note>
period
</note>
  <outline>
    <contour>
      <point x="217" y="-6" type="curve" smooth="yes"/>
      <point x="268" y="-6"/>
      <point x="316" y="33"/>
      <point x="316" y="93" type="curve" smooth="yes"/>
      <point x="316" y="154"/>
      <point x="268" y="193"/>
      <point x="217" y="193" type="curve" smooth="yes"/>
      <point x="167" y="193"/>
      <point x="119" y="153"/>
      <point x="119" y="93" type="curve" smooth="yes"/>
      <point x="119" y="33"/>
      <point x="166" y="-6"/>
    </contour>
  </outline>
</glyph>
<glyph name="slash" format="2">
  <advance width="583"/>
  <unicode hex="002F"/>
  <note>
slash
</note>
  <outline>
    <contour>
      <point x="6" y="-403" type="line"/>
      <point x="91" y="-403" type="line"/>
      <point x="577" y="1498" type="line"/>
      <point x="492" y="1498" type="line"/>
    </contour>
  </outline>
</glyph>
<glyph name="zero" format="2">
  <advance width="1357"/>
  <unicode hex="0030"/>
  <note>
zero
</note>
  <anchor x="668" y="716" name="center"/>
  <outline>
    <contour>
      <point x="678" y="-27" type="curve" smooth="yes"/>
      <point x="1020" y="-27"/>
      <point x="1276" y="274"/>
      <point x="1276" y="716" type="curve" smooth="yes"/>
      <point x="1276" y="1146"/>
      <point x="1009" y="1459"/>
      <point x="678" y="1459" type="curve" smooth="yes"/>
      <point x="346" y="1459"/>
      <point x="81" y="1147"/>
      <point x="81" y="716" type="curve" smooth="yes"/>
      <point x="81" y="278"/>
      <point x="340" y="-27"/>
    </contour>
    <contour>
      <point x="678" y="52" type="curve" smooth="yes"/>
      <point x="448" y="52"/>
      <point x="268" y="325"/>
      <point x="268" y="716" type="curve" smooth="yes"/>
      <point x="268" y="1106"/>
      <point x="448" y="1380"/>
      <point x="678" y="1380" type="curve" smooth="yes"/>
      <point x="909" y="1380"/>
      <point x="1090" y="1105"/>
      <point x="1090" y="716" type="curve" smooth="yes"/>
      <point x="1090" y="327"/>
      <point x="910" y="52"/>
    </contour>
  </outline>
</glyph>
<glyph name="one" format="2">
  <advance width="605"/>
  <unicode hex="0031"/>
  <note>
one
</note>
  <outline>
    <contour>
      <point x="251" y="0" type="line"/>
      <point x="441" y="0" type="line"/>
      <point x="441" y="1456" type="line"/>
      <point x="372" y="1456" type="line"/>
      <point x="23" y="960" type="line"/>
      <point x="50" y="935" type="line"/>
      <point x="278" y="1242" type="line"/>
      <point x="251" y="1227" type="line"/>
    </contour>
  </outline>
</glyph>
<glyph name="two" format="2">
  <advance width="1089"/>
  <unicode hex="0032"/>
  <note>
two
</note>
  <outline>
    <contour>
      <point x="43" y="0" type="line"/>
      <point x="1020" y="0" type="line"/>
      <point x="1020" y="155" type="line"/>
      <point x="211" y="156" type="line"/>
      <point x="176" y="85" type="line"/>
      <point x="377" y="235"/>
      <point x="613" y="441"/>
      <point x="747" y="588" type="curve" smooth="yes"/>
      <point x="835" y="683"/>
      <point x="997" y="805"/>
      <point x="997" y="1028" type="curve" smooth="yes"/>
      <point x="997" y="1255"/>
      <point x="852" y="1462"/>
      <point x="564" y="1462" type="curve" smooth="yes"/>
      <point x="306" y="1462"/>
      <point x="96" y="1271"/>
      <point x="96" y="1026" type="curve" smooth="yes"/>
      <point x="96" y="1009"/>
      <point x="98" y="1007"/>
      <point x="101" y="984" type="curve"/>
      <point x="267" y="990" type="line"/>
      <point x="267" y="1003" type="line" smooth="yes"/>
      <point x="267" y="1218"/>
      <point x="359" y="1406"/>
      <point x="549" y="1406" type="curve" smooth="yes"/>
      <point x="671" y="1406"/>
      <point x="804" y="1349"/>
      <point x="804" y="1064" type="curve" smooth="yes"/>
      <point x="804" y="872"/>
      <point x="688" y="619"/>
      <point x="423" y="363" type="curve" smooth="yes"/>
    </contour>
  </outline>
</glyph>
<glyph name="three" format="2">
  <advance width="1094"/>
  <unicode hex="0033"/>
  <note>
three
</note>
  <outline>
    <contour>
      <point x="512" y="-28" type="curve" smooth="yes"/>
      <point x="818" y="-28"/>
      <point x="1014" y="157"/>
      <point x="1014" y="386" type="curve" smooth="yes"/>
      <point x="1014" y="612"/>
      <point x="846" y="741"/>
      <point x="642" y="786" type="curve"/>
      <point x="723" y="746" type="line"/>
      <point x="810" y="775"/>
      <point x="974" y="874"/>
      <point x="974" y="1091" type="curve" smooth="yes"/>
      <point x="974" y="1287"/>
      <point x="819" y="1459"/>
      <point x="546" y="1459" type="curve" smooth="yes"/>
      <point x="291" y="1459"/>
      <point x="100" y="1312"/>
      <point x="85" y="1087" type="curve"/>
      <point x="253" y="1090" type="line"/>
      <point x="257" y="1251"/>
      <point x="356" y="1402"/>
      <point x="542" y="1402" type="curve" smooth="yes"/>
      <point x="743" y="1402"/>
      <point x="794" y="1237"/>
      <point x="794" y="1089" type="curve" smooth="yes"/>
      <point x="794" y="882"/>
      <point x="710" y="781"/>
      <point x="517" y="781" type="curve" smooth="yes"/>
      <point x="315" y="781" type="line"/>
      <point x="315" y="745" type="line"/>
      <point x="521" y="745" type="line" smooth="yes"/>
      <point x="708" y="745"/>
      <point x="810" y="598"/>
      <point x="810" y="385" type="curve" smooth="yes"/>
      <point x="810" y="175"/>
      <point x="693" y="24"/>
      <point x="518" y="24" type="curve" smooth="yes"/>
      <point x="343" y="24"/>
      <point x="241" y="172"/>
      <point x="241" y="352" type="curve" smooth="yes"/>
      <point x="241" y="358" type="line"/>
      <point x="57" y="362" type="line"/>
      <point x="57" y="345" type="line" smooth="yes"/>
      <point x="57" y="106"/>
      <point x="248" y="-28"/>
    </contour>
  </outline>
</glyph>
<glyph name="four" format="2">
  <advance width="1073"/>
  <unicode hex="0034"/>
  <note>
four
</note>
  <outline>
    <contour>
      <point x="676" y="0" type="line"/>
      <point x="855" y="0" type="line"/>
      <point x="855" y="398" type="line"/>
      <point x="751" y="327" type="line"/>
      <point x="1052" y="327" type="line"/>
      <point x="1052" y="405" type="line"/>
      <point x="751" y="405" type="line"/>
      <point x="855" y="309" type="line"/>
      <point x="855" y="846" type="line"/>
      <point x="676" y="846" type="line"/>
      <point x="676" y="309" type="line"/>
      <point x="745" y="405" type="line"/>
      <point x="93" y="405" type="line"/>
      <point x="135" y="360" type="line"/>
      <point x="337" y="641"/>
      <point x="614" y="1110"/>
      <point x="759" y="1441" type="curve"/>
      <point x="584" y="1454" type="line"/>
      <point x="461" y="1066"/>
      <point x="195" y="608"/>
      <point x="21" y="327" type="curve"/>
      <point x="745" y="327" type="line"/>
      <point x="676" y="398" type="line"/>
    </contour>
  </outline>
</glyph>
<glyph name="five" format="2">
  <advance width="985"/>
  <unicode hex="0035"/>
  <note>
five
</note>
  <outline>
    <contour>
      <point x="461" y="-32" type="curve" smooth="yes"/>
      <point x="756" y="-32"/>
      <point x="918" y="171"/>
      <point x="918" y="436" type="curve" smooth="yes"/>
      <point x="918" y="758"/>
      <point x="652" y="892"/>
      <point x="468" y="892" type="curve" smooth="yes"/>
      <point x="343" y="892"/>
      <point x="241" y="834"/>
      <point x="167" y="778" type="curve"/>
      <point x="191" y="787" type="line"/>
      <point x="304" y="1333" type="line"/>
      <point x="220" y="1256" type="line"/>
      <point x="829" y="1256" type="line"/>
      <point x="829" y="1430" type="line"/>
      <point x="241" y="1430" type="line"/>
      <point x="108" y="781" type="line"/>
      <point x="165" y="745" type="line"/>
      <point x="250" y="791"/>
      <point x="359" y="824"/>
      <point x="428" y="824" type="curve" smooth="yes"/>
      <point x="608" y="824"/>
      <point x="730" y="693"/>
      <point x="730" y="422" type="curve" smooth="yes"/>
      <point x="730" y="202"/>
      <point x="685" y="36"/>
      <point x="458" y="36" type="curve" smooth="yes"/>
      <point x="305" y="36"/>
      <point x="150" y="107"/>
      <point x="58" y="248" type="curve"/>
      <point x="41" y="205" type="line"/>
      <point x="134" y="39"/>
      <point x="287" y="-32"/>
    </contour>
  </outline>
</glyph>
<glyph name="six" format="2">
  <advance width="1074"/>
  <unicode hex="0036"/>
  <note>
six
</note>
  <outline>
    <contour>
      <point x="545" y="-33" type="curve" smooth="yes"/>
      <point x="836" y="-36"/>
      <point x="1021" y="162"/>
      <point x="1021" y="428" type="curve" smooth="yes"/>
      <point x="1021" y="695"/>
      <point x="838" y="896"/>
      <point x="568" y="896" type="curve" smooth="yes"/>
      <point x="393" y="896"/>
      <point x="253" y="766"/>
      <point x="170" y="596" type="curve"/>
      <point x="234" y="534" type="line"/>
      <point x="241" y="703"/>
      <point x="244" y="723"/>
      <point x="243" y="807" type="curve" smooth="yes"/>
      <point x="345" y="1105"/>
      <point x="473" y="1281"/>
      <point x="762" y="1372" type="curve"/>
      <point x="760" y="1456" type="line"/>
      <point x="467" y="1401"/>
      <point x="301" y="1241"/>
      <point x="171" y="996" type="curve" smooth="yes"/>
      <point x="142" y="864"/>
      <point x="75" y="741"/>
      <point x="75" y="515" type="curve" smooth="yes"/>
      <point x="75" y="193"/>
      <point x="234" y="-30"/>
    </contour>
    <contour>
      <point x="557" y="43" type="curve" smooth="yes"/>
      <point x="344" y="46"/>
      <point x="254" y="244"/>
      <point x="256" y="460" type="curve" smooth="yes"/>
      <point x="257" y="607"/>
      <point x="367" y="815"/>
      <point x="570" y="815" type="curve" smooth="yes"/>
      <point x="765" y="815"/>
      <point x="844" y="615"/>
      <point x="844" y="437" type="curve" smooth="yes"/>
      <point x="844" y="267"/>
      <point x="787" y="40"/>
    </contour>
  </outline>
</glyph>
<glyph name="seven" format="2">
  <advance width="983"/>
  <unicode hex="0037"/>
  <note>
seven
</note>
  <outline>
    <contour>
      <point x="264" y="0" type="curve"/>
      <point x="454" y="0" type="line"/>
      <point x="527" y="544"/>
      <point x="738" y="1074"/>
      <point x="960" y="1419" type="curve"/>
      <point x="30" y="1419" type="line"/>
      <point x="30" y="1243" type="line"/>
      <point x="815" y="1243" type="line"/>
      <point x="815" y="1336" type="line"/>
      <point x="591" y="1058"/>
      <point x="395" y="547"/>
    </contour>
  </outline>
</glyph>
<glyph name="eight" format="2">
  <advance width="1047"/>
  <unicode hex="0038"/>
  <note>
eight
</note>
  <outline>
    <contour>
      <point x="493" y="-32" type="curve" smooth="yes"/>
      <point x="776" y="-32"/>
      <point x="977" y="146"/>
      <point x="977" y="390" type="curve" smooth="yes"/>
      <point x="977" y="604"/>
      <point x="833" y="727"/>
      <point x="588" y="816" type="curve" smooth="yes"/>
      <point x="349" y="911"/>
      <point x="301" y="1019"/>
      <point x="301" y="1114" type="curve" smooth="yes"/>
      <point x="301" y="1279"/>
      <point x="382" y="1386"/>
      <point x="529" y="1391" type="curve" smooth="yes"/>
      <point x="686" y="1396"/>
      <point x="796" y="1288"/>
      <point x="796" y="1114" type="curve" smooth="yes"/>
      <point x="796" y="999"/>
      <point x="767" y="873"/>
      <point x="467" y="827" type="curve"/>
      <point x="587" y="794" type="line"/>
      <point x="814" y="839"/>
      <point x="905" y="953"/>
      <point x="899" y="1118" type="curve" smooth="yes"/>
      <point x="893" y="1293"/>
      <point x="756" y="1445"/>
      <point x="527" y="1445" type="curve" smooth="yes"/>
      <point x="309" y="1444"/>
      <point x="134" y="1321"/>
      <point x="134" y="1097" type="curve" smooth="yes"/>
      <point x="134" y="932"/>
      <point x="206" y="812"/>
      <point x="406" y="735" type="curve" smooth="yes"/>
      <point x="741" y="597"/>
      <point x="800" y="495"/>
      <point x="800" y="358" type="curve" smooth="yes"/>
      <point x="800" y="143"/>
      <point x="652" y="24"/>
      <point x="478" y="24" type="curve" smooth="yes"/>
      <point x="263" y="24"/>
      <point x="186" y="207"/>
      <point x="186" y="367" type="curve" smooth="yes"/>
      <point x="185" y="534"/>
      <point x="247" y="708"/>
      <point x="450" y="763" type="curve"/>
      <point x="390" y="785" type="line"/>
      <point x="197" y="751"/>
      <point x="75" y="569"/>
      <point x="75" y="377" type="curve" smooth="yes"/>
      <point x="75" y="163"/>
      <point x="196" y="-32"/>
    </contour>
  </outline>
</glyph>
<glyph name="nine" format="2">
  <advance width="1074"/>
  <unicode hex="0039"/>
  <note>
nine
</note>
  <outline>
    <contour>
      <point x="262" y="-41" type="line"/>
      <point x="457" y="-7"/>
      <point x="566" y="20"/>
      <point x="687" y="137" type="curve" smooth="yes"/>
      <point x="748" y="192"/>
      <point x="802" y="267"/>
      <point x="844" y="335" type="curve" smooth="yes"/>
      <point x="938" y="482"/>
      <point x="999" y="665"/>
      <point x="999" y="900" type="curve" smooth="yes"/>
      <point x="999" y="1222"/>
      <point x="839" y="1445"/>
      <point x="529" y="1448" type="curve" smooth="yes"/>
      <point x="252" y="1451"/>
      <point x="53" y="1253"/>
      <point x="53" y="983" type="curve" smooth="yes"/>
      <point x="53" y="707"/>
      <point x="245" y="506"/>
      <point x="505" y="506" type="curve" smooth="yes"/>
      <point x="681" y="506"/>
      <point x="808" y="643"/>
      <point x="904" y="820" type="curve"/>
      <point x="835" y="881" type="line"/>
      <point x="833" y="731"/>
      <point x="846" y="707"/>
      <point x="847" y="624" type="curve" smooth="yes"/>
      <point x="745" y="326"/>
      <point x="620" y="150"/>
      <point x="279" y="64" type="curve"/>
    </contour>
    <contour>
      <point x="504" y="594" type="curve" smooth="yes"/>
      <point x="310" y="594"/>
      <point x="234" y="800"/>
      <point x="234" y="974" type="curve" smooth="yes"/>
      <point x="234" y="1146"/>
      <point x="289" y="1373"/>
      <point x="517" y="1369" type="curve" smooth="yes"/>
      <point x="728" y="1367"/>
      <point x="815" y="1162"/>
      <point x="813" y="951" type="curve" smooth="yes"/>
      <point x="812" y="802"/>
      <point x="703" y="594"/>
    </contour>
  </outline>
</glyph>
<glyph name="greater" format="2">
  <advance width="982"/>
  <unicode hex="003E"/>
  <note>
greater
</note>
  <outline>
    <contour>
      <point x="82" y="291" type="line"/>
      <point x="883" y="641" type="line"/>
      <point x="883" y="724" type="line"/>
      <point x="82" y="1072" type="line"/>
      <point x="82" y="953" type="line"/>
      <point x="708" y="682" type="line"/>
      <point x="82" y="410" type="line"/>
    </contour>
  </outline>
</glyph>
<glyph name="question" format="2">
  <advance width="938"/>
  <unicode hex="003F"/>
  <note>
question
</note>
  <outline>
    <contour>
      <point x="401" y="439" type="curve"/>
      <point x="479" y="439" type="line"/>
      <point x="458" y="409"/>
      <point x="424" y="560"/>
      <point x="424" y="609" type="curve" smooth="yes"/>
      <point x="424" y="990"/>
      <point x="873" y="873"/>
      <point x="873" y="1172" type="curve" smooth="yes"/>
      <point x="873" y="1393"/>
      <point x="663" y="1462"/>
      <point x="437" y="1462" type="curve" smooth="yes"/>
      <point x="161" y="1462"/>
      <point x="61" y="1354"/>
      <point x="61" y="1172" type="curve" smooth="yes"/>
      <point x="61" y="1153"/>
      <point x="62" y="1136"/>
      <point x="64" y="1103" type="curve"/>
      <point x="234" y="1103" type="line"/>
      <point x="221" y="1163"/>
      <point x="217" y="1205"/>
      <point x="217" y="1205" type="curve" smooth="yes"/>
      <point x="217" y="1325"/>
      <point x="289" y="1397"/>
      <point x="435" y="1397" type="curve" smooth="yes"/>
      <point x="553" y="1397"/>
      <point x="674" y="1327"/>
      <point x="674" y="1175" type="curve" smooth="yes"/>
      <point x="674" y="914"/>
      <point x="365" y="1056"/>
      <point x="365" y="605" type="curve" smooth="yes"/>
      <point x="365" y="559"/>
      <point x="369" y="446"/>
    </contour>
    <contour>
      <point x="440" y="-19" type="curve" smooth="yes"/>
      <point x="487" y="-19"/>
      <point x="524" y="28"/>
      <point x="524" y="84" type="curve" smooth="yes"/>
      <point x="524" y="139"/>
      <point x="486" y="185"/>
      <point x="440" y="185" type="curve" smooth="yes"/>
      <point x="394" y="185"/>
      <point x="356" y="139"/>
      <point x="356" y="84" type="curve" smooth="yes"/>
      <point x="356" y="28"/>
      <point x="393" y="-19"/>
    </contour>
  </outline>
</glyph>
<glyph name="at" format="2">
  <advance width="1737"/>
  <unicode hex="0040"/>
  <note>
at
</note>
  <outline>
    <contour>
      <point x="903" y="-36" type="curve" smooth="yes"/>
      <point x="1208" y="-36"/>
      <point x="1481" y="131"/>
      <point x="1618" y="392" type="curve"/>
      <point x="1516" y="382" type="line"/>
      <point x="1392" y="170"/>
      <point x="1159" y="32"/>
      <point x="904" y="32" type="curve" smooth="yes"/>
      <point x="520" y="32"/>
      <point x="206" y="349"/>
      <point x="206" y="713" type="curve" smooth="yes"/>
      <point x="206" y="1077"/>
      <point x="520" y="1394"/>
      <point x="904" y="1394" type="curve" smooth="yes"/>
      <point x="1251" y="1394"/>
      <point x="1492" y="1183"/>
      <point x="1492" y="887" type="curve" smooth="yes"/>
      <point x="1492" y="782"/>
      <point x="1473" y="690"/>
      <point x="1435" y="613" type="curve" smooth="yes"/>
      <point x="1393" y="506"/>
      <point x="1309" y="410"/>
      <point x="1230" y="380" type="curve" smooth="yes"/>
      <point x="1198" y="385"/>
      <point x="1138" y="446"/>
      <point x="1141" y="498" type="curve"/>
      <point x="1296" y="1095" type="line"/>
      <point x="1121" y="1095" type="line"/>
      <point x="1100" y="1022" type="line"/>
      <point x="1062" y="1089"/>
      <point x="1017" y="1115"/>
      <point x="910" y="1115" type="curve" smooth="yes"/>
      <point x="654" y="1115"/>
      <point x="439" y="843"/>
      <point x="439" y="584" type="curve" smooth="yes"/>
      <point x="439" y="405"/>
      <point x="551" y="291"/>
      <point x="738" y="291" type="curve" smooth="yes"/>
      <point x="844" y="291"/>
      <point x="908" y="326"/>
      <point x="996" y="450" type="curve"/>
      <point x="1024" y="344"/>
      <point x="1084" y="304"/>
      <point x="1162" y="304" type="curve" smooth="yes"/>
      <point x="1234" y="304"/>
      <point x="1303" y="331"/>
      <point x="1367" y="381" type="curve" smooth="yes"/>
      <point x="1432" y="431"/>
      <point x="1475" y="484"/>
      <point x="1516" y="559" type="curve" smooth="yes"/>
      <point x="1563" y="653"/>
      <point x="1588" y="763"/>
      <point x="1588" y="880" type="curve" smooth="yes"/>
      <point x="1588" y="1212"/>
      <point x="1312" y="1461"/>
      <point x="903" y="1461" type="curve" smooth="yes"/>
      <point x="464" y="1461"/>
      <point x="111" y="1128"/>
      <point x="111" y="713" type="curve" smooth="yes"/>
      <point x="111" y="297"/>
      <point x="463" y="-36"/>
    </contour>
    <contour>
      <point x="753" y="367" type="curve" smooth="yes"/>
      <point x="664" y="367"/>
      <point x="611" y="431"/>
      <point x="611" y="564" type="curve" smooth="yes"/>
      <point x="611" y="801"/>
      <point x="764" y="1046"/>
      <point x="924" y="1046" type="curve" smooth="yes"/>
      <point x="1015" y="1046"/>
      <point x="1048" y="985"/>
      <point x="1048" y="865" type="curve" smooth="yes"/>
      <point x="1048" y="684"/>
      <point x="933" y="367"/>
    </contour>
  </outline>
</glyph>
<glyph name="A" format="2">
  <advance width="1405"/>
  <unicode hex="0041"/>
  <note>
A
</note>
  <anchor x="671" y="30" name="bottom"/>
  <anchor x="1160" y="0" name="ogonek"/>
  <anchor x="671" y="1430" name="top"/>
  <outline>
    <contour>
      <point x="38" y="0" type="line"/>
      <point x="111" y="0" type="line"/>
      <point x="634" y="1213" type="line"/>
      <point x="634" y="1196" type="line"/>
      <point x="1136" y="0" type="line"/>
      <point x="1367" y="0" type="line"/>
      <point x="701" y="1483" type="line"/>
    </contour>
    <contour>
      <point x="240" y="389" type="line"/>
      <point x="1026" y="389" type="line"/>
      <point x="1001" y="455" type="line"/>
      <point x="269" y="455" type="line"/>
    </contour>
  </outline>
</glyph>
<glyph name="B" format="2">
  <advance width="1294"/>
  <unicode hex="0042"/>
  <note>
B
</note>
  <anchor x="661" y="30" name="bottom"/>
  <anchor x="661" y="1430" name="top"/>
  <outline>
    <contour>
      <point x="172" y="0" type="line"/>
      <point x="579" y="0" type="line" smooth="yes"/>
      <point x="1013" y="0"/>
      <point x="1207" y="104"/>
      <point x="1207" y="404" type="curve" smooth="yes"/>
      <point x="1207" y="646"/>
      <point x="1074" y="771"/>
      <point x="739" y="773" type="curve"/>
      <point x="727" y="747" type="line"/>
      <point x="1008" y="755"/>
      <point x="1154" y="871"/>
      <point x="1154" y="1057" type="curve" smooth="yes"/>
      <point x="1154" y="1287"/>
      <point x="956" y="1433"/>
      <point x="621" y="1433" type="curve" smooth="yes"/>
      <point x="172" y="1433" type="line"/>
    </contour>
    <contour>
      <point x="375" y="9" type="line"/>
      <point x="375" y="770" type="line"/>
      <point x="291" y="727" type="line"/>
      <point x="626" y="727" type="line" smooth="yes"/>
      <point x="842" y="727"/>
      <point x="974" y="692"/>
      <point x="974" y="410" type="curve" smooth="yes"/>
      <point x="974" y="188"/>
      <point x="893" y="60"/>
      <point x="585" y="60" type="curve" smooth="yes"/>
      <point x="228" y="60" type="line"/>
    </contour>
    <contour>
      <point x="375" y="745" type="line"/>
      <point x="375" y="1417" type="line"/>
      <point x="235" y="1373" type="line"/>
      <point x="609" y="1373" type="line" smooth="yes"/>
      <point x="893" y="1373"/>
      <point x="924" y="1182"/>
      <point x="924" y="1048" type="curve" smooth="yes"/>
      <point x="924" y="826"/>
      <point x="808" y="789"/>
      <point x="601" y="789" type="curve" smooth="yes"/>
      <point x="314" y="789" type="line"/>
    </contour>
  </outline>
</glyph>
<glyph name="C" format="2">
  <advance width="1520"/>
  <unicode hex="0043"/>
  <note>
C
</note>
  <anchor x="789" y="30" name="bottom"/>
  <anchor x="768.99" y="1430" name="top"/>
  <outline>
    <contour>
      <point x="845" y="-21" type="curve" smooth="yes"/>
      <point x="1120" y="-21"/>
      <point x="1322" y="112"/>
      <point x="1474" y="348" type="curve"/>
      <point x="1291" y="348" type="line"/>
      <point x="1144" y="127"/>
      <point x="995" y="41"/>
      <point x="847" y="41" type="curve" smooth="yes"/>
      <point x="542" y="41"/>
      <point x="287" y="331"/>
      <point x="287" y="715" type="curve" smooth="yes"/>
      <point x="287" y="1108"/>
      <point x="549" y="1389"/>
      <point x="843" y="1389" type="curve" smooth="yes"/>
      <point x="988" y="1389"/>
      <point x="1147" y="1304"/>
      <point x="1279" y="1082" type="curve"/>
      <point x="1453" y="1082" type="line"/>
      <point x="1333" y="1323"/>
      <point x="1097" y="1450"/>
      <point x="843" y="1450" type="curve" smooth="yes"/>
      <point x="435" y="1450"/>
      <point x="77" y="1147"/>
      <point x="77" y="713" type="curve" smooth="yes"/>
      <point x="77" y="260"/>
      <point x="449" y="-21"/>
    </contour>
  </outline>
</glyph>
<glyph name="D" format="2">
  <advance width="1457"/>
  <unicode hex="0044"/>
  <note>
D
</note>
  <anchor x="738" y="9" name="bottom"/>
  <anchor x="281" y="715" name="center"/>
  <anchor x="738" y="1430" name="top"/>
  <outline>
    <contour>
      <point x="172" y="0" type="line"/>
      <point x="572" y="0" type="line" smooth="yes"/>
      <point x="842" y="0"/>
      <point x="987" y="31"/>
      <point x="1132" y="140" type="curve" smooth="yes"/>
      <point x="1270" y="247"/>
      <point x="1370" y="432"/>
      <point x="1370" y="717" type="curve" smooth="yes"/>
      <point x="1370" y="981"/>
      <point x="1286" y="1171"/>
      <point x="1139" y="1284" type="curve" smooth="yes"/>
      <point x="987" y="1403"/>
      <point x="825" y="1433"/>
      <point x="510" y="1433" type="curve" smooth="yes"/>
      <point x="172" y="1433" type="line"/>
    </contour>
    <contour>
      <point x="388" y="-2" type="line"/>
      <point x="388" y="1435" type="line"/>
      <point x="242" y="1373" type="line"/>
      <point x="517" y="1373" type="line" smooth="yes"/>
      <point x="951" y="1373"/>
      <point x="1152" y="1179"/>
      <point x="1152" y="722" type="curve" smooth="yes"/>
      <point x="1152" y="261"/>
      <point x="946" y="60"/>
      <point x="513" y="60" type="curve" smooth="yes"/>
      <point x="242" y="60" type="line"/>
    </contour>
  </outline>
</glyph>
<glyph name="E" format="2">
  <advance width="1193"/>
  <unicode hex="0045"/>
  <note>
E
</note>
  <anchor x="571" y="30" name="bottom"/>
  <anchor x="1059" y="0" name="ogonek"/>
  <anchor x="675" y="1430" name="top"/>
  <anchor x="0" y="1430" name="topleft"/>
  <outline>
    <contour>
      <point x="172" y="0" type="line"/>
      <point x="1124" y="0" type="line"/>
      <point x="1124" y="60" type="line"/>
      <point x="304" y="60" type="line"/>
      <point x="389" y="4" type="line"/>
      <point x="389" y="764" type="line"/>
      <point x="245" y="700" type="line"/>
      <point x="1124" y="700" type="line"/>
      <point x="1124" y="760" type="line"/>
      <point x="304" y="760" type="line"/>
      <point x="389" y="704" type="line"/>
      <point x="389" y="1425" type="line"/>
      <point x="241" y="1373" type="line"/>
      <point x="1124" y="1373" type="line"/>
      <point x="1124" y="1433" type="line"/>
      <point x="172" y="1433" type="line"/>
    </contour>
  </outline>
</glyph>
<glyph name="F" format="2">
  <advance width="1154"/>
  <unicode hex="0046"/>
  <note>
F
</note>
  <anchor x="563" y="30" name="bottom"/>
  <anchor x="563" y="1430" name="top"/>
  <outline>
    <contour>
      <point x="172" y="0" type="line"/>
      <point x="389" y="0" type="line"/>
      <point x="389" y="702" type="line"/>
      <point x="223" y="642" type="line"/>
      <point x="1105" y="642" type="line"/>
      <point x="1105" y="701" type="line"/>
      <point x="247" y="701" type="line"/>
      <point x="389" y="644" type="line"/>
      <point x="389" y="1419" type="line"/>
      <point x="241" y="1373" type="line"/>
      <point x="1105" y="1373" type="line"/>
      <point x="1105" y="1433" type="line"/>
      <point x="172" y="1433" type="line"/>
    </contour>
  </outline>
</glyph>
<glyph name="G" format="2">
  <advance width="1630"/>
  <unicode hex="0047"/>
  <note>
G
</note>
  <anchor x="806" y="30" name="bottom"/>
  <anchor x="806" y="1430" name="top"/>
  <outline>
    <contour>
      <point x="834" y="-41" type="curve" smooth="yes"/>
      <point x="1235" y="-41"/>
      <point x="1541" y="256"/>
      <point x="1582" y="627" type="curve"/>
      <point x="1367" y="627" type="line"/>
      <point x="1333" y="279"/>
      <point x="1100" y="16"/>
      <point x="833" y="20" type="curve"/>
      <point x="542" y="16"/>
      <point x="293" y="326"/>
      <point x="293" y="714" type="curve" smooth="yes"/>
      <point x="293" y="1108"/>
      <point x="549" y="1412"/>
      <point x="833" y="1409" type="curve"/>
      <point x="1017" y="1411"/>
      <point x="1186" y="1287"/>
      <point x="1284" y="1086" type="curve"/>
      <point x="1487" y="1086" type="line"/>
      <point x="1371" y="1311"/>
      <point x="1112" y="1470"/>
      <point x="833" y="1470" type="curve" smooth="yes"/>
      <point x="406" y="1470"/>
      <point x="78" y="1118"/>
      <point x="78" y="715" type="curve" smooth="yes"/>
      <point x="78" y="304"/>
      <point x="398" y="-41"/>
    </contour>
    <contour>
      <point x="858" y="567" type="line"/>
      <point x="1472" y="567" type="line"/>
      <point x="1472" y="627" type="line"/>
      <point x="858" y="627" type="line"/>
    </contour>
  </outline>
</glyph>
<glyph name="H" format="2">
  <advance width="1596"/>
  <unicode hex="0048"/>
  <note>
H
</note>
  <anchor x="793" y="30" name="bottom"/>
  <anchor x="793" y="715" name="center"/>
  <anchor x="793" y="1430" name="top"/>
  <anchor x="87" y="1430" name="topleft"/>
  <outline>
    <contour>
      <point x="172" y="0" type="line"/>
      <point x="381" y="0" type="line"/>
      <point x="381" y="776" type="line"/>
      <point x="262" y="704" type="line"/>
      <point x="1340" y="704" type="line"/>
      <point x="1214" y="776" type="line"/>
      <point x="1214" y="0" type="line"/>
      <point x="1424" y="0" type="line"/>
      <point x="1424" y="1433" type="line"/>
      <point x="1214" y="1433" type="line"/>
      <point x="1214" y="693" type="line"/>
      <point x="1340" y="765" type="line"/>
      <point x="262" y="765" type="line"/>
      <point x="381" y="693" type="line"/>
      <point x="381" y="1433" type="line"/>
      <point x="172" y="1433" type="line"/>
    </contour>
  </outline>
</glyph>
<glyph name="I" format="2">
  <advance width="556"/>
  <unicode hex="0049"/>
  <note>
I
</note>
  <anchor x="278" y="30" name="bottom"/>
  <anchor x="478" y="10" name="ogonek"/>
  <anchor x="278" y="1430" name="top"/>
  <anchor x="32" y="1430" name="topleft"/>
  <outline>
    <contour>
      <point x="173" y="0" type="line"/>
      <point x="384" y="0" type="line"/>
      <point x="384" y="1433" type="line"/>
      <point x="173" y="1433" type="line"/>
    </contour>
  </outline>
</glyph>
<glyph name="J" format="2">
  <advance width="819"/>
  <unicode hex="004A"/>
  <note>
J
</note>
  <anchor x="429" y="30" name="bottom"/>
  <anchor x="549" y="1430" name="top"/>
  <outline>
    <contour>
      <point x="29" y="-43" type="line"/>
      <point x="122" y="-116"/>
      <point x="215" y="-156"/>
      <point x="310" y="-156" type="curve" smooth="yes"/>
      <point x="520" y="-156"/>
      <point x="654" y="30"/>
      <point x="654" y="377" type="curve" smooth="yes"/>
      <point x="654" y="1433" type="line"/>
      <point x="438" y="1433" type="line"/>
      <point x="438" y="239" type="line" smooth="yes"/>
      <point x="438" y="-62"/>
      <point x="334" y="-91"/>
      <point x="280" y="-91" type="curve" smooth="yes"/>
      <point x="199" y="-91"/>
      <point x="106" y="-31"/>
      <point x="29" y="47" type="curve"/>
    </contour>
  </outline>
</glyph>
<glyph name="K" format="2">
  <advance width="1475"/>
  <unicode hex="004B"/>
  <note>
K
</note>
  <anchor x="669" y="30" name="bottom"/>
  <anchor x="669" y="1430" name="top"/>
  <outline>
    <contour>
      <point x="172" y="0" type="line"/>
      <point x="389" y="0" type="line"/>
      <point x="389" y="1433" type="line"/>
      <point x="172" y="1433" type="line"/>
    </contour>
    <contour>
      <point x="354" y="339" type="line"/>
      <point x="1344" y="1433" type="line"/>
      <point x="1225" y="1433" type="line"/>
      <point x="283" y="389" type="line"/>
    </contour>
    <contour>
      <point x="1219" y="0" type="line"/>
      <point x="1442" y="0" type="line"/>
      <point x="771" y="831" type="line"/>
      <point x="636" y="725" type="line"/>
    </contour>
  </outline>
</glyph>
<glyph name="L" format="2">
  <advance width="1108"/>
  <unicode hex="004C"/>
  <note>
L
</note>
  <anchor x="573" y="30" name="bottom"/>
  <anchor x="273" y="715" name="center"/>
  <anchor x="750" y="730" name="dot"/>
  <anchor x="1030" y="10" name="ogonek"/>
  <anchor x="382" y="1430" name="top"/>
  <anchor x="8" y="1430" name="topleft"/>
  <anchor x="946" y="1430" name="topright"/>
  <outline>
    <contour>
      <point x="172" y="0" type="line"/>
      <point x="1080" y="0" type="line"/>
      <point x="1080" y="50" type="line"/>
      <point x="239" y="50" type="line"/>
      <point x="388" y="7" type="line"/>
      <point x="388" y="1430" type="line"/>
      <point x="172" y="1430" type="line"/>
    </contour>
  </outline>
</glyph>
<glyph name="M" format="2">
  <advance width="1852"/>
  <unicode hex="004D"/>
  <note>
M
</note>
  <anchor x="926" y="30" name="bottom"/>
  <anchor x="926" y="1430" name="top"/>
  <outline>
    <contour>
      <point x="171" y="0" type="line"/>
      <point x="274" y="0" type="line"/>
      <point x="274" y="1300" type="line"/>
      <point x="208" y="1276" type="line"/>
      <point x="901" y="-43" type="line"/>
      <point x="1532" y="1307" type="line"/>
      <point x="1462" y="1239" type="line"/>
      <point x="1462" y="0" type="line"/>
      <point x="1681" y="0" type="line"/>
      <point x="1681" y="1433" type="line"/>
      <point x="1474" y="1433" type="line"/>
      <point x="896" y="200" type="line"/>
      <point x="1000" y="237" type="line"/>
      <point x="373" y="1433" type="line"/>
      <point x="171" y="1433" type="line"/>
    </contour>
  </outline>
</glyph>
<glyph name="N" format="2">
  <advance width="1515"/>
  <unicode hex="004E"/>
  <note>
N
</note>
  <anchor x="758" y="30" name="bottom"/>
  <anchor x="758" y="1430" name="top"/>
  <outline>
    <contour>
      <point x="177" y="0" type="line"/>
      <point x="279" y="0" type="line"/>
      <point x="279" y="1224" type="line"/>
      <point x="198" y="1198" type="line"/>
      <point x="1259" y="-24" type="line"/>
      <point x="1343" y="-24" type="line"/>
      <point x="1343" y="1433" type="line"/>
      <point x="1240" y="1433" type="line"/>
      <point x="1240" y="232" type="line"/>
      <point x="1312" y="230" type="line"/>
      <point x="249" y="1463" type="line"/>
      <point x="172" y="1463" type="line"/>
    </contour>
  </outline>
</glyph>
<glyph name="O" format="2">
  <advance width="1663"/>
  <unicode hex="004F"/>
  <note>
O
</note>
  <anchor x="832" y="9" name="bottom"/>
  <anchor x="832" y="715" name="center"/>
  <anchor x="1051" y="0" name="ogonek"/>
  <anchor x="832" y="1430" name="top"/>
  <anchor x="60" y="1430" name="topleft"/>
  <anchor x="1434" y="1430" name="topright"/>
  <outline>
    <contour>
      <point x="832" y="-41" type="curve" smooth="yes"/>
      <point x="1265" y="-41"/>
      <point x="1585" y="306"/>
      <point x="1585" y="712" type="curve" smooth="yes"/>
      <point x="1585" y="1119"/>
      <point x="1263" y="1470"/>
      <point x="832" y="1470" type="curve" smooth="yes"/>
      <point x="403" y="1470"/>
      <point x="78" y="1120"/>
      <point x="78" y="712" type="curve" smooth="yes"/>
      <point x="78" y="306"/>
      <point x="400" y="-41"/>
    </contour>
    <contour>
      <point x="832" y="21" type="curve"/>
      <point x="542" y="17"/>
      <point x="293" y="327"/>
      <point x="293" y="713" type="curve" smooth="yes"/>
      <point x="293" y="1106"/>
      <point x="549" y="1411"/>
      <point x="832" y="1409" type="curve"/>
      <point x="1115" y="1411"/>
      <point x="1371" y="1106"/>
      <point x="1371" y="713" type="curve" smooth="yes"/>
      <point x="1371" y="326"/>
      <point x="1123" y="17"/>
    </contour>
  </outline>
</glyph>
<glyph name="P" format="2">
  <advance width="1194"/>
  <unicode hex="0050"/>
  <note>
P
</note>
  <anchor x="598" y="-50" name="bottom"/>
  <anchor x="598" y="1430" name="top"/>
  <outline>
    <contour>
      <point x="172" y="0" type="line"/>
      <point x="384" y="0" type="line"/>
      <point x="384" y="560" type="line"/>
      <point x="300" y="527" type="line"/>
      <point x="688" y="527" type="line" smooth="yes"/>
      <point x="792" y="527"/>
      <point x="892" y="570"/>
      <point x="984" y="647" type="curve" smooth="yes"/>
      <point x="1071" y="720"/>
      <point x="1137" y="851"/>
      <point x="1137" y="975" type="curve" smooth="yes"/>
      <point x="1137" y="1099"/>
      <point x="1077" y="1218"/>
      <point x="990" y="1296" type="curve" smooth="yes"/>
      <point x="889" y="1384"/>
      <point x="774" y="1433"/>
      <point x="649" y="1433" type="curve" smooth="yes"/>
      <point x="172" y="1433" type="line"/>
    </contour>
    <contour>
      <point x="384" y="539" type="line"/>
      <point x="384" y="1425" type="line"/>
      <point x="225" y="1380" type="line"/>
      <point x="670" y="1380" type="line" smooth="yes"/>
      <point x="796" y="1380"/>
      <point x="946" y="1193"/>
      <point x="946" y="965" type="curve" smooth="yes"/>
      <point x="946" y="780"/>
      <point x="797" y="585"/>
      <point x="670" y="585" type="curve" smooth="yes"/>
      <point x="338" y="585" type="line"/>
    </contour>
  </outline>
</glyph>
<glyph name="Q" format="2">
  <advance width="1663"/>
  <unicode hex="0051"/>
  <note>
Q
</note>
  <anchor x="829" y="46" name="bottom"/>
  <anchor x="829" y="1409" name="top"/>
  <anchor x="832" y="730.85285" name="center"/>
  <anchor x="1051" y="13.0" name="ogonek"/>
  <anchor x="60" y="1448.7057" name="topleft"/>
  <anchor x="1434" y="1448.7057" name="topright"/>
  <outline>
    <contour>
      <point x="1134" y="-388" type="curve" smooth="yes"/>
      <point x="1220" y="-388"/>
      <point x="1253" y="-373"/>
      <point x="1265" y="-317" type="curve"/>
      <point x="1233" y="-317"/>
      <point x="1201" y="-317"/>
      <point x="1169" y="-317" type="curve" smooth="yes"/>
      <point x="931" y="-317"/>
      <point x="929" y="-291"/>
      <point x="929" y="-154" type="curve" smooth="yes"/>
      <point x="929" y="15" type="line"/>
      <point x="731" y="15" type="line"/>
      <point x="731" y="-169" type="line" smooth="yes"/>
      <point x="731" y="-258"/>
      <point x="789" y="-317"/>
      <point x="865" y="-349" type="curve" smooth="yes"/>
      <point x="925" y="-375"/>
      <point x="992" y="-388"/>
    </contour>
    <component base="O" yScale="1.00399" yOffset="13"/>
  </outline>
</glyph>
<glyph name="R" format="2">
  <advance width="1250"/>
  <unicode hex="0052"/>
  <note>
R
</note>
  <anchor x="626" y="30" name="bottom"/>
  <anchor x="626" y="1430" name="top"/>
  <outline>
    <contour>
      <point x="172" y="0" type="line"/>
      <point x="384" y="0" type="line"/>
      <point x="384" y="648" type="line"/>
      <point x="286" y="605" type="line"/>
      <point x="593" y="605" type="line"/>
      <point x="613" y="604" type="line"/>
      <point x="886" y="590"/>
      <point x="1137" y="733"/>
      <point x="1137" y="993" type="curve" smooth="yes"/>
      <point x="1137" y="1243"/>
      <point x="903" y="1433"/>
      <point x="649" y="1433" type="curve" smooth="yes"/>
      <point x="172" y="1433" type="line"/>
    </contour>
    <contour>
      <point x="323" y="658" type="line"/>
      <point x="384" y="606" type="line"/>
      <point x="384" y="1437" type="line"/>
      <point x="219" y="1380" type="line"/>
      <point x="670" y="1380" type="line" smooth="yes"/>
      <point x="796" y="1380"/>
      <point x="946" y="1212"/>
      <point x="946" y="997" type="curve" smooth="yes"/>
      <point x="946" y="790"/>
      <point x="797" y="658"/>
      <point x="670" y="658" type="curve" smooth="yes"/>
    </contour>
    <contour>
      <point x="504" y="608" type="line"/>
      <point x="558" y="598"/>
      <point x="619" y="641"/>
      <point x="754" y="512" type="curve" smooth="yes"/>
      <point x="798" y="462"/>
      <point x="868" y="376"/>
      <point x="947" y="187" type="curve" smooth="yes"/>
      <point x="961" y="156"/>
      <point x="998" y="58"/>
      <point x="1016" y="0" type="curve"/>
      <point x="1176" y="0" type="line"/>
      <point x="1150" y="67"/>
      <point x="1110" y="175"/>
      <point x="1080" y="234" type="curve" smooth="yes"/>
      <point x="1041" y="325"/>
      <point x="975" y="431"/>
      <point x="916" y="493" type="curve" smooth="yes"/>
      <point x="844" y="566"/>
      <point x="767" y="629"/>
      <point x="641" y="617" type="curve"/>
    </contour>
  </outline>
</glyph>
<glyph name="S" format="2">
  <advance width="1217"/>
  <unicode hex="0053"/>
  <note>
S
</note>
  <anchor x="607" y="30" name="bottom"/>
  <anchor x="607" y="1430" name="top"/>
  <outline>
    <contour>
      <point x="596" y="-33" type="curve" smooth="yes"/>
      <point x="967" y="-33"/>
      <point x="1142" y="148"/>
      <point x="1142" y="395" type="curve" smooth="yes"/>
      <point x="1142" y="669"/>
      <point x="933" y="749"/>
      <point x="624" y="842" type="curve" smooth="yes"/>
      <point x="408" y="915"/>
      <point x="313" y="1027"/>
      <point x="313" y="1154" type="curve" smooth="yes"/>
      <point x="313" y="1324"/>
      <point x="409" y="1397"/>
      <point x="616" y="1397" type="curve" smooth="yes"/>
      <point x="811" y="1397"/>
      <point x="923" y="1273"/>
      <point x="937" y="1125" type="curve"/>
      <point x="1108" y="1125" type="line"/>
      <point x="1077" y="1324"/>
      <point x="905" y="1465"/>
      <point x="628" y="1465" type="curve" smooth="yes"/>
      <point x="277" y="1465"/>
      <point x="119" y="1304"/>
      <point x="119" y="1106" type="curve" smooth="yes"/>
      <point x="119" y="915"/>
      <point x="293" y="776"/>
      <point x="562" y="690" type="curve" smooth="yes"/>
      <point x="834" y="598"/>
      <point x="953" y="521"/>
      <point x="953" y="348" type="curve" smooth="yes"/>
      <point x="953" y="147"/>
      <point x="866" y="39"/>
      <point x="604" y="39" type="curve" smooth="yes"/>
      <point x="397" y="39"/>
      <point x="257" y="150"/>
      <point x="232" y="387" type="curve"/>
      <point x="63" y="387" type="line"/>
      <point x="84" y="112"/>
      <point x="264" y="-33"/>
    </contour>
  </outline>
</glyph>
<glyph name="T" format="2">
  <advance width="1158"/>
  <unicode hex="0054"/>
  <note>
T
</note>
  <anchor x="579" y="30" name="bottom"/>
  <anchor x="579" y="715" name="center"/>
  <anchor x="579" y="1430" name="top"/>
  <outline>
    <contour>
      <point x="471" y="0" type="line"/>
      <point x="687" y="0" type="line"/>
      <point x="687" y="1419" type="line"/>
      <point x="567" y="1330" type="line"/>
      <point x="1129" y="1330" type="line"/>
      <point x="1129" y="1433" type="line"/>
      <point x="29" y="1433" type="line"/>
      <point x="29" y="1330" type="line"/>
      <point x="591" y="1330" type="line"/>
      <point x="471" y="1419" type="line"/>
    </contour>
  </outline>
</glyph>
<glyph name="U" format="2">
  <advance width="1466"/>
  <unicode hex="0055"/>
  <note>
U
</note>
  <anchor x="772" y="30" name="bottom"/>
  <anchor x="893" y="0" name="ogonek"/>
  <anchor x="772" y="1430" name="top"/>
  <anchor x="1307" y="1430" name="topright"/>
  <outline>
    <contour>
      <point x="734" y="-32" type="curve" smooth="yes"/>
      <point x="1077" y="-32"/>
      <point x="1331" y="244"/>
      <point x="1331" y="552" type="curve" smooth="yes"/>
      <point x="1331" y="1433" type="line"/>
      <point x="1210" y="1433" type="line"/>
      <point x="1206" y="526" type="line" smooth="yes"/>
      <point x="1205" y="262"/>
      <point x="985" y="45"/>
      <point x="732" y="45" type="curve" smooth="yes"/>
      <point x="495" y="45"/>
      <point x="312" y="237"/>
      <point x="312" y="541" type="curve" smooth="yes"/>
      <point x="312" y="1433" type="line"/>
      <point x="137" y="1433" type="line"/>
      <point x="137" y="533" type="line" smooth="yes"/>
      <point x="137" y="189"/>
      <point x="424" y="-32"/>
    </contour>
  </outline>
</glyph>
<glyph name="V" format="2">
  <advance width="1323"/>
  <unicode hex="0056"/>
  <note>
V
</note>
  <anchor x="663" y="30" name="bottom"/>
  <anchor x="663" y="1430" name="top"/>
  <outline>
    <contour>
      <point x="669" y="-37" type="line"/>
      <point x="1283" y="1432" type="line"/>
      <point x="1200" y="1432" type="line"/>
      <point x="677" y="148" type="line"/>
      <point x="742" y="238" type="line"/>
      <point x="247" y="1433" type="line"/>
      <point x="40" y="1432" type="line"/>
    </contour>
  </outline>
</glyph>
<glyph name="W" format="2">
  <advance width="1927"/>
  <unicode hex="0057"/>
  <note>
W
</note>
  <anchor x="964" y="30" name="bottom"/>
  <anchor x="964" y="1430" name="top"/>
  <outline>
    <contour>
      <point x="1299" y="-32" type="line"/>
      <point x="1887" y="1432" type="line"/>
      <point x="1842" y="1432" type="line"/>
      <point x="1315" y="129" type="line"/>
      <point x="1359" y="266" type="line"/>
      <point x="861" y="1433" type="line"/>
      <point x="655" y="1432" type="line"/>
    </contour>
    <contour>
      <point x="681" y="-32" type="line"/>
      <point x="1012" y="796" type="line"/>
      <point x="1002" y="886" type="line"/>
      <point x="698" y="132" type="line"/>
      <point x="745" y="260" type="line"/>
      <point x="246" y="1433" type="line"/>
      <point x="40" y="1432" type="line"/>
    </contour>
    <contour>
      <point x="1030" y="771" type="line"/>
      <point x="1288" y="1432" type="line"/>
      <point x="1242" y="1432" type="line"/>
      <point x="1019" y="861" type="line"/>
    </contour>
  </outline>
</glyph>
<glyph name="X" format="2">
  <advance width="1322"/>
  <unicode hex="0058"/>
  <note>
X
</note>
  <anchor x="659" y="30" name="bottom"/>
  <anchor x="659" y="1430" name="top"/>
  <outline>
    <contour>
      <point x="1037" y="0" type="line"/>
      <point x="1274" y="0" type="line"/>
      <point x="301" y="1430" type="line"/>
      <point x="64" y="1430" type="line"/>
    </contour>
    <contour>
      <point x="52" y="0" type="line"/>
      <point x="154" y="0" type="line"/>
      <point x="693" y="731" type="line"/>
      <point x="641" y="810" type="line"/>
    </contour>
    <contour>
      <point x="670" y="678" type="line"/>
      <point x="1205" y="1433" type="line"/>
      <point x="1104" y="1433" type="line"/>
      <point x="617" y="757" type="line"/>
    </contour>
  </outline>
</glyph>
<glyph name="Y" format="2">
  <advance width="1145"/>
  <unicode hex="0059"/>
  <note>
Y
</note>
  <anchor x="587" y="10" name="bottom"/>
  <anchor x="572" y="1430" name="top"/>
  <anchor x="11" y="1430" name="topleft"/>
  <outline>
    <contour>
      <point x="482" y="0" type="line"/>
      <point x="699" y="0" type="line"/>
      <point x="699" y="682" type="line"/>
      <point x="1113" y="1433" type="line"/>
      <point x="1038" y="1433" type="line"/>
      <point x="571" y="573" type="line"/>
      <point x="675" y="736" type="line"/>
      <point x="278" y="1433" type="line"/>
      <point x="31" y="1433" type="line"/>
      <point x="482" y="653" type="line"/>
    </contour>
  </outline>
</glyph>
<glyph name="Z" format="2">
  <advance width="1182"/>
  <unicode hex="005A"/>
  <note>
Z
</note>
  <anchor x="593" y="30" name="bottom"/>
  <anchor x="593" y="715" name="center"/>
  <anchor x="593" y="1430" name="top"/>
  <outline>
    <contour>
      <point x="42" y="0" type="line"/>
      <point x="1134" y="0" type="line"/>
      <point x="1135" y="106" type="line"/>
      <point x="93" y="106" type="line"/>
      <point x="252" y="11" type="line"/>
      <point x="1114" y="1433" type="line"/>
      <point x="106" y="1433" type="line"/>
      <point x="106" y="1327" type="line"/>
      <point x="1022" y="1327" type="line"/>
      <point x="900" y="1418" type="line"/>
    </contour>
  </outline>
</glyph>
<glyph name="bracketleft" format="2">
  <advance width="578"/>
  <unicode hex="005B"/>
  <note>
bracketleft
</note>
  <outline>
    <contour>
      <point x="168" y="-400" type="line"/>
      <point x="539" y="-400" type="line"/>
      <point x="539" y="-291" type="line"/>
      <point x="275" y="-291" type="line"/>
      <point x="275" y="1356" type="line"/>
      <point x="539" y="1356" type="line"/>
      <point x="539" y="1464" type="line"/>
      <point x="168" y="1464" type="line"/>
    </contour>
  </outline>
</glyph>
<glyph name="bracketright" format="2">
  <advance width="578"/>
  <unicode hex="005D"/>
  <note>
bracketright
</note>
  <outline>
    <contour>
      <point x="39" y="-400" type="line"/>
      <point x="410" y="-400" type="line"/>
      <point x="410" y="1464" type="line"/>
      <point x="39" y="1464" type="line"/>
      <point x="39" y="1356" type="line"/>
      <point x="304" y="1356" type="line"/>
      <point x="304" y="-291" type="line"/>
      <point x="39" y="-291" type="line"/>
    </contour>
  </outline>
</glyph>
<glyph name="asciicircum" format="2">
  <advance width="1025"/>
  <unicode hex="005E"/>
  <note>
asciicircum
</note>
  <outline>
    <contour>
      <point x="93" y="825" type="line"/>
      <point x="222" y="825" type="line"/>
      <point x="552" y="1390" type="line"/>
      <point x="469" y="1395" type="line"/>
      <point x="803" y="825" type="line"/>
      <point x="932" y="825" type="line"/>
      <point x="566" y="1451" type="line"/>
      <point x="457" y="1451" type="line"/>
    </contour>
  </outline>
</glyph>
<glyph name="a" format="2">
  <advance width="1230"/>
  <unicode hex="0061"/>
  <note>
a
</note>
  <anchor x="542" y="17" name="bottom"/>
  <anchor x="1027" y="0" name="ogonek"/>
  <anchor x="542" y="921" name="top"/>
  <outline>
    <contour>
      <point x="525" y="-30" type="curve" smooth="yes"/>
      <point x="739" y="-30"/>
      <point x="884" y="82"/>
      <point x="946" y="279" type="curve"/>
      <point x="910" y="311" type="line"/>
      <point x="915" y="0" type="line"/>
      <point x="1103" y="0" type="line"/>
      <point x="1103" y="921" type="line"/>
      <point x="913" y="921" type="line"/>
      <point x="913" y="612" type="line"/>
      <point x="942" y="641" type="line"/>
      <point x="885" y="835"/>
      <point x="736" y="951"/>
      <point x="523" y="951" type="curve" smooth="yes"/>
      <point x="244" y="951"/>
      <point x="50" y="749"/>
      <point x="50" y="459" type="curve" smooth="yes"/>
      <point x="50" y="170"/>
      <point x="247" y="-30"/>
    </contour>
    <contour>
      <point x="548" y="36" type="curve" smooth="yes"/>
      <point x="360" y="36"/>
      <point x="241" y="213"/>
      <point x="241" y="466" type="curve" smooth="yes"/>
      <point x="241" y="728"/>
      <point x="370" y="884"/>
      <point x="546" y="884" type="curve" smooth="yes"/>
      <point x="733" y="884"/>
      <point x="857" y="688"/>
      <point x="857" y="456" type="curve" smooth="yes"/>
      <point x="857" y="216"/>
      <point x="721" y="36"/>
    </contour>
  </outline>
</glyph>
<glyph name="b" format="2">
  <advance width="1232"/>
  <unicode hex="0062"/>
  <note>
b
</note>
  <anchor x="621" y="39" name="bottom"/>
  <anchor x="621" y="1518" name="top"/>
  <outline>
    <contour>
      <point x="700" y="-26" type="curve" smooth="yes"/>
      <point x="983" y="-26"/>
      <point x="1182" y="173"/>
      <point x="1182" y="461" type="curve" smooth="yes"/>
      <point x="1182" y="748"/>
      <point x="987" y="950"/>
      <point x="702" y="950" type="curve" smooth="yes"/>
      <point x="507" y="950"/>
      <point x="369" y="860"/>
      <point x="301" y="700" type="curve"/>
      <point x="332" y="667" type="line"/>
      <point x="332" y="1518" type="line"/>
      <point x="139" y="1518" type="line"/>
      <point x="139" y="0" type="line"/>
      <point x="330" y="0" type="line"/>
      <point x="330" y="257" type="line"/>
      <point x="298" y="225" type="line"/>
      <point x="370" y="62"/>
      <point x="506" y="-26"/>
    </contour>
    <contour>
      <point x="677" y="39" type="curve" smooth="yes"/>
      <point x="487" y="39"/>
      <point x="360" y="238"/>
      <point x="360" y="469" type="curve" smooth="yes"/>
      <point x="360" y="708"/>
      <point x="498" y="884"/>
      <point x="679" y="884" type="curve" smooth="yes"/>
      <point x="869" y="884"/>
      <point x="993" y="711"/>
      <point x="993" y="458" type="curve" smooth="yes"/>
      <point x="993" y="197"/>
      <point x="859" y="39"/>
    </contour>
  </outline>
</glyph>
<glyph name="c" format="2">
  <advance width="956"/>
  <unicode hex="0063"/>
  <note>
c
</note>
  <anchor x="487" y="-24" name="bottom"/>
  <anchor x="547" y="931" name="top"/>
  <outline>
    <contour>
      <point x="544" y="-30" type="curve" smooth="yes"/>
      <point x="690" y="-30"/>
      <point x="818" y="20"/>
      <point x="908" y="113" type="curve"/>
      <point x="908" y="241" type="line"/>
      <point x="823" y="114"/>
      <point x="691" y="35"/>
      <point x="552" y="35" type="curve" smooth="yes"/>
      <point x="350" y="35"/>
      <point x="245" y="213"/>
      <point x="245" y="461" type="curve" smooth="yes"/>
      <point x="245" y="729"/>
      <point x="360" y="884"/>
      <point x="551" y="884" type="curve" smooth="yes"/>
      <point x="697" y="884"/>
      <point x="823" y="801"/>
      <point x="908" y="674" type="curve"/>
      <point x="908" y="803" type="line"/>
      <point x="819" y="898"/>
      <point x="691" y="950"/>
      <point x="545" y="950" type="curve" smooth="yes"/>
      <point x="232" y="950"/>
      <point x="50" y="722"/>
      <point x="50" y="453" type="curve" smooth="yes"/>
      <point x="50" y="188"/>
      <point x="232" y="-30"/>
    </contour>
  </outline>
</glyph>
<glyph name="d" format="2">
  <advance width="1231"/>
  <unicode hex="0064"/>
  <note>
d
</note>
  <anchor x="575" y="39" name="bottom"/>
  <anchor x="996" y="1278" name="center"/>
  <anchor x="616" y="1518" name="top"/>
  <anchor x="1162" y="1518" name="topright"/>
  <outline>
    <contour>
      <point x="532" y="-26" type="curve" smooth="yes"/>
      <point x="726" y="-26"/>
      <point x="862" y="65"/>
      <point x="934" y="228" type="curve"/>
      <point x="901" y="260" type="line"/>
      <point x="901" y="0" type="line"/>
      <point x="1092" y="0" type="line"/>
      <point x="1092" y="1518" type="line"/>
      <point x="900" y="1518" type="line"/>
      <point x="900" y="668" type="line"/>
      <point x="931" y="701" type="line"/>
      <point x="863" y="860"/>
      <point x="725" y="948"/>
      <point x="530" y="948" type="curve" smooth="yes"/>
      <point x="245" y="948"/>
      <point x="50" y="747"/>
      <point x="50" y="460" type="curve" smooth="yes"/>
      <point x="50" y="174"/>
      <point x="249" y="-26"/>
    </contour>
    <contour>
      <point x="555" y="39" type="curve" smooth="yes"/>
      <point x="373" y="39"/>
      <point x="239" y="199"/>
      <point x="239" y="457" type="curve" smooth="yes"/>
      <point x="239" y="708"/>
      <point x="363" y="883"/>
      <point x="553" y="883" type="curve" smooth="yes"/>
      <point x="733" y="883"/>
      <point x="871" y="709"/>
      <point x="871" y="470" type="curve" smooth="yes"/>
      <point x="871" y="241"/>
      <point x="744" y="39"/>
    </contour>
  </outline>
</glyph>
<glyph name="e" format="2">
  <advance width="1103"/>
  <unicode hex="0065"/>
  <note>
e
</note>
  <anchor x="551" y="-16" name="bottom"/>
  <anchor x="713" y="0" name="ogonek"/>
  <anchor x="551" y="921" name="top"/>
  <outline>
    <contour>
      <point x="552" y="-30" type="curve" smooth="yes"/>
      <point x="775" y="-30"/>
      <point x="978" y="80"/>
      <point x="1035" y="249" type="curve"/>
      <point x="869" y="249" type="line"/>
      <point x="811" y="129"/>
      <point x="696" y="35"/>
      <point x="555" y="35" type="curve" smooth="yes"/>
      <point x="362" y="35"/>
      <point x="244" y="226"/>
      <point x="244" y="457" type="curve" smooth="yes"/>
      <point x="244" y="720"/>
      <point x="381" y="883"/>
      <point x="552" y="883" type="curve" smooth="yes"/>
      <point x="702" y="883"/>
      <point x="835" y="757"/>
      <point x="862" y="488" type="curve"/>
      <point x="1063" y="488" type="line"/>
      <point x="1033" y="793"/>
      <point x="803" y="950"/>
      <point x="549" y="950" type="curve" smooth="yes"/>
      <point x="247" y="950"/>
      <point x="50" y="729"/>
      <point x="50" y="453" type="curve" smooth="yes"/>
      <point x="50" y="157"/>
      <point x="259" y="-30"/>
    </contour>
    <contour>
      <point x="232" y="487" type="line"/>
      <point x="982" y="488" type="line"/>
      <point x="983" y="537" type="line"/>
      <point x="199" y="537" type="line"/>
    </contour>
  </outline>
</glyph>
<glyph name="f" format="2">
  <advance width="614"/>
  <unicode hex="0066"/>
  <note>
f
</note>
  <anchor x="308" y="39" name="bottom"/>
  <anchor x="308" y="1518" name="top"/>
  <outline>
    <contour>
      <point x="172" y="0" type="line"/>
      <point x="363" y="0" type="line"/>
      <point x="363" y="1096" type="line" smooth="yes"/>
      <point x="363" y="1336"/>
      <point x="340" y="1476"/>
      <point x="451" y="1476" type="curve" smooth="yes"/>
      <point x="500" y="1468"/>
      <point x="561" y="1431"/>
      <point x="561" y="1337" type="curve" smooth="yes"/>
      <point x="561" y="1311"/>
      <point x="557" y="1278"/>
      <point x="548" y="1247" type="curve"/>
      <point x="658" y="1247" type="line"/>
      <point x="669" y="1299"/>
      <point x="671" y="1347"/>
      <point x="671" y="1371" type="curve" smooth="yes"/>
      <point x="671" y="1494"/>
      <point x="567" y="1548"/>
      <point x="430" y="1548" type="curve" smooth="yes"/>
      <point x="253" y="1548"/>
      <point x="172" y="1416"/>
      <point x="172" y="1146" type="curve" smooth="yes"/>
    </contour>
    <contour>
      <point x="27" y="833" type="line"/>
      <point x="535" y="833" type="line"/>
      <point x="535" y="896" type="line"/>
      <point x="27" y="896" type="line"/>
    </contour>
  </outline>
</glyph>
<glyph name="g" format="2">
  <advance width="1248"/>
  <unicode hex="0067"/>
  <note>
g
</note>
  <anchor x="615" y="-487" name="bottom"/>
  <anchor x="564" y="921" name="top"/>
  <outline>
    <contour>
      <point x="583" y="-587" type="curve" smooth="yes"/>
      <point x="1004" y="-587"/>
      <point x="1108" y="-262"/>
      <point x="1109" y="137" type="curve" smooth="yes"/>
      <point x="1112" y="921" type="line"/>
      <point x="922" y="921" type="line"/>
      <point x="922" y="666" type="line"/>
      <point x="941" y="685" type="line"/>
      <point x="875" y="848"/>
      <point x="727" y="950"/>
      <point x="527" y="950" type="curve" smooth="yes"/>
      <point x="246" y="950"/>
      <point x="50" y="749"/>
      <point x="50" y="459" type="curve" smooth="yes"/>
      <point x="50" y="170"/>
      <point x="250" y="-31"/>
      <point x="530" y="-31" type="curve" smooth="yes"/>
      <point x="726" y="-31"/>
      <point x="871" y="57"/>
      <point x="940" y="227" type="curve"/>
      <point x="919" y="246" type="line"/>
      <point x="923" y="121" type="line"/>
      <point x="923" y="-315"/>
      <point x="836" y="-524"/>
      <point x="564" y="-524" type="curve" smooth="yes"/>
      <point x="350" y="-524"/>
      <point x="297" y="-431"/>
      <point x="259" y="-307" type="curve"/>
      <point x="82" y="-307" type="line"/>
      <point x="177" y="-566"/>
      <point x="429" y="-587"/>
    </contour>
    <contour>
      <point x="547" y="35" type="curve" smooth="yes"/>
      <point x="360" y="35"/>
      <point x="242" y="214"/>
      <point x="242" y="466" type="curve" smooth="yes"/>
      <point x="242" y="728"/>
      <point x="370" y="883"/>
      <point x="545" y="883" type="curve" smooth="yes"/>
      <point x="731" y="883"/>
      <point x="855" y="688"/>
      <point x="855" y="456" type="curve" smooth="yes"/>
      <point x="855" y="216"/>
      <point x="720" y="35"/>
    </contour>
  </outline>
</glyph>
<glyph name="h" format="2">
  <advance width="1149"/>
  <unicode hex="0068"/>
  <note>
h
</note>
  <anchor x="582" y="0" name="bottom"/>
  <anchor x="245" y="1259" name="center"/>
  <anchor x="582" y="1518" name="top"/>
  <outline>
    <contour>
      <point x="139" y="0" type="line"/>
      <point x="337" y="0" type="line"/>
      <point x="337" y="619" type="line" smooth="yes"/>
      <point x="337" y="736"/>
      <point x="480" y="883"/>
      <point x="645" y="883" type="curve" smooth="yes"/>
      <point x="776" y="883"/>
      <point x="850" y="779"/>
      <point x="850" y="523" type="curve" smooth="yes"/>
      <point x="850" y="0" type="line"/>
      <point x="1048" y="0" type="line"/>
      <point x="1048" y="558" type="line" smooth="yes"/>
      <point x="1048" y="814"/>
      <point x="904" y="949"/>
      <point x="689" y="949" type="curve" smooth="yes"/>
      <point x="491" y="949"/>
      <point x="335" y="842"/>
      <point x="300" y="649" type="curve"/>
      <point x="335" y="546" type="line"/>
      <point x="337" y="1518" type="line"/>
      <point x="139" y="1518" type="line"/>
    </contour>
  </outline>
</glyph>
<glyph name="k" format="2">
  <advance width="1019"/>
  <unicode hex="006B"/>
  <note>
k
</note>
  <anchor x="551" y="0" name="bottom"/>
  <anchor x="529" y="1518" name="top"/>
  <outline>
    <contour>
      <point x="139" y="0" type="line"/>
      <point x="336" y="0" type="line"/>
      <point x="336" y="1518" type="line"/>
      <point x="139" y="1518" type="line"/>
    </contour>
    <contour>
      <point x="811" y="0" type="line"/>
      <point x="1021" y="0" type="line"/>
      <point x="523" y="562" type="line"/>
      <point x="411" y="437" type="line"/>
    </contour>
    <contour>
      <point x="280" y="341" type="line"/>
      <point x="885" y="921" type="line"/>
      <point x="770" y="921" type="line"/>
      <point x="330" y="508" type="line"/>
    </contour>
  </outline>
</glyph>
<glyph name="l" format="2">
  <advance width="470"/>
  <unicode hex="006C"/>
  <note>
l
</note>
  <anchor x="149" y="0" name="bottom"/>
  <anchor x="232" y="786" name="center"/>
  <anchor x="534" y="789" name="dot"/>
  <anchor x="243" y="1511" name="top"/>
  <anchor x="442" y="1478" name="topright"/>
  <outline>
    <contour>
      <point x="139" y="0" type="line"/>
      <point x="331" y="0" type="line"/>
      <point x="331" y="1518" type="line"/>
      <point x="139" y="1518" type="line"/>
    </contour>
  </outline>
</glyph>
<glyph name="m" format="2">
  <advance width="1757"/>
  <unicode hex="006D"/>
  <note>
m
</note>
  <anchor x="880" y="0" name="bottom"/>
  <anchor x="880" y="921" name="top"/>
  <outline>
    <contour>
      <point x="126" y="0" type="line"/>
      <point x="322" y="0" type="line"/>
      <point x="322" y="619" type="line" smooth="yes"/>
      <point x="322" y="734"/>
      <point x="454" y="883"/>
      <point x="599" y="883" type="curve" smooth="yes"/>
      <point x="725" y="883"/>
      <point x="793" y="771"/>
      <point x="793" y="501" type="curve" smooth="yes"/>
      <point x="793" y="0" type="line"/>
      <point x="989" y="0" type="line"/>
      <point x="988" y="619" type="line" smooth="yes"/>
      <point x="988" y="724"/>
      <point x="1115" y="884"/>
      <point x="1261" y="884" type="curve" smooth="yes"/>
      <point x="1387" y="884"/>
      <point x="1460" y="772"/>
      <point x="1460" y="501" type="curve" smooth="yes"/>
      <point x="1460" y="0" type="line"/>
      <point x="1656" y="0" type="line"/>
      <point x="1656" y="527" type="line" smooth="yes"/>
      <point x="1656" y="806"/>
      <point x="1515" y="950"/>
      <point x="1302" y="950" type="curve" smooth="yes"/>
      <point x="1131" y="950"/>
      <point x="982" y="842"/>
      <point x="951" y="650" type="curve"/>
      <point x="976" y="664" type="line"/>
      <point x="937" y="853"/>
      <point x="815" y="950"/>
      <point x="639" y="950" type="curve" smooth="yes"/>
      <point x="487" y="950"/>
      <point x="346" y="870"/>
      <point x="303" y="714" type="curve"/>
      <point x="321" y="702" type="line"/>
      <point x="322" y="921" type="line"/>
      <point x="126" y="921" type="line"/>
    </contour>
  </outline>
</glyph>
<glyph name="n" format="2">
  <advance width="1135"/>
  <unicode hex="006E"/>
  <note>
n
</note>
  <anchor x="549" y="0" name="bottom"/>
  <anchor x="549" y="921" name="top"/>
  <outline>
    <contour>
      <point x="127" y="0" type="line"/>
      <point x="324" y="0" type="line"/>
      <point x="324" y="619" type="line" smooth="yes"/>
      <point x="324" y="736"/>
      <point x="467" y="885"/>
      <point x="632" y="885" type="curve" smooth="yes"/>
      <point x="763" y="885"/>
      <point x="837" y="779"/>
      <point x="837" y="523" type="curve" smooth="yes"/>
      <point x="837" y="0" type="line"/>
      <point x="1034" y="0" type="line"/>
      <point x="1034" y="557" type="line" smooth="yes"/>
      <point x="1034" y="814"/>
      <point x="891" y="950"/>
      <point x="676" y="950" type="curve" smooth="yes"/>
      <point x="482" y="950"/>
      <point x="329" y="848"/>
      <point x="287" y="649" type="curve"/>
      <point x="322" y="547" type="line"/>
      <point x="324" y="921" type="line"/>
      <point x="127" y="921" type="line"/>
    </contour>
  </outline>
</glyph>
<glyph name="o" format="2">
  <advance width="1121"/>
  <unicode hex="006F"/>
  <note>
o
</note>
  <anchor x="561" y="17" name="bottom"/>
  <anchor x="561" y="460" name="center"/>
  <anchor x="718" y="0" name="ogonek"/>
  <anchor x="561" y="921" name="top"/>
  <anchor x="1074" y="921" name="topright"/>
  <outline>
    <contour>
      <point x="560" y="-30" type="curve" smooth="yes"/>
      <point x="863" y="-30"/>
      <point x="1071" y="167"/>
      <point x="1071" y="460" type="curve" smooth="yes"/>
      <point x="1071" y="750"/>
      <point x="864" y="950"/>
      <point x="560" y="950" type="curve" smooth="yes"/>
      <point x="256" y="950"/>
      <point x="50" y="750"/>
      <point x="50" y="460" type="curve" smooth="yes"/>
      <point x="50" y="169"/>
      <point x="256" y="-30"/>
    </contour>
    <contour>
      <point x="560" y="35" type="curve" smooth="yes"/>
      <point x="375" y="35"/>
      <point x="250" y="229"/>
      <point x="250" y="465" type="curve" smooth="yes"/>
      <point x="250" y="711"/>
      <point x="383" y="885"/>
      <point x="560" y="885" type="curve" smooth="yes"/>
      <point x="747" y="885"/>
      <point x="873" y="692"/>
      <point x="873" y="459" type="curve" smooth="yes"/>
      <point x="873" y="215"/>
      <point x="733" y="35"/>
    </contour>
  </outline>
</glyph>
<glyph name="p" format="2">
  <advance width="1240"/>
  <unicode hex="0070"/>
  <note>
p
</note>
  <anchor x="623" y="39" name="bottom"/>
  <anchor x="623" y="921" name="top"/>
  <outline>
    <contour>
      <point x="139" y="-600" type="line"/>
      <point x="332" y="-600" type="line"/>
      <point x="332" y="253" type="line"/>
      <point x="300" y="220" type="line"/>
      <point x="369" y="60"/>
      <point x="509" y="-30"/>
      <point x="706" y="-30" type="curve" smooth="yes"/>
      <point x="993" y="-30"/>
      <point x="1190" y="172"/>
      <point x="1190" y="459" type="curve" smooth="yes"/>
      <point x="1190" y="749"/>
      <point x="989" y="950"/>
      <point x="704" y="950" type="curve" smooth="yes"/>
      <point x="508" y="950"/>
      <point x="370" y="860"/>
      <point x="297" y="696" type="curve"/>
      <point x="330" y="665" type="line"/>
      <point x="330" y="921" type="line"/>
      <point x="139" y="921" type="line"/>
    </contour>
    <contour>
      <point x="683" y="36" type="curve" smooth="yes"/>
      <point x="500" y="36"/>
      <point x="360" y="212"/>
      <point x="360" y="452" type="curve" smooth="yes"/>
      <point x="360" y="684"/>
      <point x="489" y="884"/>
      <point x="681" y="884" type="curve" smooth="yes"/>
      <point x="866" y="884"/>
      <point x="1001" y="724"/>
      <point x="1001" y="463" type="curve" smooth="yes"/>
      <point x="1001" y="210"/>
      <point x="876" y="36"/>
    </contour>
  </outline>
</glyph>
<glyph name="q" format="2">
  <advance width="1228"/>
  <unicode hex="0071"/>
  <note>
q
</note>
  <anchor x="610" y="39" name="bottom"/>
  <anchor x="610" y="921" name="top"/>
  <outline>
    <contour>
      <point x="908" y="-600" type="line"/>
      <point x="1101" y="-600" type="line"/>
      <point x="1101" y="921" type="line"/>
      <point x="910" y="921" type="line"/>
      <point x="910" y="663" type="line"/>
      <point x="943" y="695" type="line"/>
      <point x="870" y="859"/>
      <point x="732" y="950"/>
      <point x="536" y="950" type="curve" smooth="yes"/>
      <point x="251" y="950"/>
      <point x="50" y="747"/>
      <point x="50" y="459" type="curve" smooth="yes"/>
      <point x="50" y="172"/>
      <point x="247" y="-30"/>
      <point x="534" y="-30" type="curve" smooth="yes"/>
      <point x="731" y="-30"/>
      <point x="871" y="60"/>
      <point x="940" y="221" type="curve"/>
      <point x="908" y="253" type="line"/>
    </contour>
    <contour>
      <point x="557" y="36" type="curve" smooth="yes"/>
      <point x="364" y="36"/>
      <point x="239" y="210"/>
      <point x="239" y="463" type="curve" smooth="yes"/>
      <point x="239" y="723"/>
      <point x="374" y="884"/>
      <point x="559" y="884" type="curve" smooth="yes"/>
      <point x="752" y="884"/>
      <point x="880" y="682"/>
      <point x="880" y="452" type="curve" smooth="yes"/>
      <point x="880" y="212"/>
      <point x="740" y="36"/>
    </contour>
  </outline>
</glyph>
<glyph name="r" format="2">
  <advance width="862"/>
  <unicode hex="0072"/>
  <note>
r
</note>
  <anchor x="207" y="0" name="bottom"/>
  <anchor x="564" y="921" name="top"/>
  <outline>
    <contour>
      <point x="126" y="0" type="line"/>
      <point x="324" y="0" type="line"/>
      <point x="324" y="553" type="line" smooth="yes"/>
      <point x="324" y="729"/>
      <point x="410" y="882"/>
      <point x="532" y="882" type="curve" smooth="yes"/>
      <point x="599" y="882"/>
      <point x="705" y="840"/>
      <point x="687" y="720" type="curve" smooth="yes"/>
      <point x="686" y="698"/>
      <point x="677" y="666"/>
      <point x="664" y="647" type="curve"/>
      <point x="804" y="614" type="line"/>
      <point x="840" y="668"/>
      <point x="849" y="734"/>
      <point x="849" y="763" type="curve" smooth="yes"/>
      <point x="849" y="907"/>
      <point x="686" y="950"/>
      <point x="579" y="950" type="curve" smooth="yes"/>
      <point x="407" y="950"/>
      <point x="322" y="844"/>
      <point x="277" y="550" type="curve"/>
      <point x="322" y="523" type="line"/>
      <point x="324" y="921" type="line"/>
      <point x="126" y="921" type="line"/>
    </contour>
  </outline>
</glyph>
<glyph name="s" format="2">
  <advance width="838"/>
  <unicode hex="0073"/>
  <note>
s
</note>
  <anchor x="409" y="-11" name="bottom"/>
  <anchor x="411" y="917" name="top"/>
  <outline>
    <contour>
      <point x="418" y="-27" type="curve" smooth="yes"/>
      <point x="656" y="-26"/>
      <point x="792" y="64"/>
      <point x="794" y="254" type="curve" smooth="yes"/>
      <point x="797" y="497"/>
      <point x="516" y="540"/>
      <point x="448" y="558" type="curve" smooth="yes"/>
      <point x="250" y="608"/>
      <point x="215" y="645"/>
      <point x="215" y="708" type="curve" smooth="yes"/>
      <point x="215" y="857"/>
      <point x="348" y="876"/>
      <point x="427" y="877" type="curve" smooth="yes"/>
      <point x="577" y="877"/>
      <point x="638" y="807"/>
      <point x="733" y="719" type="curve"/>
      <point x="733" y="842" type="line"/>
      <point x="659" y="905"/>
      <point x="583" y="950"/>
      <point x="429" y="950" type="curve" smooth="yes"/>
      <point x="264" y="949"/>
      <point x="74" y="913"/>
      <point x="75" y="689" type="curve" smooth="yes"/>
      <point x="76" y="579"/>
      <point x="145" y="496"/>
      <point x="366" y="429" type="curve" smooth="yes"/>
      <point x="463" y="398"/>
      <point x="635" y="409"/>
      <point x="632" y="236" type="curve" smooth="yes"/>
      <point x="630" y="122"/>
      <point x="509" y="52"/>
      <point x="410" y="52" type="curve" smooth="yes"/>
      <point x="259" y="51"/>
      <point x="159" y="110"/>
      <point x="48" y="231" type="curve"/>
      <point x="49" y="85" type="line"/>
      <point x="121" y="12"/>
      <point x="249" y="-28"/>
    </contour>
  </outline>
</glyph>
<glyph name="t" format="2">
  <advance width="484"/>
  <unicode hex="0074"/>
  <note>
t
</note>
  <anchor x="261" y="-10" name="bottom"/>
  <anchor x="242" y="535" name="center"/>
  <anchor x="251" y="921" name="top"/>
  <anchor x="458" y="1290" name="topright"/>
  <outline>
    <contour>
      <point x="290" y="-20" type="curve" smooth="yes"/>
      <point x="356" y="-20"/>
      <point x="447" y="1"/>
      <point x="461" y="12" type="curve"/>
      <point x="461" y="90" type="line"/>
      <point x="397" y="61"/>
      <point x="351" y="46"/>
      <point x="330" y="46" type="curve" smooth="yes"/>
      <point x="290" y="46"/>
      <point x="303" y="90"/>
      <point x="303" y="351" type="curve" smooth="yes"/>
      <point x="303" y="863" type="line"/>
      <point x="403" y="863" type="line"/>
      <point x="403" y="924" type="line"/>
      <point x="303" y="924" type="line"/>
      <point x="303" y="1217" type="line"/>
      <point x="236" y="1217" type="line"/>
      <point x="257" y="996"/>
      <point x="146" y="922"/>
      <point x="36" y="924" type="curve"/>
      <point x="36" y="863" type="line"/>
      <point x="125" y="863" type="line"/>
      <point x="125" y="250" type="line" smooth="yes"/>
      <point x="125" y="47"/>
      <point x="164" y="-20"/>
    </contour>
  </outline>
</glyph>
<glyph name="u" format="2">
  <advance width="1112"/>
  <unicode hex="0075"/>
  <note>
u
</note>
  <anchor x="506" y="9" name="bottom"/>
  <anchor x="907" y="0" name="ogonek"/>
  <anchor x="549" y="926" name="top"/>
  <anchor x="1126" y="926" name="topright"/>
  <outline>
    <contour>
      <point x="472" y="-17" type="curve" smooth="yes"/>
      <point x="675" y="-17"/>
      <point x="775" y="127"/>
      <point x="809" y="320" type="curve"/>
      <point x="790" y="425" type="line"/>
      <point x="789" y="0" type="line"/>
      <point x="985" y="0" type="line"/>
      <point x="985" y="921" type="line"/>
      <point x="789" y="921" type="line"/>
      <point x="789" y="449" type="line" smooth="yes"/>
      <point x="789" y="242"/>
      <point x="695" y="47"/>
      <point x="495" y="47" type="curve" smooth="yes"/>
      <point x="361" y="47"/>
      <point x="298" y="133"/>
      <point x="298" y="431" type="curve" smooth="yes"/>
      <point x="298" y="921" type="line"/>
      <point x="101" y="921" type="line"/>
      <point x="101" y="389" type="line" smooth="yes"/>
      <point x="101" y="103"/>
      <point x="234" y="-17"/>
    </contour>
  </outline>
</glyph>
<glyph name="v" format="2">
  <advance width="1026"/>
  <unicode hex="0076"/>
  <note>
v
</note>
  <anchor x="513" y="39" name="bottom"/>
  <anchor x="513" y="921" name="top"/>
  <outline>
    <contour>
      <point x="492" y="-15" type="line"/>
      <point x="544" y="-15" type="line"/>
      <point x="1010" y="921" type="line"/>
      <point x="934" y="921" type="line"/>
      <point x="557" y="153" type="line"/>
      <point x="590" y="175" type="line"/>
      <point x="213" y="921" type="line"/>
      <point x="16" y="921" type="line"/>
    </contour>
  </outline>
</glyph>
<glyph name="w" format="2">
  <advance width="1571"/>
  <unicode hex="0077"/>
  <note>
w
</note>
  <anchor x="787" y="0" name="bottom"/>
  <anchor x="787" y="926" name="top"/>
  <outline>
    <contour>
      <point x="1052" y="-19" type="line"/>
      <point x="1105" y="-19" type="line"/>
      <point x="1559" y="922" type="line"/>
      <point x="1481" y="922" type="line"/>
      <point x="1128" y="168" type="line"/>
      <point x="1161" y="178" type="line"/>
      <point x="792" y="921" type="line"/>
      <point x="596" y="922" type="line"/>
    </contour>
    <contour>
      <point x="468" y="-19" type="line"/>
      <point x="521" y="-19" type="line"/>
      <point x="833" y="666" type="line"/>
      <point x="794" y="742" type="line"/>
      <point x="540" y="168" type="line"/>
      <point x="559" y="178" type="line"/>
      <point x="208" y="921" type="line"/>
      <point x="12" y="922" type="line"/>
    </contour>
    <contour>
      <point x="861" y="692" type="line"/>
      <point x="975" y="922" type="line"/>
      <point x="895" y="922" type="line"/>
      <point x="797" y="722" type="line"/>
    </contour>
  </outline>
</glyph>
<glyph name="x" format="2">
  <advance width="916"/>
  <unicode hex="0078"/>
  <note>
x
</note>
  <anchor x="457" y="39" name="bottom"/>
  <anchor x="457" y="921" name="top"/>
  <outline>
    <contour>
      <point x="668" y="0" type="line"/>
      <point x="882" y="0" type="line"/>
      <point x="265" y="921" type="line"/>
      <point x="51" y="921" type="line"/>
    </contour>
    <contour>
      <point x="41" y="0" type="line"/>
      <point x="141" y="0" type="line"/>
      <point x="470" y="425" type="line"/>
      <point x="439" y="512" type="line"/>
    </contour>
    <contour>
      <point x="485" y="431" type="line"/>
      <point x="880" y="921" type="line"/>
      <point x="776" y="921" type="line"/>
      <point x="451" y="513" type="line"/>
    </contour>
  </outline>
</glyph>
<glyph name="y" format="2">
  <advance width="1002"/>
  <unicode hex="0079"/>
  <note>
y
</note>
  <anchor x="639" y="0" name="bottom"/>
  <anchor x="526" y="926" name="top"/>
  <outline>
    <contour>
      <point x="237" y="-560" type="curve" smooth="yes"/>
      <point x="345" y="-560"/>
      <point x="389" y="-456"/>
      <point x="433" y="-331" type="curve" smooth="yes"/>
      <point x="518" y="-96"/>
      <point x="537" y="-35"/>
      <point x="562" y="27" type="curve"/>
      <point x="991" y="922" type="line"/>
      <point x="916" y="922" type="line"/>
      <point x="528" y="116" type="line"/>
      <point x="609" y="131" type="line"/>
      <point x="206" y="921" type="line"/>
      <point x="10" y="922" type="line"/>
      <point x="520" y="-70" type="line"/>
      <point x="506" y="72" type="line"/>
      <point x="377" y="-323" type="line" smooth="yes"/>
      <point x="365" y="-365"/>
      <point x="320" y="-518"/>
      <point x="243" y="-518" type="curve" smooth="yes"/>
      <point x="183" y="-518"/>
      <point x="132" y="-489"/>
      <point x="139" y="-385" type="curve"/>
      <point x="69" y="-385" type="line"/>
      <point x="82" y="-523"/>
      <point x="148" y="-560"/>
    </contour>
  </outline>
</glyph>
<glyph name="z" format="2">
  <advance width="877"/>
  <unicode hex="007A"/>
  <note>
z
</note>
  <anchor x="438" y="0" name="bottom"/>
  <anchor x="438" y="463" name="center"/>
  <anchor x="438" y="926" name="top"/>
  <outline>
    <contour>
      <point x="20" y="0" type="line"/>
      <point x="837" y="0" type="line"/>
      <point x="837" y="62" type="line"/>
      <point x="227" y="62" type="line"/>
      <point x="209" y="22" type="line"/>
      <point x="851" y="921" type="line"/>
      <point x="55" y="921" type="line"/>
      <point x="55" y="860" type="line"/>
      <point x="658" y="860" type="line"/>
      <point x="662" y="899" type="line"/>
    </contour>
  </outline>
</glyph>
<glyph name="braceleft" format="2">
  <advance width="606"/>
  <unicode hex="007B"/>
  <note>
braceleft
</note>
  <outline>
    <contour>
      <point x="567" y="-397" type="curve"/>
      <point x="567" y="-287" type="line"/>
      <point x="405" y="-308"/>
      <point x="303" y="-172"/>
      <point x="303" y="23" type="curve" smooth="yes"/>
      <point x="303" y="337" type="line" smooth="yes"/>
      <point x="303" y="409"/>
      <point x="247" y="458"/>
      <point x="216" y="481" type="curve"/>
      <point x="247" y="506"/>
      <point x="303" y="554"/>
      <point x="303" y="626" type="curve" smooth="yes"/>
      <point x="303" y="1042" type="line" smooth="yes"/>
      <point x="303" y="1246"/>
      <point x="398" y="1373"/>
      <point x="567" y="1351" type="curve"/>
      <point x="567" y="1462" type="line"/>
      <point x="329" y="1474"/>
      <point x="196" y="1329"/>
      <point x="196" y="1110" type="curve" smooth="yes"/>
      <point x="196" y="626" type="line" smooth="yes"/>
      <point x="196" y="559"/>
      <point x="141" y="524"/>
      <point x="65" y="483" type="curve"/>
      <point x="143" y="436"/>
      <point x="196" y="406"/>
      <point x="196" y="337" type="curve" smooth="yes"/>
      <point x="196" y="-44" type="line" smooth="yes"/>
      <point x="196" y="-265"/>
      <point x="327" y="-409"/>
    </contour>
  </outline>
</glyph>
<glyph name="braceright" format="2">
  <advance width="607"/>
  <unicode hex="007D"/>
  <note>
braceright
</note>
  <outline>
    <contour>
      <point x="39" y="-397" type="line"/>
      <point x="280" y="-409"/>
      <point x="410" y="-265"/>
      <point x="410" y="-44" type="curve" smooth="yes"/>
      <point x="410" y="337" type="line" smooth="yes"/>
      <point x="410" y="406"/>
      <point x="463" y="435"/>
      <point x="542" y="482" type="curve"/>
      <point x="464" y="524"/>
      <point x="410" y="559"/>
      <point x="410" y="626" type="curve" smooth="yes"/>
      <point x="410" y="1110" type="line" smooth="yes"/>
      <point x="410" y="1329"/>
      <point x="278" y="1474"/>
      <point x="39" y="1462" type="curve"/>
      <point x="39" y="1351" type="line"/>
      <point x="210" y="1373"/>
      <point x="304" y="1246"/>
      <point x="304" y="1042" type="curve" smooth="yes"/>
      <point x="304" y="626" type="line" smooth="yes"/>
      <point x="304" y="553"/>
      <point x="360" y="506"/>
      <point x="391" y="481" type="curve"/>
      <point x="360" y="458"/>
      <point x="304" y="409"/>
      <point x="304" y="337" type="curve" smooth="yes"/>
      <point x="304" y="23" type="line" smooth="yes"/>
      <point x="304" y="-172"/>
      <point x="202" y="-308"/>
      <point x="39" y="-287" type="curve"/>
    </contour>
  </outline>
</glyph>
<glyph name="asciitilde" format="2">
  <advance width="1221"/>
  <unicode hex="007E"/>
  <note>
asciitilde
</note>
  <outline>
    <contour>
      <point x="792" y="589" type="curve" smooth="yes"/>
      <point x="928" y="589"/>
      <point x="1059" y="671"/>
      <point x="1108" y="718" type="curve"/>
      <point x="1035" y="826" type="line"/>
      <point x="966" y="761"/>
      <point x="877" y="713"/>
      <point x="789" y="713" type="curve" smooth="yes"/>
      <point x="726" y="713"/>
      <point x="687" y="741"/>
      <point x="639" y="772" type="curve" smooth="yes"/>
      <point x="576" y="809"/>
      <point x="511" y="846"/>
      <point x="419" y="846" type="curve" smooth="yes"/>
      <point x="314" y="846"/>
      <point x="195" y="790"/>
      <point x="113" y="700" type="curve"/>
      <point x="182" y="598" type="line"/>
      <point x="272" y="681"/>
      <point x="354" y="720"/>
      <point x="421" y="720" type="curve" smooth="yes"/>
      <point x="475" y="720"/>
      <point x="522" y="692"/>
      <point x="591" y="651" type="curve" smooth="yes"/>
      <point x="643" y="622"/>
      <point x="700" y="589"/>
    </contour>
  </outline>
</glyph>
<glyph name=".notdef" format="2">
  <advance width="1348"/>
  <unicode hex="007F"/>
  <note>
.notdef
</note>
  <outline>
    <contour>
      <point x="137" y="-347" type="line"/>
      <point x="1211" y="-347" type="line"/>
      <point x="1211" y="1414" type="line"/>
      <point x="137" y="1414" type="line"/>
    </contour>
    <contour>
      <point x="324" y="-167" type="line"/>
      <point x="324" y="1234" type="line"/>
      <point x="1025" y="1234" type="line"/>
      <point x="1025" y="-167" type="line"/>
    </contour>
  </outline>
</glyph>
<glyph name="Euro" format="2">
  <advance width="1553"/>
  <unicode hex="0080"/>
  <note>
Euro
</note>
  <outline>
    <contour>
      <point x="927" y="-25" type="curve" smooth="yes"/>
      <point x="1179" y="-25"/>
      <point x="1346" y="110"/>
      <point x="1447" y="348" type="curve"/>
      <point x="1313" y="348" type="line"/>
      <point x="1195" y="87"/>
      <point x="1038" y="53"/>
      <point x="935" y="53" type="curve" smooth="yes"/>
      <point x="647" y="53"/>
      <point x="477" y="352"/>
      <point x="477" y="710" type="curve" smooth="yes"/>
      <point x="477" y="1099"/>
      <point x="670" y="1367"/>
      <point x="923" y="1367" type="curve" smooth="yes"/>
      <point x="1028" y="1367"/>
      <point x="1211" y="1322"/>
      <point x="1307" y="1063" type="curve"/>
      <point x="1439" y="1063" type="line"/>
      <point x="1346" y="1324"/>
      <point x="1161" y="1444"/>
      <point x="928" y="1444" type="curve" smooth="yes"/>
      <point x="565" y="1444"/>
      <point x="298" y="1157"/>
      <point x="298" y="709" type="curve" smooth="yes"/>
      <point x="297" y="243"/>
      <point x="573" y="-25"/>
    </contour>
    <contour>
      <point x="91" y="514" type="line"/>
      <point x="959" y="514" type="line"/>
      <point x="979" y="590" type="line"/>
      <point x="113" y="590" type="line"/>
    </contour>
    <contour>
      <point x="140" y="807" type="line"/>
      <point x="1008" y="807" type="line"/>
      <point x="1026" y="882" type="line"/>
      <point x="160" y="882" type="line"/>
    </contour>
  </outline>
</glyph>
<glyph name="sterling" format="2">
  <advance width="1235"/>
  <unicode hex="00A3"/>
  <note>
sterling
</note>
  <outline>
    <contour>
      <point x="274" y="62" type="curve" smooth="yes"/>
      <point x="460" y="62"/>
      <point x="771" y="223"/>
      <point x="771" y="440" type="curve" smooth="yes"/>
      <point x="771" y="634"/>
      <point x="661" y="713"/>
      <point x="491" y="840" type="curve" smooth="yes"/>
      <point x="433" y="887"/>
      <point x="342" y="971"/>
      <point x="342" y="1132" type="curve" smooth="yes"/>
      <point x="342" y="1294"/>
      <point x="462" y="1407"/>
      <point x="597" y="1407" type="curve" smooth="yes"/>
      <point x="767" y="1407"/>
      <point x="912" y="1211"/>
      <point x="921" y="1030" type="curve"/>
      <point x="1077" y="1030" type="line"/>
      <point x="1050" y="1294"/>
      <point x="864" y="1469"/>
      <point x="607" y="1469" type="curve" smooth="yes"/>
      <point x="351" y="1469"/>
      <point x="152" y="1295"/>
      <point x="152" y="1085" type="curve" smooth="yes"/>
      <point x="152" y="882"/>
      <point x="238" y="807"/>
      <point x="388" y="698" type="curve" smooth="yes"/>
      <point x="506" y="612"/>
      <point x="577" y="510"/>
      <point x="577" y="413" type="curve" smooth="yes"/>
      <point x="577" y="291"/>
      <point x="384" y="110"/>
      <point x="147" y="115" type="curve"/>
      <point x="215" y="69"/>
      <point x="252" y="62"/>
    </contour>
    <contour>
      <point x="133" y="0" type="line"/>
      <point x="1127" y="0" type="line"/>
      <point x="1127" y="115" type="line"/>
      <point x="133" y="115" type="line"/>
    </contour>
    <contour>
      <point x="156" y="619" type="line"/>
      <point x="1000" y="619" type="line"/>
      <point x="1000" y="681" type="line"/>
      <point x="156" y="681" type="line"/>
    </contour>
  </outline>
</glyph>
<glyph name="currency" format="2">
  <advance width="1261"/>
  <unicode hex="00A4"/>
  <note>
currency
</note>
  <outline>
    <contour>
      <point x="202" y="196" type="line"/>
      <point x="402" y="406" type="line"/>
      <point x="467" y="356"/>
      <point x="549" y="326"/>
      <point x="637" y="326" type="curve" smooth="yes"/>
      <point x="722" y="326"/>
      <point x="799" y="353"/>
      <point x="862" y="397" type="curve"/>
      <point x="1055" y="196" type="line"/>
      <point x="1122" y="265" type="line"/>
      <point x="932" y="464" type="line"/>
      <point x="989" y="531"/>
      <point x="1023" y="617"/>
      <point x="1023" y="712" type="curve" smooth="yes"/>
      <point x="1023" y="808"/>
      <point x="987" y="896"/>
      <point x="929" y="963" type="curve"/>
      <point x="1123" y="1165" type="line"/>
      <point x="1053" y="1233" type="line"/>
      <point x="858" y="1029" type="line"/>
      <point x="796" y="1073"/>
      <point x="720" y="1098"/>
      <point x="637" y="1098" type="curve" smooth="yes"/>
      <point x="551" y="1098"/>
      <point x="470" y="1070"/>
      <point x="406" y="1021" type="curve"/>
      <point x="203" y="1233" type="line"/>
      <point x="134" y="1165" type="line"/>
      <point x="337" y="953" type="line"/>
      <point x="283" y="888"/>
      <point x="251" y="804"/>
      <point x="251" y="712" type="curve" smooth="yes"/>
      <point x="251" y="621"/>
      <point x="282" y="539"/>
      <point x="334" y="474" type="curve"/>
      <point x="134" y="265" type="line"/>
    </contour>
    <contour>
      <point x="637" y="422" type="curve" smooth="yes"/>
      <point x="477" y="422"/>
      <point x="347" y="552"/>
      <point x="347" y="712" type="curve" smooth="yes"/>
      <point x="347" y="872"/>
      <point x="477" y="1002"/>
      <point x="637" y="1002" type="curve" smooth="yes"/>
      <point x="797" y="1002"/>
      <point x="927" y="872"/>
      <point x="927" y="712" type="curve" smooth="yes"/>
      <point x="927" y="552"/>
      <point x="797" y="422"/>
    </contour>
  </outline>
</glyph>
<glyph name="brokenbar" format="2">
  <advance width="554"/>
  <unicode hex="00A6"/>
  <note>
brokenbar
</note>
  <outline>
    <contour>
      <point x="214" y="-300" type="line"/>
      <point x="340" y="-300" type="line"/>
      <point x="340" y="535" type="line"/>
      <point x="214" y="535" type="line"/>
    </contour>
    <contour>
      <point x="214" y="857" type="line"/>
      <point x="340" y="857" type="line"/>
      <point x="340" y="1664" type="line"/>
      <point x="214" y="1664" type="line"/>
    </contour>
  </outline>
</glyph>
<glyph name="section" format="2">
  <advance width="1049"/>
  <unicode hex="00A7"/>
  <note>
section
</note>
  <outline>
    <contour>
      <point x="489" y="-382" type="curve" smooth="yes"/>
      <point x="677" y="-382"/>
      <point x="877" y="-289"/>
      <point x="874" y="-91" type="curve" smooth="yes"/>
      <point x="871" y="110"/>
      <point x="658" y="165"/>
      <point x="486" y="218" type="curve"/>
      <point x="478" y="164" type="line"/>
      <point x="707" y="140"/>
      <point x="943" y="294"/>
      <point x="939" y="539" type="curve" smooth="yes"/>
      <point x="937" y="703"/>
      <point x="797" y="862"/>
      <point x="575" y="924" type="curve" smooth="yes"/>
      <point x="384" y="980"/>
      <point x="291" y="1052"/>
      <point x="289" y="1143" type="curve" smooth="yes"/>
      <point x="287" y="1286"/>
      <point x="383" y="1371"/>
      <point x="556" y="1371" type="curve" smooth="yes"/>
      <point x="729" y="1371"/>
      <point x="809" y="1291"/>
      <point x="798" y="1127" type="curve"/>
      <point x="888" y="1127" type="line"/>
      <point x="888" y="1172" type="line" smooth="yes"/>
      <point x="888" y="1324"/>
      <point x="768" y="1441"/>
      <point x="560" y="1441" type="curve" smooth="yes"/>
      <point x="371" y="1441"/>
      <point x="171" y="1348"/>
      <point x="174" y="1150" type="curve" smooth="yes"/>
      <point x="177" y="948"/>
      <point x="384" y="896"/>
      <point x="587" y="836" type="curve"/>
      <point x="558" y="891" type="line"/>
      <point x="340" y="916"/>
      <point x="105" y="761"/>
      <point x="109" y="520" type="curve" smooth="yes"/>
      <point x="111" y="357"/>
      <point x="244" y="200"/>
      <point x="477" y="134" type="curve" smooth="yes"/>
      <point x="638" y="87"/>
      <point x="757" y="15"/>
      <point x="759" y="-84" type="curve" smooth="yes"/>
      <point x="761" y="-226"/>
      <point x="660" y="-312"/>
      <point x="492" y="-312" type="curve" smooth="yes"/>
      <point x="316" y="-312"/>
      <point x="237" y="-230"/>
      <point x="250" y="-68" type="curve"/>
      <point x="160" y="-68" type="line"/>
      <point x="160" y="-114" type="line" smooth="yes"/>
      <point x="160" y="-267"/>
      <point x="279" y="-382"/>
    </contour>
    <contour>
      <point x="529" y="212" type="curve" smooth="yes"/>
      <point x="368" y="212"/>
      <point x="233" y="381"/>
      <point x="230" y="524" type="curve" smooth="yes"/>
      <point x="227" y="667"/>
      <point x="347" y="844"/>
      <point x="519" y="844" type="curve" smooth="yes"/>
      <point x="681" y="844"/>
      <point x="815" y="676"/>
      <point x="818" y="534" type="curve" smooth="yes"/>
      <point x="821" y="392"/>
      <point x="690" y="212"/>
    </contour>
  </outline>
</glyph>
<glyph name="copyright" format="2">
  <advance width="1699"/>
  <unicode hex="00A9"/>
  <note>
copyright
</note>
  <outline>
    <contour>
      <point x="848" y="-17" type="curve" smooth="yes"/>
      <point x="1036" y="-17"/>
      <point x="1223" y="52"/>
      <point x="1373" y="197" type="curve" smooth="yes"/>
      <point x="1509" y="329"/>
      <point x="1587" y="506"/>
      <point x="1587" y="706" type="curve" smooth="yes"/>
      <point x="1587" y="898"/>
      <point x="1507" y="1086"/>
      <point x="1374" y="1219" type="curve" smooth="yes"/>
      <point x="1233" y="1360"/>
      <point x="1047" y="1429"/>
      <point x="848" y="1429" type="curve" smooth="yes"/>
      <point x="643" y="1429"/>
      <point x="471" y="1363"/>
      <point x="332" y="1221" type="curve" smooth="yes"/>
      <point x="195" y="1080"/>
      <point x="111" y="904"/>
      <point x="111" y="706" type="curve" smooth="yes"/>
      <point x="111" y="515"/>
      <point x="190" y="333"/>
      <point x="330" y="196" type="curve" smooth="yes"/>
      <point x="478" y="51"/>
      <point x="656" y="-17"/>
    </contour>
    <contour>
      <point x="855" y="305" type="curve" smooth="yes"/>
      <point x="1056" y="305"/>
      <point x="1173" y="422"/>
      <point x="1194" y="560" type="curve"/>
      <point x="1087" y="560" type="line"/>
      <point x="1051" y="428"/>
      <point x="982" y="362"/>
      <point x="863" y="362" type="curve" smooth="yes"/>
      <point x="707" y="362"/>
      <point x="593" y="472"/>
      <point x="593" y="703" type="curve" smooth="yes"/>
      <point x="593" y="926"/>
      <point x="696" y="1053"/>
      <point x="863" y="1053" type="curve" smooth="yes"/>
      <point x="971" y="1053"/>
      <point x="1038" y="1001"/>
      <point x="1078" y="875" type="curve"/>
      <point x="1185" y="875" type="line"/>
      <point x="1164" y="999"/>
      <point x="1057" y="1108"/>
      <point x="864" y="1108" type="curve" smooth="yes"/>
      <point x="635" y="1108"/>
      <point x="464" y="952"/>
      <point x="464" y="703" type="curve" smooth="yes"/>
      <point x="464" y="462"/>
      <point x="623" y="305"/>
    </contour>
    <contour>
      <point x="848" y="66" type="curve" smooth="yes"/>
      <point x="677" y="66"/>
      <point x="511" y="133"/>
      <point x="384" y="259" type="curve" smooth="yes"/>
      <point x="258" y="384"/>
      <point x="191" y="541"/>
      <point x="191" y="706" type="curve" smooth="yes"/>
      <point x="191" y="875"/>
      <point x="259" y="1034"/>
      <point x="387" y="1162" type="curve" smooth="yes"/>
      <point x="509" y="1284"/>
      <point x="666" y="1349"/>
      <point x="848" y="1349" type="curve" smooth="yes"/>
      <point x="1030" y="1349"/>
      <point x="1190" y="1286"/>
      <point x="1317" y="1160" type="curve" smooth="yes"/>
      <point x="1440" y="1038"/>
      <point x="1510" y="876"/>
      <point x="1510" y="706" type="curve" smooth="yes"/>
      <point x="1510" y="533"/>
      <point x="1440" y="376"/>
      <point x="1321" y="261" type="curve" smooth="yes"/>
      <point x="1195" y="140"/>
      <point x="1027" y="66"/>
    </contour>
  </outline>
</glyph>
<glyph name="ordfeminine" format="2">
  <advance width="855"/>
  <unicode hex="00AA"/>
  <note>
ordfeminine
</note>
  <outline>
    <contour>
      <point x="390" y="799" type="curve" smooth="yes"/>
      <point x="404" y="799"/>
      <point x="560" y="791"/>
      <point x="585" y="969" type="curve"/>
      <point x="585" y="811" type="line"/>
      <point x="700" y="811" type="line"/>
      <point x="700" y="1440" type="line"/>
      <point x="584" y="1440" type="line"/>
      <point x="584" y="1280" type="line"/>
      <point x="560" y="1461"/>
      <point x="401" y="1455"/>
      <point x="386" y="1455" type="curve" smooth="yes"/>
      <point x="208" y="1455"/>
      <point x="105" y="1318"/>
      <point x="105" y="1125" type="curve" smooth="yes"/>
      <point x="105" y="916"/>
      <point x="212" y="799"/>
    </contour>
    <contour>
      <point x="396" y="869" type="curve" smooth="yes"/>
      <point x="264" y="869"/>
      <point x="235" y="982"/>
      <point x="235" y="1131" type="curve" smooth="yes"/>
      <point x="235" y="1260"/>
      <point x="251" y="1385"/>
      <point x="393" y="1385" type="curve" smooth="yes"/>
      <point x="500" y="1385"/>
      <point x="570" y="1314"/>
      <point x="570" y="1124" type="curve" smooth="yes"/>
      <point x="570" y="958"/>
      <point x="509" y="869"/>
    </contour>
    <contour>
      <point x="128" y="665" type="line"/>
      <point x="718" y="665" type="line"/>
      <point x="718" y="722" type="line"/>
      <point x="128" y="722" type="line"/>
    </contour>
  </outline>
</glyph>
<glyph name="logicalnot" format="2">
  <advance width="982"/>
  <unicode hex="00AC"/>
  <note>
logicalnot
</note>
  <outline>
    <contour>
      <point x="1064" y="334" type="line"/>
      <point x="1195" y="334" type="line"/>
      <point x="1195" y="870" type="line"/>
      <point x="93" y="870" type="line"/>
      <point x="93" y="765" type="line"/>
      <point x="1064" y="765" type="line"/>
    </contour>
  </outline>
</glyph>
<glyph name="registered" format="2">
  <advance width="1699"/>
  <unicode hex="00AE"/>
  <note>
registered
</note>
  <outline>
    <contour>
      <point x="848" y="-17" type="curve" smooth="yes"/>
      <point x="1036" y="-17"/>
      <point x="1223" y="52"/>
      <point x="1373" y="197" type="curve" smooth="yes"/>
      <point x="1509" y="329"/>
      <point x="1587" y="506"/>
      <point x="1587" y="706" type="curve" smooth="yes"/>
      <point x="1587" y="898"/>
      <point x="1507" y="1086"/>
      <point x="1374" y="1219" type="curve" smooth="yes"/>
      <point x="1233" y="1360"/>
      <point x="1047" y="1429"/>
      <point x="848" y="1429" type="curve" smooth="yes"/>
      <point x="643" y="1429"/>
      <point x="471" y="1363"/>
      <point x="332" y="1221" type="curve" smooth="yes"/>
      <point x="195" y="1080"/>
      <point x="111" y="904"/>
      <point x="111" y="706" type="curve" smooth="yes"/>
      <point x="111" y="515"/>
      <point x="190" y="333"/>
      <point x="330" y="196" type="curve" smooth="yes"/>
      <point x="478" y="51"/>
      <point x="656" y="-17"/>
    </contour>
    <contour>
      <point x="848" y="66" type="curve" smooth="yes"/>
      <point x="677" y="66"/>
      <point x="511" y="133"/>
      <point x="384" y="259" type="curve" smooth="yes"/>
      <point x="258" y="384"/>
      <point x="191" y="541"/>
      <point x="191" y="706" type="curve" smooth="yes"/>
      <point x="191" y="875"/>
      <point x="259" y="1034"/>
      <point x="387" y="1162" type="curve" smooth="yes"/>
      <point x="509" y="1284"/>
      <point x="665" y="1349"/>
      <point x="848" y="1349" type="curve" smooth="yes"/>
      <point x="1030" y="1349"/>
      <point x="1190" y="1286"/>
      <point x="1317" y="1160" type="curve" smooth="yes"/>
      <point x="1440" y="1038"/>
      <point x="1510" y="876"/>
      <point x="1510" y="706" type="curve" smooth="yes"/>
      <point x="1510" y="536"/>
      <point x="1444" y="380"/>
      <point x="1321" y="261" type="curve" smooth="yes"/>
      <point x="1196" y="141"/>
      <point x="1030" y="66"/>
    </contour>
    <contour>
      <point x="601" y="336" type="line"/>
      <point x="688" y="336" type="line"/>
      <point x="688" y="653" type="line"/>
      <point x="890" y="653" type="line"/>
      <point x="1073" y="336" type="line"/>
      <point x="1169" y="336" type="line"/>
      <point x="970" y="671" type="line"/>
      <point x="1099" y="704"/>
      <point x="1141" y="766"/>
      <point x="1141" y="873" type="curve" smooth="yes"/>
      <point x="1141" y="1032"/>
      <point x="1053" y="1102"/>
      <point x="827" y="1102" type="curve" smooth="yes"/>
      <point x="601" y="1102" type="line"/>
    </contour>
    <contour>
      <point x="688" y="715" type="line"/>
      <point x="688" y="1035" type="line"/>
      <point x="855" y="1035" type="line" smooth="yes"/>
      <point x="1005" y="1034"/>
      <point x="1057" y="985"/>
      <point x="1057" y="869" type="curve" smooth="yes"/>
      <point x="1057" y="762"/>
      <point x="1006" y="715"/>
      <point x="860" y="715" type="curve" smooth="yes"/>
    </contour>
  </outline>
</glyph>
<glyph name="degree" format="2">
  <advance width="695"/>
  <unicode hex="00B0"/>
  <note>
degree
</note>
  <outline>
    <contour>
      <point x="346" y="978" type="curve" smooth="yes"/>
      <point x="463" y="978"/>
      <point x="569" y="1078"/>
      <point x="569" y="1201" type="curve" smooth="yes"/>
      <point x="569" y="1323"/>
      <point x="463" y="1423"/>
      <point x="347" y="1423" type="curve" smooth="yes"/>
      <point x="229" y="1423"/>
      <point x="125" y="1324"/>
      <point x="125" y="1201" type="curve" smooth="yes"/>
      <point x="125" y="1077"/>
      <point x="229" y="978"/>
    </contour>
    <contour>
      <point x="347" y="1014" type="curve" smooth="yes"/>
      <point x="249" y="1014"/>
      <point x="171" y="1098"/>
      <point x="171" y="1201" type="curve" smooth="yes"/>
      <point x="171" y="1303"/>
      <point x="249" y="1386"/>
      <point x="347" y="1386" type="curve" smooth="yes"/>
      <point x="445" y="1386"/>
      <point x="523" y="1303"/>
      <point x="523" y="1201" type="curve" smooth="yes"/>
      <point x="523" y="1098"/>
      <point x="445" y="1014"/>
    </contour>
  </outline>
</glyph>
<glyph name="plusminus" format="2">
  <advance width="982"/>
  <unicode hex="00B1"/>
  <note>
plusminus
</note>
  <outline>
    <contour>
      <point x="426" y="385" type="line"/>
      <point x="518" y="385" type="line"/>
      <point x="518" y="599" type="line"/>
      <point x="820" y="599" type="line"/>
      <point x="820" y="736" type="line"/>
      <point x="518" y="736" type="line"/>
      <point x="518" y="949" type="line"/>
      <point x="426" y="949" type="line"/>
      <point x="426" y="736" type="line"/>
      <point x="125" y="736" type="line"/>
      <point x="125" y="599" type="line"/>
      <point x="426" y="599" type="line"/>
    </contour>
    <contour>
      <point x="124" y="155" type="line"/>
      <point x="818" y="155" type="line"/>
      <point x="818" y="291" type="line"/>
      <point x="124" y="291" type="line"/>
    </contour>
  </outline>
</glyph>
<glyph name="paragraph" format="2">
  <advance width="1159"/>
  <unicode hex="00B6"/>
  <note>
paragraph
</note>
  <outline>
    <contour>
      <point x="456" y="0" type="line"/>
      <point x="630" y="0" type="line"/>
      <point x="630" y="1373" type="line"/>
      <point x="760" y="1373" type="line"/>
      <point x="760" y="0" type="line"/>
      <point x="933" y="0" type="line"/>
      <point x="933" y="1373" type="line"/>
      <point x="1029" y="1373" type="line"/>
      <point x="1029" y="1447" type="line"/>
      <point x="512" y="1447" type="line" smooth="yes"/>
      <point x="262" y="1447"/>
      <point x="90" y="1288"/>
      <point x="90" y="1063" type="curve" smooth="yes"/>
      <point x="90" y="853"/>
      <point x="240" y="691"/>
      <point x="456" y="681" type="curve"/>
    </contour>
  </outline>
</glyph>
<glyph name="ordmasculine" format="2">
  <advance width="849"/>
  <unicode hex="00BA"/>
  <note>
ordmasculine
</note>
  <outline>
    <contour>
      <point x="423" y="806" type="curve" smooth="yes"/>
      <point x="599" y="806"/>
      <point x="762" y="927"/>
      <point x="762" y="1126" type="curve" smooth="yes"/>
      <point x="762" y="1323"/>
      <point x="601" y="1449"/>
      <point x="423" y="1449" type="curve" smooth="yes"/>
      <point x="246" y="1449"/>
      <point x="85" y="1325"/>
      <point x="85" y="1126" type="curve" smooth="yes"/>
      <point x="85" y="927"/>
      <point x="246" y="806"/>
    </contour>
    <contour>
      <point x="423" y="874" type="curve" smooth="yes"/>
      <point x="309" y="874"/>
      <point x="214" y="975"/>
      <point x="214" y="1126" type="curve" smooth="yes"/>
      <point x="214" y="1277"/>
      <point x="310" y="1381"/>
      <point x="423" y="1381" type="curve" smooth="yes"/>
      <point x="536" y="1381"/>
      <point x="632" y="1277"/>
      <point x="632" y="1126" type="curve" smooth="yes"/>
      <point x="632" y="975"/>
      <point x="536" y="874"/>
    </contour>
    <contour>
      <point x="132" y="665" type="line"/>
      <point x="716" y="665" type="line"/>
      <point x="716" y="722" type="line"/>
      <point x="132" y="722" type="line"/>
    </contour>
  </outline>
</glyph>
<glyph name="AE" format="2">
  <advance width="1783"/>
  <unicode hex="00C6"/>
  <note>
AE
</note>
  <anchor x="941" y="10" name="bottom"/>
  <anchor x="941" y="1450" name="top"/>
  <outline>
    <contour>
      <point x="32" y="0" type="line"/>
      <point x="136" y="0" type="line"/>
      <point x="1022" y="1443" type="line"/>
      <point x="919" y="1443" type="line"/>
    </contour>
    <contour>
      <point x="397" y="442" type="line"/>
      <point x="1072" y="442" type="line"/>
      <point x="1072" y="519" type="line"/>
      <point x="397" y="519" type="line"/>
    </contour>
    <contour>
      <point x="932" y="0" type="line"/>
      <point x="1708" y="0" type="line"/>
      <point x="1708" y="76" type="line"/>
      <point x="968" y="76" type="line"/>
      <point x="1122" y="10" type="line"/>
      <point x="1122" y="769" type="line"/>
      <point x="1016" y="691" type="line"/>
      <point x="1708" y="691" type="line"/>
      <point x="1708" y="767" type="line"/>
      <point x="1031" y="767" type="line"/>
      <point x="1122" y="696" type="line"/>
      <point x="1122" y="1440" type="line"/>
      <point x="1011" y="1367" type="line"/>
      <point x="1708" y="1367" type="line"/>
      <point x="1708" y="1443" type="line"/>
      <point x="932" y="1443" type="line"/>
    </contour>
  </outline>
</glyph>
<glyph name="Thorn" format="2">
  <advance width="1208"/>
  <unicode hex="00DE"/>
  <note>
Thorn
</note>
  <anchor x="618" y="30" name="bottom"/>
  <anchor x="618" y="1430" name="top"/>
  <outline>
    <contour>
      <point x="302" y="289" type="line"/>
      <point x="670" y="289" type="line" smooth="yes"/>
      <point x="794" y="289"/>
      <point x="925" y="339"/>
      <point x="1001" y="411" type="curve" smooth="yes"/>
      <point x="1108" y="508"/>
      <point x="1151" y="606"/>
      <point x="1151" y="730" type="curve" smooth="yes"/>
      <point x="1151" y="858"/>
      <point x="1104" y="950"/>
      <point x="1011" y="1040" type="curve" smooth="yes"/>
      <point x="931" y="1120"/>
      <point x="790" y="1177"/>
      <point x="654" y="1177" type="curve" smooth="yes"/>
      <point x="302" y="1177" type="line"/>
      <point x="302" y="1124" type="line"/>
      <point x="637" y="1124" type="line" smooth="yes"/>
      <point x="816" y="1124"/>
      <point x="967" y="966"/>
      <point x="967" y="729" type="curve" smooth="yes"/>
      <point x="967" y="486"/>
      <point x="807" y="342"/>
      <point x="637" y="342" type="curve" smooth="yes"/>
      <point x="302" y="342" type="line"/>
    </contour>
    <contour>
      <point x="172" y="0" type="line"/>
      <point x="384" y="0" type="line"/>
      <point x="384" y="1433" type="line"/>
      <point x="172" y="1433" type="line"/>
    </contour>
  </outline>
</glyph>
<glyph name="germandbls" format="2">
  <advance width="1135"/>
  <unicode hex="00DF"/>
  <note>
germandbls
</note>
  <anchor x="577" y="39" name="bottom"/>
  <anchor x="577" y="921" name="top"/>
  <outline>
    <contour>
      <point x="752" y="-19" type="curve" smooth="yes"/>
      <point x="968" y="-19"/>
      <point x="1109" y="81"/>
      <point x="1109" y="274" type="curve" smooth="yes"/>
      <point x="1109" y="450"/>
      <point x="1006" y="504"/>
      <point x="822" y="549" type="curve" smooth="yes"/>
      <point x="703" y="578"/>
      <point x="611" y="611"/>
      <point x="611" y="723" type="curve" smooth="yes"/>
      <point x="611" y="816"/>
      <point x="664" y="846"/>
      <point x="752" y="904" type="curve" smooth="yes"/>
      <point x="840" y="964"/>
      <point x="946" y="1029"/>
      <point x="946" y="1200" type="curve" smooth="yes"/>
      <point x="946" y="1409"/>
      <point x="808" y="1549"/>
      <point x="543" y="1549" type="curve" smooth="yes"/>
      <point x="346" y="1549"/>
      <point x="173" y="1406"/>
      <point x="173" y="1138" type="curve" smooth="yes"/>
      <point x="173" y="0" type="line"/>
      <point x="362" y="0" type="line"/>
      <point x="362" y="1087" type="line" smooth="yes"/>
      <point x="362" y="1328"/>
      <point x="417" y="1483"/>
      <point x="552" y="1483" type="curve" smooth="yes"/>
      <point x="654" y="1483"/>
      <point x="783" y="1409"/>
      <point x="783" y="1187" type="curve" smooth="yes"/>
      <point x="783" y="1040"/>
      <point x="726" y="960"/>
      <point x="651" y="915" type="curve" smooth="yes"/>
      <point x="568" y="864"/>
      <point x="465" y="839"/>
      <point x="465" y="676" type="curve" smooth="yes"/>
      <point x="465" y="544"/>
      <point x="526" y="468"/>
      <point x="708" y="403" type="curve" smooth="yes"/>
      <point x="812" y="360"/>
      <point x="942" y="378"/>
      <point x="942" y="250" type="curve" smooth="yes"/>
      <point x="942" y="118"/>
      <point x="875" y="53"/>
      <point x="755" y="53" type="curve" smooth="yes"/>
      <point x="660" y="53"/>
      <point x="580" y="103"/>
      <point x="486" y="186" type="curve"/>
      <point x="479" y="70" type="line"/>
      <point x="545" y="20"/>
      <point x="651" y="-19"/>
    </contour>
    <contour>
      <point x="24" y="858" type="line"/>
      <point x="281" y="858" type="line"/>
      <point x="281" y="922" type="line"/>
      <point x="24" y="922" type="line"/>
    </contour>
  </outline>
</glyph>
<glyph name="ae" format="2">
  <advance width="2023"/>
  <unicode hex="00E6"/>
  <note>
ae
</note>
  <anchor x="998" y="39" name="bottom"/>
  <anchor x="985" y="921" name="top"/>
  <outline>
    <contour>
      <point x="532" y="-27" type="curve" smooth="yes"/>
      <point x="748" y="-27"/>
      <point x="898" y="88"/>
      <point x="962" y="284" type="curve"/>
      <point x="925" y="314" type="line"/>
      <point x="930" y="0" type="line"/>
      <point x="1099" y="0" type="line"/>
      <point x="1099" y="921" type="line"/>
      <point x="928" y="921" type="line"/>
      <point x="928" y="621" type="line"/>
      <point x="959" y="654" type="line"/>
      <point x="899" y="847"/>
      <point x="741" y="951"/>
      <point x="530" y="951" type="curve" smooth="yes"/>
      <point x="243" y="951"/>
      <point x="50" y="751"/>
      <point x="50" y="463" type="curve" smooth="yes"/>
      <point x="50" y="169"/>
      <point x="251" y="-27"/>
    </contour>
    <contour>
      <point x="544" y="39" type="curve" smooth="yes"/>
      <point x="366" y="39"/>
      <point x="249" y="216"/>
      <point x="249" y="469" type="curve" smooth="yes"/>
      <point x="249" y="729"/>
      <point x="370" y="884"/>
      <point x="542" y="884" type="curve" smooth="yes"/>
      <point x="729" y="884"/>
      <point x="857" y="701"/>
      <point x="857" y="465" type="curve" smooth="yes"/>
      <point x="857" y="220"/>
      <point x="724" y="39"/>
    </contour>
    <contour>
      <point x="1495" y="-24" type="curve" smooth="yes"/>
      <point x="1712" y="-24"/>
      <point x="1901" y="92"/>
      <point x="1968" y="308" type="curve"/>
      <point x="1819" y="308" type="line"/>
      <point x="1791" y="173"/>
      <point x="1648" y="41"/>
      <point x="1498" y="41" type="curve" smooth="yes"/>
      <point x="1329" y="41"/>
      <point x="1203" y="220"/>
      <point x="1203" y="459" type="curve" smooth="yes"/>
      <point x="1203" y="710"/>
      <point x="1329" y="883"/>
      <point x="1495" y="883" type="curve" smooth="yes"/>
      <point x="1636" y="883"/>
      <point x="1766" y="759"/>
      <point x="1792" y="490" type="curve"/>
      <point x="1983" y="490" type="line"/>
      <point x="1954" y="795"/>
      <point x="1736" y="950"/>
      <point x="1493" y="950" type="curve" smooth="yes"/>
      <point x="1208" y="950"/>
      <point x="1018" y="728"/>
      <point x="1018" y="455" type="curve" smooth="yes"/>
      <point x="1018" y="162"/>
      <point x="1221" y="-24"/>
    </contour>
    <contour>
      <point x="1190" y="489" type="line"/>
      <point x="1905" y="490" type="line"/>
      <point x="1906" y="552" type="line"/>
      <point x="1160" y="552" type="line"/>
    </contour>
  </outline>
</glyph>
<glyph name="eth" format="2">
  <advance width="1109"/>
  <unicode hex="00F0"/>
  <note>
eth
</note>
  <outline>
    <contour>
      <point x="541" y="-22" type="curve" smooth="yes"/>
      <point x="737" y="-22"/>
      <point x="878" y="47"/>
      <point x="962" y="173" type="curve" smooth="yes"/>
      <point x="1009" y="251"/>
      <point x="1033" y="339"/>
      <point x="1034" y="457" type="curve" smooth="yes"/>
      <point x="1033" y="667"/>
      <point x="994" y="822"/>
      <point x="928" y="956" type="curve" smooth="yes"/>
      <point x="821" y="1176"/>
      <point x="527" y="1427"/>
      <point x="161" y="1489" type="curve"/>
      <point x="135" y="1445" type="line"/>
      <point x="523" y="1371"/>
      <point x="789" y="1095"/>
      <point x="827" y="679" type="curve"/>
      <point x="947" y="718" type="line"/>
      <point x="851" y="831"/>
      <point x="732" y="916"/>
      <point x="541" y="916" type="curve" smooth="yes"/>
      <point x="403" y="916"/>
      <point x="285" y="871"/>
      <point x="217" y="816" type="curve" smooth="yes"/>
      <point x="109" y="723"/>
      <point x="49" y="605"/>
      <point x="49" y="437" type="curve" smooth="yes"/>
      <point x="49" y="298"/>
      <point x="92" y="200"/>
      <point x="175" y="110" type="curve" smooth="yes"/>
      <point x="250" y="24"/>
      <point x="391" y="-22"/>
    </contour>
    <contour>
      <point x="541" y="39" type="curve" smooth="yes"/>
      <point x="370" y="39"/>
      <point x="245" y="206"/>
      <point x="245" y="444" type="curve" smooth="yes"/>
      <point x="245" y="681"/>
      <point x="372" y="856"/>
      <point x="541" y="856" type="curve" smooth="yes"/>
      <point x="707" y="856"/>
      <point x="839" y="678"/>
      <point x="839" y="438" type="curve" smooth="yes"/>
      <point x="839" y="202"/>
      <point x="712" y="39"/>
    </contour>
    <contour>
      <point x="234" y="1099" type="line"/>
      <point x="360" y="1099" type="line"/>
      <point x="805" y="1508" type="line"/>
      <point x="680" y="1508" type="line"/>
    </contour>
  </outline>
</glyph>
<glyph name="divide" format="2">
  <advance width="982"/>
  <unicode hex="00F7"/>
  <note>
divide
</note>
  <outline>
    <contour>
      <point x="90" y="577" type="line"/>
      <point x="1114" y="577" type="line"/>
      <point x="1114" y="692" type="line"/>
      <point x="90" y="692" type="line"/>
    </contour>
    <contour>
      <point x="602" y="209" type="curve" smooth="yes"/>
      <point x="661" y="209"/>
      <point x="706" y="265"/>
      <point x="706" y="332" type="curve" smooth="yes"/>
      <point x="706" y="400"/>
      <point x="659" y="455"/>
      <point x="602" y="455" type="curve" smooth="yes"/>
      <point x="545" y="455"/>
      <point x="499" y="400"/>
      <point x="499" y="332" type="curve" smooth="yes"/>
      <point x="499" y="265"/>
      <point x="544" y="209"/>
    </contour>
    <contour>
      <point x="602" y="828" type="curve" smooth="yes"/>
      <point x="660" y="828"/>
      <point x="706" y="884"/>
      <point x="706" y="951" type="curve" smooth="yes"/>
      <point x="706" y="1018"/>
      <point x="659" y="1073"/>
      <point x="602" y="1073" type="curve" smooth="yes"/>
      <point x="545" y="1073"/>
      <point x="499" y="1018"/>
      <point x="499" y="951" type="curve" smooth="yes"/>
      <point x="499" y="884"/>
      <point x="545" y="828"/>
    </contour>
  </outline>
</glyph>
<glyph name="thorn" format="2">
  <advance width="1254"/>
  <unicode hex="00FE"/>
  <note>
thorn
</note>
  <anchor x="611" y="39" name="bottom"/>
  <anchor x="611" y="921" name="top"/>
  <outline>
    <contour>
      <point x="153" y="-600" type="line"/>
      <point x="345" y="-600" type="line"/>
      <point x="345" y="253" type="line"/>
      <point x="314" y="220" type="line"/>
      <point x="383" y="60"/>
      <point x="523" y="-30"/>
      <point x="720" y="-30" type="curve" smooth="yes"/>
      <point x="1007" y="-30"/>
      <point x="1204" y="172"/>
      <point x="1204" y="459" type="curve" smooth="yes"/>
      <point x="1204" y="748"/>
      <point x="1003" y="950"/>
      <point x="718" y="950" type="curve" smooth="yes"/>
      <point x="521" y="950"/>
      <point x="383" y="858"/>
      <point x="311" y="695" type="curve"/>
      <point x="344" y="663" type="line"/>
      <point x="344" y="1518" type="line"/>
      <point x="153" y="1518" type="line"/>
    </contour>
    <contour>
      <point x="697" y="36" type="curve" smooth="yes"/>
      <point x="513" y="36"/>
      <point x="373" y="212"/>
      <point x="373" y="452" type="curve" smooth="yes"/>
      <point x="373" y="682"/>
      <point x="502" y="884"/>
      <point x="695" y="884" type="curve" smooth="yes"/>
      <point x="879" y="884"/>
      <point x="1015" y="722"/>
      <point x="1015" y="463" type="curve" smooth="yes"/>
      <point x="1015" y="210"/>
      <point x="889" y="36"/>
    </contour>
  </outline>
</glyph>
<glyph name="idotless" format="2">
  <advance width="449"/>
  <unicode hex="0131"/>
  <note>
dotlessi
</note>
  <anchor x="225" y="9" name="bottom"/>
  <anchor x="262" y="0" name="ogonek"/>
  <anchor x="225" y="926" name="top"/>
  <outline>
    <contour>
      <point x="127" y="0" type="line"/>
      <point x="322" y="0" type="line"/>
      <point x="322" y="921" type="line"/>
      <point x="127" y="921" type="line"/>
    </contour>
  </outline>
</glyph>
<glyph name="kgreenlandic" format="2">
  <advance width="1007"/>
  <unicode hex="0138"/>
  <anchor x="525" y="39" name="bottom"/>
  <anchor x="525" y="921" name="top"/>
  <outline>
    <contour>
      <point x="127" y="0" type="line"/>
      <point x="324" y="0" type="line"/>
      <point x="324" y="922" type="line"/>
      <point x="127" y="922" type="line"/>
    </contour>
    <contour>
      <point x="799" y="0" type="line"/>
      <point x="1009" y="0" type="line"/>
      <point x="511" y="562" type="line"/>
      <point x="399" y="437" type="line"/>
    </contour>
    <contour>
      <point x="268" y="341" type="line"/>
      <point x="873" y="922" type="line"/>
      <point x="758" y="922" type="line"/>
      <point x="318" y="508" type="line"/>
    </contour>
  </outline>
</glyph>
<glyph name="lslash" format="2">
  <advance width="639"/>
  <unicode hex="0142"/>
  <outline>
    <contour>
      <point x="225" y="0" type="line"/>
      <point x="416" y="0" type="line"/>
      <point x="416" y="1518" type="line"/>
      <point x="225" y="1518" type="line"/>
    </contour>
    <contour>
      <point x="24" y="592" type="line"/>
      <point x="642" y="856" type="line"/>
      <point x="616" y="912" type="line"/>
      <point x="-3" y="648" type="line"/>
    </contour>
  </outline>
</glyph>
<glyph name="Eng" format="2">
  <advance width="1523"/>
  <unicode hex="014A"/>
  <outline>
    <contour>
      <point x="1069" y="-430" type="curve" smooth="yes"/>
      <point x="1224" y="-430"/>
      <point x="1343" y="-314"/>
      <point x="1343" y="-143" type="curve" smooth="yes"/>
      <point x="1343" y="1433" type="line"/>
      <point x="1240" y="1433" type="line"/>
      <point x="1240" y="225" type="line"/>
      <point x="1286" y="259" type="line"/>
      <point x="249" y="1463" type="line"/>
      <point x="172" y="1463" type="line"/>
      <point x="177" y="0" type="line"/>
      <point x="279" y="0" type="line"/>
      <point x="279" y="1195" type="line"/>
      <point x="232" y="1161" type="line"/>
      <point x="1213" y="30" type="line" smooth="yes"/>
      <point x="1241" y="-2"/>
      <point x="1260" y="-50"/>
      <point x="1260" y="-154" type="curve" smooth="yes"/>
      <point x="1260" y="-331"/>
      <point x="1133" y="-375"/>
      <point x="1062" y="-375" type="curve" smooth="yes"/>
      <point x="996" y="-375"/>
      <point x="895" y="-328"/>
      <point x="841" y="-226" type="curve"/>
      <point x="841" y="-328" type="line"/>
      <point x="903" y="-412"/>
      <point x="987" y="-430"/>
    </contour>
  </outline>
</glyph>
<glyph name="eng" format="2">
  <advance width="1140"/>
  <unicode hex="014B"/>
  <outline>
    <contour>
      <point x="778" y="-524" type="curve" smooth="yes"/>
      <point x="1011" y="-524"/>
      <point x="1038" y="-350"/>
      <point x="1038" y="78" type="curve" smooth="yes"/>
      <point x="1038" y="557" type="line" smooth="yes"/>
      <point x="1038" y="815"/>
      <point x="892" y="950"/>
      <point x="677" y="950" type="curve" smooth="yes"/>
      <point x="490" y="950"/>
      <point x="338" y="853"/>
      <point x="298" y="678" type="curve"/>
      <point x="324" y="648" type="line"/>
      <point x="325" y="921" type="line"/>
      <point x="127" y="921" type="line"/>
      <point x="127" y="0" type="line"/>
      <point x="325" y="0" type="line"/>
      <point x="325" y="619" type="line" smooth="yes"/>
      <point x="325" y="736"/>
      <point x="468" y="883"/>
      <point x="633" y="883" type="curve" smooth="yes"/>
      <point x="764" y="883"/>
      <point x="838" y="780"/>
      <point x="838" y="523" type="curve" smooth="yes"/>
      <point x="838" y="88" type="line" smooth="yes"/>
      <point x="838" y="-261"/>
      <point x="876" y="-467"/>
      <point x="763" y="-467" type="curve" smooth="yes"/>
      <point x="713" y="-467"/>
      <point x="649" y="-436"/>
      <point x="649" y="-362" type="curve" smooth="yes"/>
      <point x="649" y="-337"/>
      <point x="655" y="-280"/>
      <point x="660" y="-255" type="curve"/>
      <point x="555" y="-255" type="line"/>
      <point x="539" y="-308"/>
      <point x="538" y="-345"/>
      <point x="538" y="-355" type="curve" smooth="yes"/>
      <point x="541" y="-456"/>
      <point x="634" y="-524"/>
    </contour>
  </outline>
</glyph>
<glyph name="OE" format="2">
  <advance width="2230"/>
  <unicode hex="0152"/>
  <note>
OE
</note>
  <anchor x="1102" y="30" name="bottom"/>
  <anchor x="1102" y="1430" name="top"/>
  <outline>
    <contour>
      <point x="792" y="-41" type="curve" smooth="yes"/>
      <point x="1185" y="-40"/>
      <point x="1496" y="307"/>
      <point x="1496" y="713" type="curve" smooth="yes"/>
      <point x="1496" y="1120"/>
      <point x="1183" y="1469"/>
      <point x="792" y="1469" type="curve" smooth="yes"/>
      <point x="401" y="1469"/>
      <point x="78" y="1119"/>
      <point x="78" y="710" type="curve" smooth="yes"/>
      <point x="78" y="305"/>
      <point x="398" y="-42"/>
    </contour>
    <contour>
      <point x="792" y="19" type="curve"/>
      <point x="532" y="16"/>
      <point x="294" y="325"/>
      <point x="294" y="713" type="curve" smooth="yes"/>
      <point x="294" y="1108"/>
      <point x="541" y="1412"/>
      <point x="792" y="1409" type="curve"/>
      <point x="1042" y="1412"/>
      <point x="1289" y="1106"/>
      <point x="1289" y="713" type="curve" smooth="yes"/>
      <point x="1289" y="326"/>
      <point x="1052" y="16"/>
    </contour>
    <contour>
      <point x="1291" y="0" type="line"/>
      <point x="2161" y="0" type="line"/>
      <point x="2161" y="60" type="line"/>
      <point x="1316" y="60" type="line"/>
      <point x="1508" y="5" type="line"/>
      <point x="1508" y="761" type="line"/>
      <point x="1352" y="698" type="line"/>
      <point x="2161" y="698" type="line"/>
      <point x="2161" y="758" type="line"/>
      <point x="1363" y="758" type="line"/>
      <point x="1508" y="703" type="line"/>
      <point x="1508" y="1419" type="line"/>
      <point x="1350" y="1373" type="line"/>
      <point x="2161" y="1373" type="line"/>
      <point x="2161" y="1433" type="line"/>
      <point x="1291" y="1433" type="line"/>
    </contour>
  </outline>
</glyph>
<glyph name="Schwa" format="2">
  <advance width="1622"/>
  <unicode hex="018F"/>
  <anchor x="808" y="30" name="bottom"/>
  <anchor x="807.99" y="1430" name="top"/>
  <outline>
    <contour>
      <point x="789" y="-41" type="curve" smooth="yes"/>
      <point x="1225" y="-41"/>
      <point x="1544" y="304"/>
      <point x="1544" y="715" type="curve" smooth="yes"/>
      <point x="1544" y="1117"/>
      <point x="1217" y="1470"/>
      <point x="790" y="1470" type="curve" smooth="yes"/>
      <point x="518" y="1470"/>
      <point x="265" y="1318"/>
      <point x="156" y="1102" type="curve"/>
      <point x="344" y="1102" type="line"/>
      <point x="448" y="1296"/>
      <point x="610" y="1411"/>
      <point x="789" y="1409" type="curve"/>
      <point x="1074" y="1412"/>
      <point x="1330" y="1108"/>
      <point x="1330" y="714" type="curve" smooth="yes"/>
      <point x="1330" y="326"/>
      <point x="1081" y="16"/>
      <point x="790" y="20" type="curve"/>
      <point x="514" y="15"/>
      <point x="261" y="309"/>
      <point x="255" y="709" type="curve"/>
      <point x="53" y="706" type="line"/>
      <point x="48" y="285"/>
      <point x="375" y="-41"/>
    </contour>
    <contour>
      <point x="189" y="647" type="line"/>
      <point x="1350" y="647" type="line"/>
      <point x="1350" y="707" type="line"/>
      <point x="189" y="707" type="line"/>
    </contour>
  </outline>
</glyph>
<glyph name="florin" format="2">
  <advance width="1239"/>
  <unicode hex="0192"/>
  <note>
florin
</note>
  <outline>
    <contour>
      <point x="494" y="371" type="line"/>
      <point x="667" y="371" type="line"/>
      <point x="793" y="867" type="line" smooth="yes"/>
      <point x="875" y="1368"/>
      <point x="876" y="1463"/>
      <point x="1034" y="1471" type="curve"/>
      <point x="1106" y="1470"/>
      <point x="1066" y="1401"/>
      <point x="1047" y="1355" type="curve"/>
      <point x="1163" y="1401" type="line"/>
      <point x="1156" y="1478"/>
      <point x="1111" y="1544"/>
      <point x="997" y="1544" type="curve" smooth="yes"/>
      <point x="794" y="1544"/>
      <point x="751" y="1405"/>
      <point x="690" y="1160" type="curve" smooth="yes"/>
    </contour>
    <contour>
      <point x="241" y="-498" type="curve" smooth="yes"/>
      <point x="444" y="-498"/>
      <point x="476" y="-364"/>
      <point x="544" y="-107" type="curve" smooth="yes"/>
      <point x="764" y="752" type="line"/>
      <point x="590" y="752" type="line"/>
      <point x="447" y="180" type="line" smooth="yes"/>
      <point x="363" y="-324"/>
      <point x="362" y="-416"/>
      <point x="204" y="-425" type="curve"/>
      <point x="131" y="-423"/>
      <point x="172" y="-354"/>
      <point x="192" y="-309" type="curve"/>
      <point x="76" y="-354" type="line"/>
      <point x="81" y="-431"/>
      <point x="127" y="-498"/>
    </contour>
    <contour>
      <point x="439" y="865" type="line"/>
      <point x="977" y="865" type="line"/>
      <point x="997" y="929" type="line"/>
      <point x="456" y="929" type="line"/>
    </contour>
  </outline>
</glyph>
<glyph name="jdotless" format="2">
  <advance width="470"/>
  <unicode hex="0237"/>
  <anchor x="235" y="-487" name="bottom"/>
  <anchor x="235" y="921" name="top"/>
  <outline>
    <contour>
      <point x="58" y="-588" type="curve" smooth="yes"/>
      <point x="297" y="-588"/>
      <point x="337" y="-456"/>
      <point x="337" y="6" type="curve" smooth="yes"/>
      <point x="337" y="921" type="line"/>
      <point x="139" y="921" type="line"/>
      <point x="139" y="56" type="line" smooth="yes"/>
      <point x="139" y="-357"/>
      <point x="172" y="-523"/>
      <point x="57" y="-523" type="curve" smooth="yes"/>
      <point x="24" y="-523"/>
      <point x="-67" y="-507"/>
      <point x="-67" y="-426" type="curve" smooth="yes"/>
      <point x="-67" y="-402"/>
      <point x="-62" y="-348"/>
      <point x="-54" y="-317" type="curve"/>
      <point x="-166" y="-317" type="line"/>
      <point x="-182" y="-370"/>
      <point x="-184" y="-412"/>
      <point x="-184" y="-419" type="curve" smooth="yes"/>
      <point x="-184" y="-532"/>
      <point x="-92" y="-588"/>
    </contour>
  </outline>
</glyph>
<glyph name="primemod" format="2">
  <advance width="180.69"/>
  <unicode hex="02B9"/>
  <outline>
    <contour>
      <point x="181" y="1339" type="curve"/>
      <point x="53" y="1339" type="line"/>
      <point x="16" y="1255"/>
      <point x="1" y="1091"/>
      <point x="0" y="1037" type="curve"/>
      <point x="75" y="1037" type="line"/>
      <point x="120" y="1143"/>
      <point x="159" y="1263"/>
    </contour>
  </outline>
</glyph>
<glyph name="gravecomb" format="2">
  <unicode hex="0300"/>
  <note>
grave
</note>
  <anchor x="157" y="930" name="_top"/>
  <anchor x="157" y="1361" name="top"/>
  <outline>
    <contour>
      <point x="218" y="1082" type="curve"/>
      <point x="286" y="1082" type="line"/>
      <point x="240" y="1156"/>
      <point x="170" y="1296"/>
      <point x="142" y="1365" type="curve"/>
      <point x="26" y="1365" type="line"/>
      <point x="57" y="1293"/>
      <point x="124" y="1197"/>
    </contour>
  </outline>
</glyph>
<glyph name="acutecomb" format="2">
  <unicode hex="0301"/>
  <note>
acute
</note>
  <anchor x="197" y="930" name="_top"/>
  <anchor x="197" y="1321" name="top"/>
  <outline>
    <contour>
      <point x="82" y="1091" type="curve"/>
      <point x="129" y="1091" type="line"/>
      <point x="222" y="1204"/>
      <point x="290" y="1301"/>
      <point x="321" y="1374" type="curve"/>
      <point x="205" y="1374" type="line"/>
      <point x="177" y="1305"/>
      <point x="116" y="1165"/>
    </contour>
  </outline>
</glyph>
<glyph name="circumflexcomb" format="2">
  <unicode hex="0302"/>
  <note>
circumflex
</note>
  <anchor x="295" y="930" name="_top"/>
  <anchor x="295" y="1425" name="top"/>
  <outline>
    <contour>
      <point x="21" y="1082" type="line"/>
      <point x="59" y="1082" type="line"/>
      <point x="294" y="1336" type="line"/>
      <point x="531" y="1082" type="line"/>
      <point x="569" y="1082" type="line"/>
      <point x="340" y="1404" type="line"/>
      <point x="247" y="1404" type="line"/>
    </contour>
  </outline>
</glyph>
<glyph name="tildecomb" format="2">
  <unicode hex="0303"/>
  <note>
tilde
</note>
  <anchor x="370" y="930" name="_top"/>
  <anchor x="370" y="1327" name="top"/>
  <outline>
    <contour>
      <point x="479" y="1140" type="curve" smooth="yes"/>
      <point x="561" y="1140"/>
      <point x="615" y="1209"/>
      <point x="661" y="1285" type="curve"/>
      <point x="651" y="1295" type="line"/>
      <point x="583" y="1215"/>
      <point x="551" y="1196"/>
      <point x="488" y="1196" type="curve" smooth="yes"/>
      <point x="408" y="1196"/>
      <point x="380" y="1322"/>
      <point x="259" y="1322" type="curve" smooth="yes"/>
      <point x="183" y="1322"/>
      <point x="125" y="1254"/>
      <point x="77" y="1176" type="curve"/>
      <point x="89" y="1165" type="line"/>
      <point x="159" y="1247"/>
      <point x="182" y="1266"/>
      <point x="248" y="1266" type="curve" smooth="yes"/>
      <point x="333" y="1266"/>
      <point x="363" y="1140"/>
    </contour>
  </outline>
</glyph>
<glyph name="macroncomb" format="2">
  <unicode hex="0304"/>
  <note>
macron
</note>
  <anchor x="367" y="930" name="_top"/>
  <anchor x="367" y="1203" name="top"/>
  <outline>
    <contour>
      <point x="70" y="1177" type="line"/>
      <point x="664" y="1177" type="line"/>
      <point x="664" y="1208" type="line"/>
      <point x="70" y="1208" type="line"/>
    </contour>
  </outline>
</glyph>
<glyph name="brevecomb" format="2">
  <unicode hex="0306"/>
  <note>
breve
</note>
  <anchor x="329" y="930" name="_top"/>
  <anchor x="329" y="1321" name="top"/>
  <outline>
    <contour>
      <point x="329" y="1103" type="curve" smooth="yes"/>
      <point x="472" y="1103"/>
      <point x="560" y="1180"/>
      <point x="589" y="1336" type="curve"/>
      <point x="564" y="1336" type="line"/>
      <point x="516" y="1216"/>
      <point x="435" y="1161"/>
      <point x="329" y="1161" type="curve" smooth="yes"/>
      <point x="224" y="1161"/>
      <point x="139" y="1214"/>
      <point x="90" y="1336" type="curve"/>
      <point x="68" y="1336" type="line"/>
      <point x="95" y="1183"/>
      <point x="183" y="1103"/>
    </contour>
  </outline>
</glyph>
<glyph name="dotaccentcomb" format="2">
  <unicode hex="0307"/>
  <anchor x="163" y="930" name="_top"/>
  <anchor x="163" y="1303" name="top"/>
  <outline>
    <contour>
      <point x="163" y="1141" type="curve" smooth="yes"/>
      <point x="210" y="1141"/>
      <point x="250" y="1178"/>
      <point x="250" y="1225" type="curve" smooth="yes"/>
      <point x="250" y="1272"/>
      <point x="209" y="1307"/>
      <point x="163" y="1307" type="curve" smooth="yes"/>
      <point x="118" y="1307"/>
      <point x="77" y="1272"/>
      <point x="77" y="1225" type="curve" smooth="yes"/>
      <point x="77" y="1178"/>
      <point x="117" y="1141"/>
    </contour>
  </outline>
</glyph>
<glyph name="dieresiscomb" format="2">
  <unicode hex="0308"/>
  <note>
dieresis
</note>
  <anchor x="293" y="930" name="_top"/>
  <anchor x="293" y="1279" name="top"/>
  <outline>
    <contour>
      <point x="448" y="1126" type="curve" smooth="yes"/>
      <point x="493" y="1126"/>
      <point x="530" y="1160"/>
      <point x="530" y="1205" type="curve" smooth="yes"/>
      <point x="530" y="1251"/>
      <point x="493" y="1284"/>
      <point x="448" y="1284" type="curve" smooth="yes"/>
      <point x="404" y="1284"/>
      <point x="366" y="1251"/>
      <point x="366" y="1205" type="curve" smooth="yes"/>
      <point x="366" y="1160"/>
      <point x="403" y="1126"/>
    </contour>
    <contour>
      <point x="138" y="1126" type="curve" smooth="yes"/>
      <point x="183" y="1126"/>
      <point x="220" y="1160"/>
      <point x="220" y="1205" type="curve" smooth="yes"/>
      <point x="220" y="1251"/>
      <point x="182" y="1284"/>
      <point x="138" y="1284" type="curve" smooth="yes"/>
      <point x="93" y="1284"/>
      <point x="56" y="1251"/>
      <point x="56" y="1205" type="curve" smooth="yes"/>
      <point x="56" y="1160"/>
      <point x="93" y="1126"/>
    </contour>
  </outline>
</glyph>
<glyph name="hookabovecomb" format="2">
  <unicode hex="0309"/>
  <anchor x="110" y="930" name="_top"/>
  <anchor x="110" y="1378" name="top"/>
  <outline>
    <contour>
      <point x="48" y="1105" type="line"/>
      <point x="166" y="1120"/>
      <point x="266" y="1161"/>
      <point x="266" y="1260" type="curve" smooth="yes"/>
      <point x="266" y="1333"/>
      <point x="186" y="1383"/>
      <point x="93" y="1383" type="curve" smooth="yes"/>
      <point x="27" y="1383"/>
      <point x="-18" y="1352"/>
      <point x="-46" y="1343" type="curve"/>
      <point x="-45" y="1321" type="line"/>
      <point x="-9" y="1346"/>
      <point x="43" y="1367"/>
      <point x="88" y="1367" type="curve" smooth="yes"/>
      <point x="141" y="1367"/>
      <point x="189" y="1327"/>
      <point x="189" y="1261" type="curve" smooth="yes"/>
      <point x="189" y="1144"/>
      <point x="117" y="1126"/>
      <point x="48" y="1110" type="curve"/>
    </contour>
    <contour>
      <point x="48" y="1009" type="line"/>
      <point x="102" y="1009" type="line"/>
      <point x="102" y="1119" type="line"/>
      <point x="48" y="1108" type="line"/>
    </contour>
  </outline>
</glyph>
<glyph name="ringcomb" format="2">
  <unicode hex="030A"/>
  <note>
ring
</note>
  <anchor x="252" y="930" name="_top"/>
  <anchor x="252" y="1406" name="top"/>
  <outline>
    <contour>
      <point x="251" y="1082" type="curve" smooth="yes"/>
      <point x="339" y="1082"/>
      <point x="413" y="1159"/>
      <point x="413" y="1242" type="curve" smooth="yes"/>
      <point x="413" y="1324"/>
      <point x="339" y="1402"/>
      <point x="251" y="1402" type="curve" smooth="yes"/>
      <point x="162" y="1402"/>
      <point x="89" y="1325"/>
      <point x="89" y="1242" type="curve" smooth="yes"/>
      <point x="89" y="1158"/>
      <point x="162" y="1082"/>
    </contour>
    <contour>
      <point x="251" y="1111" type="curve" smooth="yes"/>
      <point x="188" y="1111"/>
      <point x="135" y="1173"/>
      <point x="135" y="1242" type="curve" smooth="yes"/>
      <point x="135" y="1311"/>
      <point x="188" y="1373"/>
      <point x="251" y="1373" type="curve" smooth="yes"/>
      <point x="314" y="1373"/>
      <point x="367" y="1311"/>
      <point x="367" y="1242" type="curve" smooth="yes"/>
      <point x="367" y="1173"/>
      <point x="314" y="1111"/>
    </contour>
  </outline>
</glyph>
<glyph name="horncomb" format="2">
  <unicode hex="031B"/>
  <anchor x="194" y="1246" name="_topright"/>
  <anchor x="248" y="1266" name="topright"/>
  <outline>
    <contour>
      <point x="228" y="1296" type="curve"/>
      <point x="167" y="1296" type="line"/>
      <point x="166" y="1240"/>
      <point x="141" y="1145"/>
      <point x="48" y="1137" type="curve"/>
      <point x="48" y="1112" type="line"/>
      <point x="126" y="1110"/>
      <point x="228" y="1190"/>
    </contour>
  </outline>
</glyph>
<glyph name="cedillacomb" format="2">
  <unicode hex="0327"/>
  <anchor x="219" y="0" name="_bottom"/>
  <anchor x="218.5" y="-361" name="bottom"/>
  <outline>
    <contour>
      <point x="204" y="-364" type="curve" smooth="yes"/>
      <point x="329" y="-364"/>
      <point x="397" y="-316"/>
      <point x="397" y="-242" type="curve" smooth="yes"/>
      <point x="397" y="-159"/>
      <point x="326" y="-105"/>
      <point x="237" y="-128" type="curve" smooth="yes"/>
      <point x="226" y="-123"/>
      <point x="175" y="-149"/>
      <point x="138" y="-168" type="curve"/>
      <point x="80" y="-201" type="line"/>
      <point x="141" y="-184"/>
      <point x="170" y="-178"/>
      <point x="210" y="-178" type="curve" smooth="yes"/>
      <point x="262" y="-178"/>
      <point x="288" y="-202"/>
      <point x="288" y="-243" type="curve" smooth="yes"/>
      <point x="288" y="-295"/>
      <point x="261" y="-326"/>
      <point x="192" y="-326" type="curve" smooth="yes"/>
      <point x="149" y="-326"/>
      <point x="113" y="-319"/>
      <point x="40" y="-294" type="curve"/>
      <point x="40" y="-323" type="line"/>
      <point x="92" y="-348"/>
      <point x="150" y="-364"/>
    </contour>
    <contour>
      <point x="79" y="-201" type="line"/>
      <point x="190" y="-158" type="line"/>
      <point x="276" y="-1" type="line"/>
      <point x="197" y="-1" type="line"/>
    </contour>
  </outline>
</glyph>
<glyph name="ogonekcomb" format="2">
  <unicode hex="0328"/>
  <anchor x="318" y="0" name="_ogonek"/>
  <outline>
    <contour>
      <point x="224" y="-334" type="curve" smooth="yes"/>
      <point x="274" y="-334"/>
      <point x="345" y="-320"/>
      <point x="437" y="-273" type="curve"/>
      <point x="437" y="-246" type="line"/>
      <point x="313" y="-298"/>
      <point x="277" y="-298"/>
      <point x="259" y="-298" type="curve" smooth="yes"/>
      <point x="217" y="-298"/>
      <point x="164" y="-275"/>
      <point x="164" y="-209" type="curve" smooth="yes"/>
      <point x="164" y="-159"/>
      <point x="207" y="-75"/>
      <point x="352" y="0" type="curve"/>
      <point x="293" y="0" type="line" smooth="yes"/>
      <point x="219" y="0"/>
      <point x="46" y="-95"/>
      <point x="46" y="-196" type="curve" smooth="yes"/>
      <point x="46" y="-251"/>
      <point x="91" y="-334"/>
    </contour>
  </outline>
</glyph>
<glyph name="strokeshortcomb" format="2">
  <unicode hex="0335"/>
  <anchor x="442" y="773" name="_center"/>
  <outline>
    <contour>
      <point x="49" y="758" type="line"/>
      <point x="835" y="758" type="line"/>
      <point x="835" y="790" type="line"/>
      <point x="49" y="790" type="line"/>
    </contour>
  </outline>
</glyph>
<glyph name="strokelongcomb" format="2">
  <unicode hex="0336"/>
  <anchor x="373.5" y="751.5" name="_center"/>
  <outline>
    <contour>
      <point x="55" y="740" type="line"/>
      <point x="694" y="740" type="line"/>
      <point x="694" y="764" type="line"/>
      <point x="55" y="764" type="line"/>
    </contour>
  </outline>
</glyph>
<glyph name="slashshortcomb" format="2">
  <unicode hex="0337"/>
  <anchor x="324" y="709.5" name="_center"/>
  <outline>
    <contour>
      <point x="46" y="533" type="line"/>
      <point x="606" y="878" type="line"/>
      <point x="591" y="904" type="line"/>
      <point x="31" y="560" type="line"/>
    </contour>
  </outline>
</glyph>
<glyph name="slashlongcomb" format="2">
  <unicode hex="0338"/>
  <anchor x="382" y="465.5" name="_center"/>
  <outline>
    <contour>
      <point x="22" y="-107" type="line"/>
      <point x="78" y="-107" type="line"/>
      <point x="740" y="1037" type="line"/>
      <point x="685" y="1037" type="line"/>
    </contour>
  </outline>
</glyph>
<glyph name="Dje-cy" format="2">
  <advance width="1498"/>
  <unicode hex="0402"/>
  <outline>
    <contour>
      <point x="896" y="-32" type="line"/>
      <point x="1238" y="-32"/>
      <point x="1384" y="153"/>
      <point x="1384" y="421" type="curve" smooth="yes"/>
      <point x="1384" y="691"/>
      <point x="1252" y="860"/>
      <point x="983" y="860" type="curve" smooth="yes"/>
      <point x="812" y="860"/>
      <point x="661" y="793"/>
      <point x="604" y="619" type="curve"/>
      <point x="605" y="1433" type="line"/>
      <point x="391" y="1433" type="line"/>
      <point x="391" y="0" type="line"/>
      <point x="604" y="0" type="line"/>
      <point x="604" y="451" type="line" smooth="yes"/>
      <point x="604" y="639"/>
      <point x="736" y="789"/>
      <point x="935" y="789" type="curve" smooth="yes"/>
      <point x="1099" y="789"/>
      <point x="1184" y="655"/>
      <point x="1184" y="407" type="curve" smooth="yes"/>
      <point x="1184" y="180"/>
      <point x="1123" y="27"/>
      <point x="904" y="27" type="curve"/>
    </contour>
    <contour>
      <point x="74" y="1372" type="line"/>
      <point x="919" y="1372" type="line"/>
      <point x="919" y="1433" type="line"/>
      <point x="74" y="1433" type="line"/>
    </contour>
  </outline>
</glyph>
<glyph name="Lje-cy" format="2">
  <advance width="2092"/>
  <unicode hex="0409"/>
  <outline>
    <contour>
      <point x="1084" y="55" type="line"/>
      <point x="1027" y="0" type="line"/>
      <point x="1528" y="-2" type="line" smooth="yes"/>
      <point x="1645" y="-3"/>
      <point x="1755" y="44"/>
      <point x="1853" y="128" type="curve" smooth="yes"/>
      <point x="1941" y="205"/>
      <point x="2005" y="332"/>
      <point x="2005" y="448" type="curve" smooth="yes"/>
      <point x="2005" y="562"/>
      <point x="1942" y="689"/>
      <point x="1856" y="764" type="curve" smooth="yes"/>
      <point x="1760" y="846"/>
      <point x="1655" y="891"/>
      <point x="1544" y="891" type="curve" smooth="yes"/>
      <point x="1168" y="893" type="line"/>
      <point x="1199" y="835" type="line"/>
      <point x="1537" y="836" type="line" smooth="yes"/>
      <point x="1659" y="836"/>
      <point x="1813" y="650"/>
      <point x="1813" y="449" type="curve" smooth="yes"/>
      <point x="1813" y="254"/>
      <point x="1668" y="55"/>
      <point x="1537" y="55" type="curve" smooth="yes"/>
    </contour>
    <contour>
      <point x="478" y="1433" type="line"/>
      <point x="464" y="809"/>
      <point x="429" y="846"/>
      <point x="417" y="711" type="curve" smooth="yes"/>
      <point x="358" y="375"/>
      <point x="258" y="111"/>
      <point x="95" y="111" type="curve" smooth="yes"/>
      <point x="31" y="111" type="line"/>
      <point x="31" y="0" type="line"/>
      <point x="116" y="0" type="line" smooth="yes"/>
      <point x="287" y="0"/>
      <point x="414" y="224"/>
      <point x="488" y="751" type="curve" smooth="yes"/>
      <point x="502" y="990"/>
      <point x="527" y="1097"/>
      <point x="541" y="1410" type="curve"/>
      <point x="478" y="1372" type="line"/>
      <point x="1122" y="1372" type="line"/>
      <point x="1028" y="1434" type="line"/>
      <point x="1028" y="0" type="line"/>
      <point x="1245" y="0" type="line"/>
      <point x="1245" y="1433" type="line"/>
    </contour>
  </outline>
</glyph>
<glyph name="Nje-cy" format="2">
  <advance width="2230"/>
  <unicode hex="040A"/>
  <outline>
    <contour>
      <point x="172" y="0" type="line"/>
      <point x="381" y="0" type="line"/>
      <point x="381" y="776" type="line"/>
      <point x="262" y="704" type="line"/>
      <point x="1292" y="704" type="line"/>
      <point x="1165" y="776" type="line"/>
      <point x="1165" y="0" type="line"/>
      <point x="1375" y="0" type="line"/>
      <point x="1375" y="1433" type="line"/>
      <point x="1165" y="1433" type="line"/>
      <point x="1165" y="693" type="line"/>
      <point x="1292" y="765" type="line"/>
      <point x="262" y="765" type="line"/>
      <point x="381" y="693" type="line"/>
      <point x="381" y="1433" type="line"/>
      <point x="172" y="1433" type="line"/>
    </contour>
    <contour>
      <point x="1223" y="53" type="line"/>
      <point x="1166" y="0" type="line"/>
      <point x="1667" y="-2" type="line" smooth="yes"/>
      <point x="1784" y="-3"/>
      <point x="1894" y="44"/>
      <point x="1991" y="128" type="curve" smooth="yes"/>
      <point x="2080" y="205"/>
      <point x="2143" y="332"/>
      <point x="2143" y="448" type="curve" smooth="yes"/>
      <point x="2143" y="562"/>
      <point x="2081" y="689"/>
      <point x="1994" y="764" type="curve" smooth="yes"/>
      <point x="1899" y="846"/>
      <point x="1794" y="891"/>
      <point x="1683" y="891" type="curve" smooth="yes"/>
      <point x="1306" y="893" type="line"/>
      <point x="1338" y="835" type="line"/>
      <point x="1676" y="836" type="line" smooth="yes"/>
      <point x="1798" y="836"/>
      <point x="1952" y="650"/>
      <point x="1952" y="449" type="curve" smooth="yes"/>
      <point x="1952" y="254"/>
      <point x="1807" y="54"/>
      <point x="1676" y="53" type="curve" smooth="yes"/>
    </contour>
  </outline>
</glyph>
<glyph name="Tshe-cy" format="2">
  <advance width="1498"/>
  <unicode hex="040B"/>
  <outline>
    <contour>
      <point x="605" y="1433" type="line"/>
      <point x="391" y="1433" type="line"/>
      <point x="391" y="0" type="line"/>
      <point x="604" y="0" type="line"/>
      <point x="604" y="451" type="line" smooth="yes"/>
      <point x="604" y="639"/>
      <point x="751" y="789"/>
      <point x="935" y="789" type="curve" smooth="yes"/>
      <point x="1097" y="789"/>
      <point x="1171" y="671"/>
      <point x="1171" y="429" type="curve" smooth="yes"/>
      <point x="1171" y="0" type="line"/>
      <point x="1384" y="0" type="line"/>
      <point x="1384" y="472" type="line" smooth="yes"/>
      <point x="1384" y="731"/>
      <point x="1238" y="860"/>
      <point x="983" y="860" type="curve" smooth="yes"/>
      <point x="752" y="860"/>
      <point x="583" y="754"/>
      <point x="561" y="467" type="curve"/>
      <point x="603" y="397" type="line"/>
    </contour>
    <contour>
      <point x="74" y="1372" type="line"/>
      <point x="919" y="1372" type="line"/>
      <point x="919" y="1433" type="line"/>
      <point x="74" y="1433" type="line"/>
    </contour>
  </outline>
</glyph>
<glyph name="Be-cy" format="2">
  <advance width="1307"/>
  <unicode hex="0411"/>
  <outline>
    <contour>
      <point x="175" y="0" type="line"/>
      <point x="723" y="0" type="line" smooth="yes"/>
      <point x="1050" y="0"/>
      <point x="1218" y="119"/>
      <point x="1218" y="389" type="curve" smooth="yes"/>
      <point x="1218" y="660"/>
      <point x="1050" y="779"/>
      <point x="723" y="779" type="curve" smooth="yes"/>
      <point x="283" y="778" type="line"/>
      <point x="378" y="683" type="line"/>
      <point x="378" y="1433" type="line"/>
      <point x="175" y="1433" type="line"/>
    </contour>
    <contour>
      <point x="378" y="-3" type="line"/>
      <point x="378" y="812" type="line"/>
      <point x="283" y="718" type="line"/>
      <point x="655" y="720" type="line" smooth="yes"/>
      <point x="905" y="720"/>
      <point x="1007" y="637"/>
      <point x="1007" y="389" type="curve" smooth="yes"/>
      <point x="1007" y="141"/>
      <point x="905" y="59"/>
      <point x="655" y="59" type="curve" smooth="yes"/>
      <point x="283" y="59" type="line"/>
    </contour>
    <contour>
      <point x="1009" y="1372" type="line"/>
      <point x="1009" y="1433" type="line"/>
      <point x="177" y="1433" type="line"/>
      <point x="177" y="1372" type="line"/>
    </contour>
  </outline>
</glyph>
<glyph name="De-cy" format="2">
  <advance width="1508"/>
  <unicode hex="0414"/>
  <outline>
    <contour>
      <point x="96" y="0" type="line"/>
      <point x="1386" y="0" type="line"/>
      <point x="1386" y="61" type="line"/>
      <point x="1062" y="61" type="line"/>
      <point x="1242" y="7" type="line"/>
      <point x="1242" y="1430" type="line"/>
      <point x="505" y="1430" type="line"/>
      <point x="505" y="1369" type="line"/>
      <point x="1179" y="1369" type="line"/>
      <point x="1025" y="1426" type="line"/>
      <point x="1025" y="7" type="line"/>
      <point x="1179" y="61" type="line"/>
      <point x="96" y="61" type="line"/>
    </contour>
    <contour>
      <point x="347" y="37" type="line"/>
      <point x="554" y="542"/>
      <point x="623" y="889"/>
      <point x="624" y="1421" type="curve"/>
      <point x="505" y="1424" type="line"/>
      <point x="504" y="892"/>
      <point x="417" y="538"/>
      <point x="201" y="32" type="curve"/>
    </contour>
    <component base="_cyrillicdescender01.case" xOffset="1068"/>
    <component base="_cyrillicdescender01.case" xScale="-1" xOffset="440"/>
  </outline>
</glyph>
<glyph name="Zhe-cy" format="2">
  <advance width="1844"/>
  <unicode hex="0416"/>
  <anchor x="1824" y="0" name="bottomright"/>
  <anchor x="922" y="1430" name="top"/>
  <outline>
    <contour>
      <point x="1602" y="0" type="line"/>
      <point x="1772" y="0" type="line"/>
      <point x="1181" y="788" type="line"/>
      <point x="1074" y="731" type="line"/>
    </contour>
    <contour>
      <point x="835" y="0" type="line"/>
      <point x="1009" y="0" type="line"/>
      <point x="1009" y="1430" type="line"/>
      <point x="835" y="1430" type="line"/>
    </contour>
    <contour>
      <point x="908" y="701" type="line"/>
      <point x="1181" y="701" type="line"/>
      <point x="1181" y="780" type="line"/>
      <point x="908" y="780" type="line"/>
    </contour>
    <contour>
      <point x="1092" y="748" type="line"/>
      <point x="1186" y="723" type="line"/>
      <point x="1711" y="1430" type="line"/>
      <point x="1595" y="1430" type="line"/>
    </contour>
    <contour>
      <point x="241" y="0" type="line"/>
      <point x="771" y="731" type="line"/>
      <point x="663" y="788" type="line"/>
      <point x="72" y="0" type="line"/>
    </contour>
    <contour>
      <point x="936" y="701" type="line"/>
      <point x="936" y="780" type="line"/>
      <point x="673" y="780" type="line"/>
      <point x="673" y="701" type="line"/>
    </contour>
    <contour>
      <point x="752" y="748" type="line"/>
      <point x="249" y="1430" type="line"/>
      <point x="132" y="1430" type="line"/>
      <point x="657" y="723" type="line"/>
    </contour>
  </outline>
</glyph>
<glyph name="Ze-cy" format="2">
  <advance width="1217"/>
  <unicode hex="0417"/>
  <anchor x="609" y="0" name="bottom"/>
  <anchor x="609" y="1430" name="top"/>
  <outline>
    <contour>
      <point x="544" y="-28" type="curve" smooth="yes"/>
      <point x="970" y="-28"/>
      <point x="1130" y="91"/>
      <point x="1130" y="386" type="curve" smooth="yes"/>
      <point x="1130" y="619"/>
      <point x="1001" y="758"/>
      <point x="723" y="784" type="curve"/>
      <point x="770" y="746" type="line"/>
      <point x="961" y="745"/>
      <point x="1043" y="896"/>
      <point x="1043" y="1091" type="curve" smooth="yes"/>
      <point x="1043" y="1355"/>
      <point x="912" y="1459"/>
      <point x="580" y="1459" type="curve" smooth="yes"/>
      <point x="378" y="1459"/>
      <point x="198" y="1370"/>
      <point x="124" y="1222" type="curve"/>
      <point x="257" y="1159" type="line"/>
      <point x="290" y="1311"/>
      <point x="426" y="1403"/>
      <point x="576" y="1403" type="curve" smooth="yes"/>
      <point x="767" y="1403"/>
      <point x="843" y="1308"/>
      <point x="843" y="1089" type="curve" smooth="yes"/>
      <point x="843" y="874"/>
      <point x="755" y="781"/>
      <point x="549" y="781" type="curve" smooth="yes"/>
      <point x="449" y="781" type="line"/>
      <point x="449" y="745" type="line"/>
      <point x="554" y="745" type="line" smooth="yes"/>
      <point x="802" y="745"/>
      <point x="907" y="630"/>
      <point x="907" y="385" type="curve" smooth="yes"/>
      <point x="907" y="126"/>
      <point x="812" y="23"/>
      <point x="550" y="23" type="curve" smooth="yes"/>
      <point x="383" y="23"/>
      <point x="191" y="141"/>
      <point x="196" y="291" type="curve"/>
      <point x="39" y="263" type="line"/>
      <point x="73" y="91"/>
      <point x="283" y="-28"/>
    </contour>
  </outline>
</glyph>
<glyph name="Ii-cy" format="2">
  <advance width="1515"/>
  <unicode hex="0418"/>
  <anchor x="757" y="30" name="bottom"/>
  <anchor x="1495" y="0" name="bottomright"/>
  <anchor x="758" y="1430" name="top"/>
  <outline>
    <contour>
      <point x="1338" y="0" type="line"/>
      <point x="1343" y="1463" type="line"/>
      <point x="1266" y="1463" type="line"/>
      <point x="203" y="230" type="line"/>
      <point x="275" y="232" type="line"/>
      <point x="275" y="1433" type="line"/>
      <point x="172" y="1433" type="line"/>
      <point x="172" y="-24" type="line"/>
      <point x="256" y="-24" type="line"/>
      <point x="1317" y="1198" type="line"/>
      <point x="1236" y="1224" type="line"/>
      <point x="1236" y="0" type="line"/>
    </contour>
  </outline>
</glyph>
<glyph name="Ka-cy" format="2">
  <advance width="1267"/>
  <unicode hex="041A"/>
  <anchor x="1307" y="0" name="bottomright"/>
  <anchor x="634" y="1430" name="top"/>
  <outline>
    <contour>
      <point x="173" y="0" type="line"/>
      <point x="390" y="0" type="line"/>
      <point x="390" y="1430" type="line"/>
      <point x="173" y="1430" type="line"/>
    </contour>
    <contour>
      <point x="434" y="684" type="line"/>
      <point x="1175" y="1430" type="line"/>
      <point x="1045" y="1430" type="line"/>
      <point x="336" y="715" type="line"/>
    </contour>
    <contour>
      <point x="999" y="0" type="line"/>
      <point x="1228" y="0" type="line"/>
      <point x="517" y="759" type="line"/>
      <point x="321" y="726" type="line"/>
    </contour>
  </outline>
</glyph>
<glyph name="El-cy" format="2">
  <advance width="1418"/>
  <unicode hex="041B"/>
  <outline>
    <contour>
      <point x="478" y="1430" type="line"/>
      <point x="464" y="806"/>
      <point x="429" y="845"/>
      <point x="417" y="711" type="curve" smooth="yes"/>
      <point x="375" y="372"/>
      <point x="258" y="111"/>
      <point x="95" y="111" type="curve" smooth="yes"/>
      <point x="31" y="111" type="line"/>
      <point x="31" y="0" type="line"/>
      <point x="116" y="0" type="line" smooth="yes"/>
      <point x="287" y="0"/>
      <point x="414" y="224"/>
      <point x="488" y="751" type="curve" smooth="yes"/>
      <point x="514" y="986"/>
      <point x="529" y="1094"/>
      <point x="541" y="1408" type="curve"/>
      <point x="481" y="1369" type="line"/>
      <point x="1122" y="1369" type="line"/>
      <point x="1028" y="1430" type="line"/>
      <point x="1028" y="0" type="line"/>
      <point x="1245" y="0" type="line"/>
      <point x="1245" y="1430" type="line"/>
    </contour>
  </outline>
</glyph>
<glyph name="Pe-cy" format="2">
  <advance width="1538"/>
  <unicode hex="041F"/>
  <anchor x="1518" y="0" name="bottomright"/>
  <outline>
    <contour>
      <point x="173" y="0" type="line"/>
      <point x="382" y="0" type="line"/>
      <point x="382" y="1369" type="line"/>
      <point x="1155" y="1369" type="line"/>
      <point x="1155" y="0" type="line"/>
      <point x="1365" y="0" type="line"/>
      <point x="1365" y="1430" type="line"/>
      <point x="173" y="1430" type="line"/>
    </contour>
  </outline>
</glyph>
<glyph name="U-cy" format="2">
  <advance width="952"/>
  <unicode hex="0423"/>
  <guideline x="506" y="386" angle="251.54039999999995"/>
  <anchor x="476" y="1433" name="top"/>
  <outline>
    <contour>
      <point x="199" y="0" type="line"/>
      <point x="230" y="0" type="line"/>
      <point x="364" y="0"/>
      <point x="417" y="56"/>
      <point x="488" y="237" type="curve" smooth="yes"/>
      <point x="907" y="1433" type="line"/>
      <point x="827" y="1433" type="line"/>
      <point x="414" y="246" type="line" smooth="yes"/>
      <point x="372" y="128"/>
      <point x="308" y="63"/>
      <point x="253" y="63" type="curve" smooth="yes"/>
      <point x="199" y="63" type="line"/>
    </contour>
    <contour>
      <point x="491" y="451" type="line"/>
      <point x="577" y="672" type="line"/>
      <point x="235" y="1433" type="line"/>
      <point x="42" y="1433" type="line"/>
    </contour>
  </outline>
</glyph>
<glyph name="Ef-cy" format="2">
  <advance width="1375"/>
  <unicode hex="0424"/>
  <outline>
    <contour>
      <point x="648" y="206" type="curve"/>
      <point x="648" y="255" type="line"/>
      <point x="400" y="255"/>
      <point x="260" y="423"/>
      <point x="260" y="712" type="curve" smooth="yes"/>
      <point x="260" y="1004"/>
      <point x="398" y="1178"/>
      <point x="648" y="1178" type="curve"/>
      <point x="648" y="1227" type="line"/>
      <point x="287" y="1227"/>
      <point x="68" y="1032"/>
      <point x="68" y="708" type="curve" smooth="yes"/>
      <point x="68" y="397"/>
      <point x="288" y="206"/>
    </contour>
    <contour>
      <point x="580" y="0" type="line"/>
      <point x="797" y="0" type="line"/>
      <point x="797" y="1433" type="line"/>
      <point x="580" y="1433" type="line"/>
    </contour>
    <contour>
      <point x="726" y="206" type="line"/>
      <point x="1087" y="206"/>
      <point x="1307" y="397"/>
      <point x="1307" y="708" type="curve" smooth="yes"/>
      <point x="1307" y="1033"/>
      <point x="1087" y="1227"/>
      <point x="726" y="1227" type="curve"/>
      <point x="726" y="1178" type="line"/>
      <point x="978" y="1178"/>
      <point x="1116" y="1003"/>
      <point x="1116" y="708" type="curve" smooth="yes"/>
      <point x="1116" y="424"/>
      <point x="974" y="255"/>
      <point x="726" y="255" type="curve"/>
    </contour>
  </outline>
</glyph>
<glyph name="Che-cy" format="2">
  <advance width="1255"/>
  <unicode hex="0427"/>
  <anchor x="1231" y="0" name="bottomright"/>
  <anchor x="577" y="1433" name="top"/>
  <outline>
    <contour>
      <point x="869" y="0" type="line"/>
      <point x="1083" y="0" type="line"/>
      <point x="1083" y="1430" type="line"/>
      <point x="871" y="1430" type="line"/>
      <point x="871" y="979" type="line" smooth="yes"/>
      <point x="871" y="791"/>
      <point x="723" y="641"/>
      <point x="539" y="641" type="curve" smooth="yes"/>
      <point x="378" y="641"/>
      <point x="304" y="759"/>
      <point x="304" y="1001" type="curve" smooth="yes"/>
      <point x="304" y="1430" type="line"/>
      <point x="91" y="1430" type="line"/>
      <point x="91" y="958" type="line" smooth="yes"/>
      <point x="91" y="699"/>
      <point x="236" y="570"/>
      <point x="491" y="570" type="curve" smooth="yes"/>
      <point x="723" y="570"/>
      <point x="891" y="676"/>
      <point x="913" y="963" type="curve"/>
      <point x="871" y="1033" type="line"/>
    </contour>
  </outline>
</glyph>
<glyph name="Sha-cy" format="2">
  <advance width="1764"/>
  <unicode hex="0428"/>
  <outline>
    <contour>
      <point x="173" y="0" type="line"/>
      <point x="1591" y="0" type="line"/>
      <point x="1591" y="1433" type="line"/>
      <point x="1390" y="1433" type="line"/>
      <point x="1390" y="61" type="line"/>
      <point x="374" y="61" type="line"/>
      <point x="374" y="1433" type="line"/>
      <point x="173" y="1433" type="line"/>
    </contour>
    <contour>
      <point x="789" y="0" type="line"/>
      <point x="997" y="0" type="line"/>
      <point x="997" y="1433" type="line"/>
      <point x="789" y="1433" type="line"/>
    </contour>
  </outline>
</glyph>
<glyph name="Softsign-cy" format="2">
  <advance width="1223"/>
  <unicode hex="042C"/>
  <outline>
    <contour>
      <point x="174" y="0" type="line"/>
      <point x="659" y="-2" type="line" smooth="yes"/>
      <point x="776" y="-3"/>
      <point x="886" y="44"/>
      <point x="984" y="128" type="curve" smooth="yes"/>
      <point x="1073" y="203"/>
      <point x="1136" y="332"/>
      <point x="1136" y="447" type="curve" smooth="yes"/>
      <point x="1136" y="562"/>
      <point x="1073" y="689"/>
      <point x="987" y="764" type="curve" smooth="yes"/>
      <point x="892" y="847"/>
      <point x="786" y="890"/>
      <point x="675" y="891" type="curve" smooth="yes"/>
      <point x="301" y="893" type="line"/>
      <point x="382" y="869" type="line"/>
      <point x="382" y="1433" type="line"/>
      <point x="170" y="1433" type="line"/>
    </contour>
    <contour>
      <point x="382" y="7" type="line"/>
      <point x="382" y="880" type="line"/>
      <point x="332" y="835" type="line"/>
      <point x="669" y="836" type="line" smooth="yes"/>
      <point x="791" y="837"/>
      <point x="944" y="650"/>
      <point x="944" y="448" type="curve" smooth="yes"/>
      <point x="944" y="254"/>
      <point x="800" y="56"/>
      <point x="669" y="55" type="curve" smooth="yes"/>
      <point x="228" y="54" type="line"/>
    </contour>
  </outline>
</glyph>
<glyph name="be-cy" format="2">
  <advance width="1146"/>
  <unicode hex="0431"/>
  <outline>
    <contour>
      <point x="585" y="-30" type="curve" smooth="yes"/>
      <point x="887" y="-30"/>
      <point x="1096" y="163"/>
      <point x="1096" y="449" type="curve" smooth="yes"/>
      <point x="1096" y="732"/>
      <point x="889" y="928"/>
      <point x="585" y="928" type="curve" smooth="yes"/>
      <point x="437" y="928"/>
      <point x="312" y="866"/>
      <point x="238" y="768" type="curve"/>
      <point x="265" y="704" type="line"/>
      <point x="316" y="954"/>
      <point x="416" y="1196"/>
      <point x="591" y="1257" type="curve" smooth="yes"/>
      <point x="763" y="1312"/>
      <point x="878" y="1262"/>
      <point x="977" y="1428" type="curve"/>
      <point x="899" y="1459" type="line"/>
      <point x="837" y="1334"/>
      <point x="764" y="1361"/>
      <point x="611" y="1311" type="curve" smooth="yes"/>
      <point x="310" y="1225"/>
      <point x="74" y="945"/>
      <point x="74" y="449" type="curve" smooth="yes"/>
      <point x="74" y="164"/>
      <point x="280" y="-30"/>
    </contour>
    <contour>
      <point x="585" y="29" type="curve" smooth="yes"/>
      <point x="400" y="29"/>
      <point x="275" y="221"/>
      <point x="275" y="454" type="curve" smooth="yes"/>
      <point x="275" y="698"/>
      <point x="408" y="869"/>
      <point x="585" y="869" type="curve" smooth="yes"/>
      <point x="771" y="869"/>
      <point x="897" y="680"/>
      <point x="897" y="448" type="curve" smooth="yes"/>
      <point x="897" y="206"/>
      <point x="757" y="29"/>
    </contour>
  </outline>
</glyph>
<glyph name="ve-cy" format="2">
  <advance width="986"/>
  <unicode hex="0432"/>
  <outline>
    <contour>
      <point x="128" y="0" type="line"/>
      <point x="503" y="0" type="line" smooth="yes"/>
      <point x="754" y="0"/>
      <point x="925" y="22"/>
      <point x="925" y="245" type="curve" smooth="yes"/>
      <point x="925" y="418"/>
      <point x="829" y="492"/>
      <point x="584" y="501" type="curve"/>
      <point x="577" y="482" type="line"/>
      <point x="782" y="490"/>
      <point x="883" y="576"/>
      <point x="883" y="700" type="curve" smooth="yes"/>
      <point x="883" y="848"/>
      <point x="737" y="921"/>
      <point x="518" y="921" type="curve" smooth="yes"/>
      <point x="128" y="921" type="line"/>
    </contour>
    <contour>
      <point x="324" y="6" type="line"/>
      <point x="324" y="499" type="line"/>
      <point x="281" y="466" type="line"/>
      <point x="506" y="466" type="line" smooth="yes"/>
      <point x="630" y="466"/>
      <point x="732" y="458"/>
      <point x="733" y="264" type="curve" smooth="yes"/>
      <point x="733" y="93"/>
      <point x="660" y="52"/>
      <point x="497" y="52" type="curve" smooth="yes"/>
      <point x="190" y="52" type="line"/>
    </contour>
    <contour>
      <point x="324" y="477" type="line"/>
      <point x="324" y="909" type="line"/>
      <point x="205" y="871" type="line"/>
      <point x="489" y="871" type="line" smooth="yes"/>
      <point x="667" y="871"/>
      <point x="694" y="780"/>
      <point x="694" y="683" type="curve" smooth="yes"/>
      <point x="694" y="534"/>
      <point x="599" y="510"/>
      <point x="491" y="510" type="curve" smooth="yes"/>
      <point x="305" y="510" type="line"/>
    </contour>
  </outline>
</glyph>
<glyph name="ge-cy" format="2">
  <advance width="785"/>
  <unicode hex="0433"/>
  <anchor x="765" y="0" name="bottomright"/>
  <anchor x="236" y="495" name="center"/>
  <anchor x="393" y="921" name="top"/>
  <outline>
    <contour>
      <point x="132" y="921" type="line"/>
      <point x="132" y="0" type="line"/>
      <point x="335" y="0" type="line"/>
      <point x="335" y="914" type="line"/>
      <point x="186" y="858" type="line"/>
      <point x="793" y="858" type="line"/>
      <point x="793" y="921" type="line"/>
    </contour>
  </outline>
</glyph>
<glyph name="de-cy" format="2">
  <advance width="1088"/>
  <unicode hex="0434"/>
  <outline>
    <contour>
      <point x="64" y="0" type="line"/>
      <point x="1009" y="0" type="line"/>
      <point x="1009" y="63" type="line"/>
      <point x="716" y="63" type="line"/>
      <point x="898" y="5" type="line"/>
      <point x="898" y="921" type="line"/>
      <point x="376" y="921" type="line"/>
      <point x="376" y="859" type="line"/>
      <point x="867" y="859" type="line"/>
      <point x="704" y="917" type="line"/>
      <point x="704" y="5" type="line"/>
      <point x="867" y="62" type="line"/>
      <point x="64" y="62" type="line"/>
    </contour>
    <contour>
      <point x="285" y="37" type="line"/>
      <point x="413" y="408"/>
      <point x="480" y="575"/>
      <point x="481" y="915" type="curve"/>
      <point x="376" y="916" type="line"/>
      <point x="374" y="584"/>
      <point x="296" y="408"/>
      <point x="155" y="28" type="curve"/>
    </contour>
    <component base="_cyrillicdescender02" xOffset="831"/>
    <component base="_cyrillicdescender02" xScale="-1" xOffset="264"/>
  </outline>
</glyph>
<glyph name="zhe-cy" format="2">
  <advance width="1246"/>
  <unicode hex="0436"/>
  <anchor x="1226" y="0" name="bottomright"/>
  <anchor x="624" y="921" name="top"/>
  <outline>
    <contour>
      <point x="1083" y="0" type="line"/>
      <point x="1228" y="0" type="line"/>
      <point x="830" y="527" type="line"/>
      <point x="740" y="470" type="line"/>
    </contour>
    <contour>
      <point x="538" y="0" type="line"/>
      <point x="708" y="0" type="line"/>
      <point x="708" y="921" type="line"/>
      <point x="538" y="921" type="line"/>
    </contour>
    <contour>
      <point x="596" y="449" type="line"/>
      <point x="847" y="449" type="line"/>
      <point x="847" y="513" type="line"/>
      <point x="596" y="513" type="line"/>
    </contour>
    <contour>
      <point x="764" y="487" type="line"/>
      <point x="854" y="453" type="line"/>
      <point x="1198" y="921" type="line"/>
      <point x="1083" y="921" type="line"/>
    </contour>
    <contour>
      <point x="163" y="0" type="line"/>
      <point x="506" y="470" type="line"/>
      <point x="415" y="527" type="line"/>
      <point x="18" y="0" type="line"/>
    </contour>
    <contour>
      <point x="650" y="449" type="line"/>
      <point x="650" y="513" type="line"/>
      <point x="407" y="513" type="line"/>
      <point x="407" y="449" type="line"/>
    </contour>
    <contour>
      <point x="482" y="487" type="line"/>
      <point x="162" y="921" type="line"/>
      <point x="47" y="921" type="line"/>
      <point x="393" y="453" type="line"/>
    </contour>
  </outline>
</glyph>
<glyph name="ze-cy" format="2">
  <advance width="881"/>
  <unicode hex="0437"/>
  <anchor x="443" y="0" name="bottom"/>
  <anchor x="443" y="921" name="top"/>
  <outline>
    <contour>
      <point x="388" y="-28" type="curve" smooth="yes"/>
      <point x="660" y="-28"/>
      <point x="820" y="41"/>
      <point x="820" y="237" type="curve" smooth="yes"/>
      <point x="820" y="386"/>
      <point x="743" y="484"/>
      <point x="539" y="491" type="curve"/>
      <point x="614" y="468" type="line"/>
      <point x="722" y="477"/>
      <point x="759" y="580"/>
      <point x="759" y="692" type="curve" smooth="yes"/>
      <point x="759" y="865"/>
      <point x="629" y="934"/>
      <point x="413" y="934" type="curve" smooth="yes"/>
      <point x="223" y="934"/>
      <point x="121" y="867"/>
      <point x="90" y="743" type="curve"/>
      <point x="213" y="722" type="line"/>
      <point x="202" y="824"/>
      <point x="297" y="879"/>
      <point x="410" y="879" type="curve" smooth="yes"/>
      <point x="528" y="879"/>
      <point x="578" y="808"/>
      <point x="578" y="691" type="curve" smooth="yes"/>
      <point x="578" y="530"/>
      <point x="511" y="499"/>
      <point x="390" y="499" type="curve" smooth="yes"/>
      <point x="316" y="499" type="line"/>
      <point x="316" y="463" type="line"/>
      <point x="393" y="463" type="line" smooth="yes"/>
      <point x="542" y="463"/>
      <point x="626" y="414"/>
      <point x="626" y="240" type="curve" smooth="yes"/>
      <point x="626" y="96"/>
      <point x="545" y="27"/>
      <point x="391" y="27" type="curve" smooth="yes"/>
      <point x="242" y="27"/>
      <point x="149" y="96"/>
      <point x="152" y="197" type="curve"/>
      <point x="11" y="191" type="line"/>
      <point x="40" y="59"/>
      <point x="136" y="-28"/>
    </contour>
  </outline>
</glyph>
<glyph name="ii-cy" format="2">
  <advance width="1071"/>
  <unicode hex="0438"/>
  <anchor x="1051" y="0" name="bottomright"/>
  <anchor x="536" y="921" name="top"/>
  <outline>
    <contour>
      <point x="107" y="-14" type="line"/>
      <point x="233" y="-14" type="line"/>
      <point x="847" y="663" type="line"/>
      <point x="826" y="729" type="line"/>
      <point x="826" y="0" type="line"/>
      <point x="959" y="0" type="line"/>
      <point x="958" y="928" type="line"/>
      <point x="846" y="928" type="line"/>
      <point x="231" y="235" type="line"/>
      <point x="239" y="217" type="line"/>
      <point x="239" y="914" type="line"/>
      <point x="107" y="914" type="line"/>
    </contour>
  </outline>
</glyph>
<glyph name="ka-cy" format="2">
  <advance width="929"/>
  <unicode hex="043A"/>
  <anchor x="899" y="0" name="bottomright"/>
  <anchor x="465" y="921" name="top"/>
  <outline>
    <contour>
      <point x="131" y="0" type="line"/>
      <point x="338" y="0" type="line"/>
      <point x="338" y="921" type="line"/>
      <point x="131" y="921" type="line"/>
    </contour>
    <contour>
      <point x="411" y="454" type="line"/>
      <point x="895" y="921" type="line"/>
      <point x="779" y="921" type="line"/>
      <point x="323" y="477" type="line"/>
    </contour>
    <contour>
      <point x="711" y="0" type="line"/>
      <point x="920" y="0" type="line"/>
      <point x="468" y="502" type="line"/>
      <point x="287" y="487" type="line"/>
    </contour>
  </outline>
</glyph>
<glyph name="el-cy" format="2">
  <advance width="1016"/>
  <unicode hex="043B"/>
  <outline>
    <contour>
      <point x="691" y="0" type="line"/>
      <point x="888" y="0" type="line"/>
      <point x="888" y="923" type="line"/>
      <point x="317" y="923" type="line"/>
      <point x="317" y="861" type="line"/>
      <point x="873" y="861" type="line"/>
      <point x="691" y="916" type="line"/>
    </contour>
    <contour>
      <point x="7" y="0" type="line"/>
      <point x="85" y="0" type="line" smooth="yes"/>
      <point x="180" y="0"/>
      <point x="291" y="91"/>
      <point x="346" y="561" type="curve" smooth="yes"/>
      <point x="339" y="665"/>
      <point x="369" y="744"/>
      <point x="377" y="916" type="curve"/>
      <point x="317" y="916" type="line"/>
      <point x="310" y="739"/>
      <point x="281" y="635"/>
      <point x="275" y="530" type="curve" smooth="yes"/>
      <point x="232" y="247"/>
      <point x="184" y="116"/>
      <point x="53" y="116" type="curve" smooth="yes"/>
      <point x="7" y="116" type="line"/>
    </contour>
  </outline>
</glyph>
<glyph name="em-cy" format="2">
  <advance width="1296"/>
  <unicode hex="043C"/>
  <outline>
    <contour>
      <point x="128" y="0" type="line"/>
      <point x="243" y="0" type="line"/>
      <point x="243" y="781" type="line"/>
      <point x="190" y="794" type="line"/>
      <point x="653" y="-12" type="line"/>
      <point x="1069" y="791" type="line"/>
      <point x="990" y="771" type="line"/>
      <point x="990" y="0" type="line"/>
      <point x="1168" y="0" type="line"/>
      <point x="1168" y="933" type="line"/>
      <point x="1040" y="933" type="line"/>
      <point x="694" y="240" type="line"/>
      <point x="670" y="239" type="line"/>
      <point x="280" y="933" type="line"/>
      <point x="128" y="933" type="line"/>
    </contour>
  </outline>
</glyph>
<glyph name="en-cy" format="2">
  <advance width="1115"/>
  <unicode hex="043D"/>
  <anchor x="966" y="0" name="bottomright"/>
  <outline>
    <contour>
      <point x="128" y="0" type="line"/>
      <point x="324" y="0" type="line"/>
      <point x="324" y="513" type="line"/>
      <point x="196" y="446" type="line"/>
      <point x="927" y="446" type="line"/>
      <point x="791" y="513" type="line"/>
      <point x="791" y="0" type="line"/>
      <point x="988" y="0" type="line"/>
      <point x="988" y="921" type="line"/>
      <point x="791" y="921" type="line"/>
      <point x="791" y="428" type="line"/>
      <point x="927" y="496" type="line"/>
      <point x="196" y="496" type="line"/>
      <point x="324" y="428" type="line"/>
      <point x="324" y="921" type="line"/>
      <point x="128" y="921" type="line"/>
    </contour>
  </outline>
</glyph>
<glyph name="pe-cy" format="2">
  <advance width="1139"/>
  <unicode hex="043F"/>
  <anchor x="1127" y="0" name="bottomright"/>
  <outline>
    <contour>
      <point x="128" y="0" type="line"/>
      <point x="323" y="0" type="line"/>
      <point x="323" y="860" type="line"/>
      <point x="816" y="860" type="line"/>
      <point x="816" y="0" type="line"/>
      <point x="1012" y="0" type="line"/>
      <point x="1012" y="921" type="line"/>
      <point x="128" y="921" type="line"/>
    </contour>
  </outline>
</glyph>
<glyph name="te-cy" format="2">
  <advance width="830"/>
  <unicode hex="0442"/>
  <anchor x="803" y="0" name="bottomright"/>
  <outline>
    <contour>
      <point x="312" y="0" type="line"/>
      <point x="518" y="0" type="line"/>
      <point x="518" y="910" type="line"/>
      <point x="396" y="863" type="line"/>
      <point x="830" y="863" type="line"/>
      <point x="830" y="921" type="line"/>
      <point x="0" y="921" type="line"/>
      <point x="0" y="863" type="line"/>
      <point x="435" y="863" type="line"/>
      <point x="312" y="910" type="line"/>
    </contour>
  </outline>
</glyph>
<glyph name="ef-cy" format="2">
  <advance width="1408"/>
  <unicode hex="0444"/>
  <outline>
    <contour>
      <point x="895" y="-24" type="curve" smooth="yes"/>
      <point x="1193" y="-24"/>
      <point x="1346" y="139"/>
      <point x="1346" y="460" type="curve" smooth="yes"/>
      <point x="1346" y="791"/>
      <point x="1183" y="947"/>
      <point x="895" y="947" type="curve" smooth="yes"/>
      <point x="862" y="947"/>
      <point x="820" y="944"/>
      <point x="769" y="917" type="curve"/>
      <point x="764" y="859" type="line"/>
      <point x="811" y="881"/>
      <point x="842" y="894"/>
      <point x="892" y="894" type="curve" smooth="yes"/>
      <point x="1039" y="894"/>
      <point x="1160" y="719"/>
      <point x="1160" y="462" type="curve" smooth="yes"/>
      <point x="1160" y="201"/>
      <point x="1038" y="29"/>
      <point x="892" y="29" type="curve" smooth="yes"/>
      <point x="843" y="29"/>
      <point x="811" y="42"/>
      <point x="764" y="65" type="curve"/>
      <point x="769" y="6" type="line"/>
      <point x="819" y="-21"/>
      <point x="861" y="-24"/>
    </contour>
    <contour>
      <point x="513" y="-24" type="curve" smooth="yes"/>
      <point x="546" y="-24"/>
      <point x="589" y="-21"/>
      <point x="639" y="6" type="curve"/>
      <point x="644" y="65" type="line"/>
      <point x="597" y="42"/>
      <point x="565" y="29"/>
      <point x="516" y="29" type="curve" smooth="yes"/>
      <point x="369" y="29"/>
      <point x="248" y="204"/>
      <point x="248" y="462" type="curve" smooth="yes"/>
      <point x="248" y="723"/>
      <point x="370" y="894"/>
      <point x="516" y="894" type="curve" smooth="yes"/>
      <point x="564" y="894"/>
      <point x="598" y="881"/>
      <point x="644" y="859" type="curve"/>
      <point x="639" y="917" type="line"/>
      <point x="588" y="944"/>
      <point x="546" y="947"/>
      <point x="513" y="947" type="curve" smooth="yes"/>
      <point x="225" y="947"/>
      <point x="62" y="796"/>
      <point x="62" y="460" type="curve" smooth="yes"/>
      <point x="62" y="144"/>
      <point x="214" y="-24"/>
    </contour>
    <contour>
      <point x="613" y="-526" type="line"/>
      <point x="794" y="-526" type="line"/>
      <point x="794" y="1434" type="line"/>
      <point x="613" y="1434" type="line"/>
    </contour>
  </outline>
</glyph>
<glyph name="tse-cy" format="2">
  <advance width="1199"/>
  <unicode hex="0446"/>
  <anchor x="1126" y="921" name="bottomright"/>
  <outline>
    <contour>
      <point x="1130" y="0" type="line"/>
      <point x="1130" y="61" type="line"/>
      <point x="948" y="61" type="line"/>
      <point x="948" y="0" type="line"/>
    </contour>
    <component base="pe-cy" yScale="-1" xOffset="-1" yOffset="921"/>
    <component base="_cyrillicdescender01" xScale="-1" xOffset="1165"/>
  </outline>
</glyph>
<glyph name="che-cy" format="2">
  <advance width="945"/>
  <unicode hex="0447"/>
  <anchor x="825" y="0" name="bottomright"/>
  <anchor x="473" y="921" name="top"/>
  <outline>
    <contour>
      <point x="618" y="0" type="line"/>
      <point x="819" y="0" type="line"/>
      <point x="819" y="914" type="line"/>
      <point x="620" y="914" type="line"/>
      <point x="620" y="580" type="line" smooth="yes"/>
      <point x="620" y="463"/>
      <point x="540" y="383"/>
      <point x="418" y="383" type="curve" smooth="yes"/>
      <point x="289" y="383"/>
      <point x="257" y="475"/>
      <point x="257" y="623" type="curve" smooth="yes"/>
      <point x="257" y="914" type="line"/>
      <point x="58" y="914" type="line"/>
      <point x="58" y="570" type="line" smooth="yes"/>
      <point x="58" y="400"/>
      <point x="169" y="322"/>
      <point x="357" y="322" type="curve" smooth="yes"/>
      <point x="520" y="322"/>
      <point x="642" y="381"/>
      <point x="657" y="572" type="curve"/>
      <point x="621" y="697" type="line"/>
    </contour>
  </outline>
</glyph>
<glyph name="sha-cy" format="2">
  <advance width="1347"/>
  <unicode hex="0448"/>
  <anchor x="1251" y="0" name="bottomright"/>
  <outline>
    <contour>
      <point x="128" y="0" type="line"/>
      <point x="1219" y="0" type="line"/>
      <point x="1219" y="921" type="line"/>
      <point x="1036" y="921" type="line"/>
      <point x="1036" y="62" type="line"/>
      <point x="310" y="62" type="line"/>
      <point x="310" y="921" type="line"/>
      <point x="128" y="921" type="line"/>
    </contour>
    <contour>
      <point x="591" y="0" type="line"/>
      <point x="772" y="0" type="line"/>
      <point x="772" y="921" type="line"/>
      <point x="591" y="921" type="line"/>
    </contour>
  </outline>
</glyph>
<glyph name="softsign-cy" format="2">
  <advance width="884"/>
  <unicode hex="044C"/>
  <outline>
    <contour>
      <point x="129" y="0" type="line"/>
      <point x="519" y="-2" type="line" smooth="yes"/>
      <point x="691" y="-3"/>
      <point x="860" y="126"/>
      <point x="860" y="290" type="curve" smooth="yes"/>
      <point x="860" y="454"/>
      <point x="705" y="586"/>
      <point x="533" y="586" type="curve" smooth="yes"/>
      <point x="242" y="586" type="line"/>
      <point x="326" y="568" type="line"/>
      <point x="326" y="921" type="line"/>
      <point x="130" y="921" type="line"/>
    </contour>
    <contour>
      <point x="326" y="6" type="line"/>
      <point x="326" y="578" type="line"/>
      <point x="272" y="538" type="line"/>
      <point x="495" y="539" type="line" smooth="yes"/>
      <point x="577" y="539"/>
      <point x="669" y="426"/>
      <point x="669" y="293" type="curve" smooth="yes"/>
      <point x="669" y="169"/>
      <point x="585" y="48"/>
      <point x="494" y="48" type="curve" smooth="yes"/>
      <point x="163" y="47" type="line"/>
    </contour>
  </outline>
</glyph>
